<mxfile host="app.diagrams.net" modified="2022-12-21T12:04:13.582Z" agent="5.0 (Windows NT 10.0; Win64; x64) AppleWebKit/537.36 (KHTML, like Gecko) Chrome/108.0.0.0 Safari/537.36 Edg/108.0.1462.54" etag="Nb13QMATF0oKohrw4W6T" version="20.5.3" type="github">
  <diagram name="Page-1" id="e56a1550-8fbb-45ad-956c-1786394a9013">
    <mxGraphModel dx="1375" dy="1604" grid="1" gridSize="10" guides="1" tooltips="1" connect="1" arrows="1" fold="1" page="1" pageScale="1" pageWidth="1100" pageHeight="850" background="none" math="0" shadow="0">
      <root>
        <mxCell id="0" />
        <mxCell id="1" parent="0" />
        <mxCell id="CYTgUcAEzpgQwukntkNr-4" style="edgeStyle=orthogonalEdgeStyle;rounded=0;orthogonalLoop=1;jettySize=auto;html=1;" edge="1" parent="1" source="CYTgUcAEzpgQwukntkNr-2" target="CYTgUcAEzpgQwukntkNr-3">
          <mxGeometry relative="1" as="geometry" />
        </mxCell>
        <mxCell id="CYTgUcAEzpgQwukntkNr-14" style="edgeStyle=orthogonalEdgeStyle;rounded=0;orthogonalLoop=1;jettySize=auto;html=1;exitX=1;exitY=0.75;exitDx=0;exitDy=0;strokeColor=#FF0000;strokeWidth=3;" edge="1" parent="1" source="CYTgUcAEzpgQwukntkNr-2">
          <mxGeometry relative="1" as="geometry">
            <mxPoint x="1320" y="350" as="targetPoint" />
          </mxGeometry>
        </mxCell>
        <mxCell id="CYTgUcAEzpgQwukntkNr-2" value="" style="shape=image;verticalLabelPosition=bottom;labelBackgroundColor=default;verticalAlign=top;aspect=fixed;imageAspect=0;image=data:image/png,iVBORw0KGgoAAAANSUhEUgAAAl8AAAHSCAYAAADSea6GAAAgAElEQVR4nOzdP2grTeMv9q8ubyVBclPowCVw7UJrwr5qDWEVcC09BFw5RQpDIKub3EK6hAdSGFLEVU6zKq3utKrcnN0Lt7EhEsFuZRVeFXJzCosQ8kdKl0mxK2l2tTu7Wv1Z2fp+QPweazS7Myv9Xs2ZHc238OfPH/Gv/tW/AhERERHt37/IuwFEREREp4SDLyIiIqID4uCLiIiI6IA4+CIiIiI6oO0GX9MRnp+fg4/XD8wBAHN8vMplr/iYS3XnH3iNK6MNOWgWmnDybkai/bXTaRZQKPiPZvgMY3RqceWqsph2jzuoLV5fqKEzlg934LINrk1t04pERLQX2w2+yjqurq5WD70MlIooAgCKOLuUy0qYTKZ+xSlGrxOUdL/s8gc+X0eYxp6IKJ7TLKABG0IICCFgoxEcaDg/0a6uysVDPV1Z9NnQ1Nqo2v7r3Rv0tMXA7NBlKYw7uB9acIVAv1VJW4uIiPZoh7cd5/iYzHB+Xo4unc9QLJW8P6ZTTIvnWLx0Pv3EHFNM5dHX/AOvnBFbo5rhee/UlmWrwUd4tkk1ixMxOzLuoLbFbMve2+k0vYGXNGiqP9io9n5jceTx+xCGrkW2M7YscL4GustmPaJrWPjbP934dw8DdPHo5FBGRERf0u4GX9MJJqVznBUDT2Lk31p8/fyBf/qF8/lsOUM2HXllMWM2koRneIKzNF20R3d+mY1q+zbFgGmMzm0PN65YHnMXsyOHbKfz2IV5XcdYGtAtxnqu/5zWHmDQ1gK37caKMm+2ST6fDXPRkvchUL1Axe+n1ruBZeZTloo7wsCvT0REx2FHg685PiZTlMvhEVQZ+uK24/kMr8v1YECxBHy8PmNSusTV5RmK4UMWz3B5dRkazJ0yB49dA9bfcbfFTNjLQY4G3Rhg5CYds4K/boC2plgPVGmhL/pIPyY7ZDvHeB+auNY6uO3dwBUuLMPEtX94rdWHEAKuZcCwXH8g5fWloiiD84iueRfbZ0MHOrUC7nUXot/CRY5l8fy1bI/XKW6lEhHRIe1m8DWdYIJz9exVuYzy/BPTOVAsljCfjDA7v8LlWRHAHPPZTlryzVVxkXoQZCDmTlvAYhDyC7eKBeebOmA7qzq05eyOixF0aON3DPc021O5qGLQbmB0t5h9G+N9mE9ZQkvR6guI68cdvadERLQrOxh8+bNe5xGzV7LpFNPiD5SL8AZiKGKxBCxy8MY1XyF1XJtd3KdZfOX8RHsgD4CGeF8ukZLWL0kqrT6Ea8EYviNwho3XfOXQTk2H0W2gULjHEG1oWg83sTNvKWg6jO6jv95sjE5Nakv9GqY8YHR+og1/Tdahy9L2JfyeEhFRrrYffMXOeq3Wez0/P+N5UsLl8vZiGfrlD3wutqIYAXrUrUcKqD/YqC7XJ4VnqbpoLJ5vALZ4gPf9XMfflnfLrlAo4F63sFoy5KApLWIvaD3c/GptPWN00HYOe/iNFvr+bcN+X7p9mFWlhV/W0G+nhtGdLbWljgf3Bj1N6kN/cc0OXUZERF9RgcHa9JWNOzVoozuua4oz7qCmjXC3HOQSEVHeuMM9fWmVVh82GqtZsS+x2ewBVVq4M73ZRm6ySkR0HDjzRURERHRAnPkiIiIiOiAOvuh78HekP8ldFU6570REX1B+wdpS+YihjpQoSyi3qo4cqH0E68Scpt8Or135rc/ax3XZU6D60VwzIqLN/GOr2mUdV1fS39MRnqfBYO0zuWwyxZlehjfwegP+eYnzt1dwf1XaWqWFvmhtUgGtvkALDpqFx701ayOGDg3AO4Bq+l1qM/RdebDjuy4qWa8ZEVGO8gnWRhFnlwnRQdxk9SjEBmSHgq6XRU4TtWbTK6t10GnK5d4MSCcyWDt0LumY3vMNdOU9wpYnTJ6piQ7yTux5YG+xXG/pxYafK/q+xfuglv267CX4XSVjKDwR0b7lEqxNX0N8QHYoeNq1MGysvuQGXeBO2DAHbfR0F65lYLjYul4RrF1/WAVne8f0voS9522YMGGvtcWP0RHyRqiyjEHetUdci1WwNhopbpuFBgoFf+CT6ru//gDRb6Hi92e1bZkq/Fzd96zvw86vyzbnUwW/x14zIqLjlluwdiIGa+dMEZAdDp6utHBnSgHZ5rW/oaeJu7Wt5hXB2k5T2sW+jcFO+pEhyHv8G72BNMtWaKArRR/Fqix22pceW+9GnyL8PE7W9yFOwnUZSzNb67OQewp+V1bfNBSeiOgwcgnWpq9ik4DsrBa5hQ6ajSEsdzWrEj2TtavzJb3MghsYSKX4Et9m5kthP+HnYdtfl0U7vUfSjvp5Br8TEeUrn2DtVIflmq98KQKyNR1G935122jcwX035Ze3bC1YWyqKDNZOMfuU8XwBlQtUB2383PR7fi8zX/LhY8LPt7Xv65J4vi2C31X8wTB/BUlExyanYO3FNhOvmMyB6egZz88jcMeJ4xIbkF1poW9XlyHYBa2HGzft7Z34YO1rcxATrO2Vy8HbqxmQxQJwaUF+YLYp7nyqenU8uBaGjd3OYGWjCj9P6rvKoa9LDsHvlQtUAQyS728SER0U44XogLztC64Z8pyzU3kfxujUNPRu3OBCfSKinHGHeyL6fpwmCgUOvIjoOHHmi4iIiOiAOPNFREREdEAcfBEREREdUH7B2vMPvK7VIdqxwN5bm0bNyPE94T2mVGULqqicUFsOXabs9g7qyb+ClDfPjSo/dP+IiPL2588fsTOfb+Lp7TNF2UxMXt7E57LoSbxMZrtrB50s24Qw7eVfwoT0t2sJA6awY+pGHEzAjHm1qmz1ImEuz6dqy6HLktqcpZ4rLGP1OtuEMCw35hTytdtP/5TnJyLK2Q4HXzMxeXkRcWOo2eQldoA1m7ysD9pmE/HyFH882j/bNIRlW8IABAABwxKrrzPvyw/+IzAOcaU6/mP/X4SusIzQeWwz0GbXMlZttU0BGGLxcq8sOMhwLSO23bFla333j5nUlkOWqWx5zeTrEz04dYVlrI6xv/55n4fYAbJrCUPqCxHRIR1FsPZsNo/IhaT8DdC+B375u7Xb1cXu5qqA5VDotm0Cpp38c/+tonkcNCO2FRi/D4HqBSrwQsK13g2sxQ6e9QcIu4r2TweAg5/t6nLjz0VGodYeYLDcZNa7raUqW+u7FJGkasuhy5RvQ8ZrFuaOBjCvo3JBf6JdXeWC7q9/Xti2q99H5EwSEeUr92Dt+ccrRrOIHfIZrH0UzLvVjuL1B4GHOrIHT6tkjeYZd1DztkyPHOAZOtCpFXCvuxD9Fi7kwvqD/+XcAOzVIGKRJ+haBgzLDWQYqsrWAsc3aMuhy1SyXDPZuFNDY2hhPZN9jM59d21Qts/+VVp9CBtohNeEMXSbiHKUa7D2/OMVr58/pNgh+jJiA5aDMUHed3SKfdSzznxVWuh7365rGX6ViyoG7QZGd4uB2Rjvw/ABqjBNA8OtRo7JVG05dFnWdq7EX7NxpwatdwM3auDs/EQbwUHZvvs37tT8OCMOtIjoiGy/5msmJi9PIm6d/dLnm3h6mYjFEq7Z5CXw9/phueYrb8HF64GS4GJnmWsJI7A27FAi1nwJW5iIX1+0Wvjt1Q33Z+M1X4FF3/6ao8AC8bi2HLpMJfs1cy1DcY7oa7zP/tlm0povLsononxsP/gKDaqkAvH29CSeFo/Aa0JlT0/i6Wn160chBAdfRyB+8CXWF5ZLX3y2GVxsjwMubF5rc6Cd0uJw2wwtFvcGlPKXcZYF94uF3wCEacu/dlS0JY8ylUzXLPgDjMi6cQOzPfQv+deOfnsTf4FARLR7jBei3XKaKNzrgdtOTtNbl8OMPToeDN0movxwh3varfo1zEEbmrR2q4EUv3YkOhSGbhNRzjjzRURERHRAnPkiIiIiOiAOvoiIiIgOKKdg7YTQbToSY3Rq/u7gTnNtH610QuHSqcu+IjlsO9wvVdmxWbU1Mi+ciIi28o+tapd1XF1Jf09HeJ4W/Q1Tizi7vMKZXDaZ4kwvJ5TRMRqn2aHz5HmRNi04aBYeNyjLl9Ms4PHaTy/AGJ3aLfDLhXWrYRTxWv5ylYhoOzu87TjHx2SG85ht7ufzGYqlUvqy+QdeOSOWGy/DUEPbjxFaZBkuZkKcZnA3+sAMSWC3+ga6SFfmNGvoOFJ5YId7B81U5wvtdK8qSxDoY+CEirZktUU7tzjpMp5nFUJQQasfvxt8/cHFTU8LXQ/5kB3UwlE+REQUkGOwdrrQbcpHpdWHcC0YfoyQbRqwXLH8kq4/SNFCroVhXLC2FC6tLgOyBXmP0bmVjylnPKrK1Jymt0XGso/L0YmqLVllbOcewsiTMbCaiGhbOQZrJ4RuM1j7OFQvUInKzXOaqy98rY3B8nlFuHRC8DSQJci7gr9ugLYWNVukKlvM7kWtw3Lw2DVgrSdD7ydUPKGd8dX2E0ae7tQMrCYiyirXYO1UZZQDf8G11sag2/BvPw7Q1qTZrcYQVuwM1h7EBnn7AwEh8Au3a7cI05R5jwcEh1pVXMQNIBRtyUrVzlh7CCNPi4HVRETZ7WDw5c96nZ9BOUk1nWJa/IFy1IuiyrjmK0ferSVhmzAs1xtcGRbctQGKx2lKa7c0HUb3cXVLsJayTNmcC1QHi1uQipctbpUO39cGIKqydXVcm13cRw1MUrYlq43amXXmCwBQx4Pw1m9tOgBzmgVoo7uIASuWA8LDrFkjIvqijiJYO6o+g7Vz51qGF1LtWsIIhSLL4dmGZQUCpFXh0qqybEHe4UBnOcRbVZYkVFduWOq2ZC07XBC5EOHr7grLiA/IZmA1EdH2GC9ERDvEwGoioiTc4Z6IdoOB1UREqXDmi4iIiOiAOPNFREREdEAcfNF++L96YzYgERFRUE7B2guL14ww3aohtB+7CNY+VgzBJiKifGw3+Crr3g71i4deBkrBYO1VWQmTSXCINf94w6RUBuO0j9/Gwdr+HlQPURuDHQV/L7PIDWJVZflymvIgSwrBNqJf+70GzERE30N+wdrzD7xNStD1mKEXN1nNVVKwdnwQtGrWKBhIvR4gnT2wmiHY6xiCTUR0nHIK1p7j422Ckq5z1utIqYO1VUHQqlmjOh6kQGrTsPBLDsHOGFjNEOw4DMEmIjpGuQRre7cbdcRNegFgsPaxiAzWzhgEveQPiuQonITAaoZgMwSbiOi7yCFYe47p51xarD/C1J8hG3HV/ZFICtbOGAS9OHrnFqO7iFzAFOHZgiHYG2MINhHRcckhWDu0EP9KR9mfIQvMhHHNV47SB2tvFlgNYNzB7ehufSF+5sBqhmCrMASbiOgI5ROsHX7dm/gMP81g7dzFB2tvEmYtB0hHhDbLx40NrE7CEOzVgyHYRETHjvFCRCeLIdhERHngDvdEp4gh2EREueHMFxEREdEBceaLiIiI6IA4+CIiIiI6oJyCtcNlz3jmJl/0VQT27NognufQ9bzKUtxTeE8yVdmCg6a8qa2qLYcuU3Z7B/XkfdicZnCPtnD5oftHRF/b1ltNyD7fxNPb2qYREWUzMXnhNhL0NQS3d/C2Z1j+7VrCkLZ3UBzlwPWWjY/fSkJVFjj/4nyqthy6LKnNWeq5wjJSbtURuHb76V/yViFE9FXtcPClHlDNJi/iZVmYYvDFfb5yZ5uGsGxpnyxp3y3bDO4vFRycmMKyjGVZ4AskvO9WoDy4h1ZgXBCqd5gvJW8frcC5bDNwHVy/n6btl0n7fnll/pepqp5K1vNJr4+7VrFla+9Rij4cumyP10y+PtGDU1dYhrS/29765+/jFtdh1xLGgfeZI6LdyClYGwDmmLxG3ZKk4zFA+x745e/IbldXu8XXH6Sd2l0Lw0BgdRft0d2yDL3f/u0ZB01NCqW2TcC0/a0OVCHYxxNmPX4f+nmX/u7xvRtYiwTx+gOEXUX7pwPAwc92Fba/s7yynqoLWc/nZ2Fq7QEGbS1wW0tVtvYeSQHpqrYcumwf1yzMHQ1gXkeUOD/Rrt4to5r21z8GoxN9V7kEawOhiCG9hMnrCIFVXwzWPgrm3SoCp/4gVrFA8hoYrY1BsBbsxQsrF6gORnCTTqQMwT6uMGtDBzq1Au51F6LfwoVcWH/wvywbgB38UlfWU8hyvkX+pGsZfkTUKtdSVQbnEV3zLjYDUtWWQ5ft+prJxp0aGkML63ntY3Tuu2uDsn32j8HoRN9PDsHaMWU7aQgdhoNmYwgrYnZErY5rc4C25g+wGlgN0oBUwdp5h1lXLqoYtBsY3YnljN37MHyAKkzTwPB9vGG9iKZkPN8+qNpy6LKs7VyJv2bjTg1a7wZu1EDd+Yk2goOyffePwehE39D2a75mYvLyJOLW2S/FZkB668HWFupzzVfuggvNAyXClNaaeOu/5EXE8hoa6e+1jMjwMVOs50k8zi5FrPkK9T28bme1ENurG1wLp6gXK+v5/B5suuYrsOh7kR0pv7dxbTl0mUr2a+ZahuIc0dd4n/2zzaQ1X1yUT/QV5RSsHSqLGrlx8JW7+MFXcMG9YVmhX8TFDL5C9RAOpk4dgp1nmHW4nVJfbTO0eNtrt7Fa3R1dL0nW84lsC+5d6ccSph16P1V9OHSZSqZrFhGoHq4bNzDbQ/8YjE70fTFeiA7HaaJwrwdu5zhNb70L8wWJNsVgdKKvijvc0+HUr2EO2tCkNVgN2PziINoUg9GJvjTOfBEREREdEGe+iIiIiA6Igy8iIiKiA/rHVrWno/VA7OI5Li/PUMQcH6+vmCz39Sri/DK0aapcf1mPiIiI6Pva7Zqv6QjP0zKu9IgtU0Nl849XvH7+4ICLiIiITsoObzvO8TGZ4Txmm/v5fIZiqbR87fSzBF018Jp/4JWZj0RERPTNbHfbUeYHa1+tBWv7mY3Fc1xe+oXzKT5Rwo/RM56Xdx0vcckgRyIiIvrmdnTb0VvfNTu/QtQdRwDebcdJybvNOP/A6+sEJX3x+ilGzxOUwmvCiIiIiL6Z/IK1i/LryyiX55jNdtIaIiIioqO1g8HXHB+TKcrnCQvnp1NMiz9QLgIolvED0kAMU0ynRSyXhAFc80VERETf0vZrvvxZr8u1WS9pvRcQ2kqiiLN//sDr6zMmfnFZv+ItRyIiIvr2GC9EREREdEDc4Z6IiIjogDj4IiIiIjogDr6IiIiIDoiDLyIiIqID2m7wNR3h+fk5+Hj9gLc7xBwfr3KZtG2Esh4dvzE6tQIKhQIKhSactbIaOuOcmnYEnObi2hRQaMpXZ3Xdms5apVWdQgE1+QKOO6gty0LXVlUWOGf4fUrfj9opv5lERHuw3eCrrOPq6mr10MtAqbjaTuJSLithMpmmqEfHr4JWX0AIG2beTTkyTrOABmwIISCEgI2GP3gZo1O7BX65sIy1Wmg2ANuvI4SNavunP1hy0NTaqNp+mXuDntZMUeYZd27Rrpqbv0/jDu6HFlwh0G9Vsl0MIiKKlFOwdop63GT1KMTP4qQz7tRiZmTWToRas+nN4tQ66DTDM0QOmtLMkNyUQBvDs0qBmSF5FsdBMzAbFPzbadbQcaS6tQ7GgddGnM9pegOvh/rylfUHG9Xeb4xRQavfR/Q4RoNudHG/aJvziK6hQ1v+t4W//UOOf/cwQBePTkKZ3/fbdhX2w3XCxSciokPa3eDLD9Y+WwvW9m4rvn7+wD+jdlGNrEfHIDyLIw8q0hh3atB6N3BF3KAjaNAF7oQNc9BGT3fhWgaG74tZo0dcSzNDaKwGSvUHsWqja2G4LBujc9vDjbsqTz+LM0D7Hvi1mMGqtvHTgbItzmMX5nXdH3DG3F6M5M0k3o00r97jNUS/hQqA8fsQqF6gAu/90Ho3sPxpLFWZ1/c2qvYDNnvXfO4IA//YRES0WzsafPkRQ+XwrFcZ+uLW4vkMr2vruuLqASie4fKKQdv5cfDYNWD9neWre4C25g0GXH8QsSAPTNbWIZnX/kDBxJ08SBr/Rm/QRWNZr4EuhnhfTmJJ66W0NgbLihX8dQO0tWzrlsy7VdvrDwIPdVVbxngfmrjWOrjt3cAVLizDxHWqy+ety1oMdG00AjNthg50agXc6y5Ev4ULqWZcmXe70caG4+VlWwqP1xsPtomIKJ38grXT1qMcVXGRaerDgGWZwGAEN1RSafVXs1Rig1kZw1t/tKq7mE1z0GwMYbmrmSh5fdPifL9wm/nWaeq2VHVoyxkjFyPo0MbvGCbNII1/ozcwYfuDnfqDCwveTFvloopBu4HR3WLWboz3od+32LIxfvcGQLchDRC9AWNy9/31fNePu7lWRES0Jp9g7TT1uOYrZ3Vcm9I6pE399QBhA40Mv7JbU7lAdbC47afmNBvoRh2i1YdwLRjDd2nt1mr2LK7exm3RdBjdBgqFewzRhqb1cJNq9lCayYOL0cCArgGoX8OE/98A4PxEG/46r9iyxQ8i5AGpCVuI9DNhmh66VkREtCvbD75iZ69W672en5/xPClJwdqqenQs6g82qm0tYsH9YsH5akYluCB9eQB/AJZ27VNsS/DgWhg2pIX1y/PVcW16tzkLhQLudUua+QoujC9oPdz8WtxKrONvCzH1MrZl2MNvtND3Z8P6fXmGbrHlg4b2AOg2pNuulRZ+SW0pFBqAvahXx4N7g96irAHY/VUf4suIiOhYMVibaEfGnRq00d33WCs17qCmjXC3ya1hIiJKhTvcE+1IpdX3FsvH/aDgK6m0cGd6s5rcZJWIaLc480VERER0QJz5IiIiIjogDr6IsvB3zuduDAfAa01E30w+wdoRdV+5pwQdlXD80LZ1VGHkOXCafju8dm2/ruvI+qcU9z4l9UERjP7d7fzzQnTa/rFV7bKOqyvp7+kIz9NgsPaZXDaZ4kwvA5hiNAL0qyt4O01MMXqeYHqmgztP0JdQaaEvWptUQKsv0IKDZuFxb83aiJ8f+Q6gmm03Xcke+7fxtc58IkUfpGD0Ww2jA7Tm6Oz080J02nIK1i6hVJxispjtmk4xLZYQiN3mJqsnKTbIOxSQLYdZxwdyezMcHSnSSP4Xe1wgt/e8tIdZoC3JMzzvMedL6HlscPihxQaVJ4afK8S9fxFlq+uWfK03DX5Xv7cqqmB05Qm/fmB8GuMOaoUaOCFGlE5OwdrerNj57NW77Tgt4+oyYYd8+vbig7wdNDUpINu1MGys/oc+PpAbALpoj+6WO71X27fLenGB3N7zq13hg21Z7B5vx2zKGn++eOrg8Phq64OWyM1uo9Qf/PBurz/y1mTxQeVJ1zqO6v0LldkmYNp+XJL6WmcJfle/t/vx1QPj/cbEfl6IaHM5BWt768FG0HF1dQUdI2mtmI/B2idGEeTtPKJr3q1mHSot3JkDjBbBkXGB3P5z9vKbQoNuSPViA7m3oThfnKTg8DiVxW760mMXO9yrrovyWscdL+H9y9bILYLfd+/7BsanPGilhb7IMDNIdKLyCdaeT/E5L0PXvQpl/RLnmGAy3Ulr6MvKGuS9iUUWojqQe/fnS3pZXHC4wjYzX7EOdV0WgvFQhQakwWuSQ3xe0vnWgfFEtHM5BmvPMJ+v/ns2L6IkL/rimq8Towjy1nQY3fvV7btxB/fdlIMamfMT7UH0F3Z0sPYG//Lf8HwBGwSHB+vtaeZLkjpwXEX1/o07uB/KX/ppBy4pgt/9maPoccmW7+0ufKXA+CT+PwT4K0iilP78+SO28vkmnl4mYrZeIN6ensTT4hF6zWzysip7ehJvn6Hqs4l4eXoRk/UD07dlCxMQWDxMWyoyV8/DEJYrPW/afl1T2EII1zKEYbnrx/PLV4dclRmWtay/4FpGRFvCx4SAYQk3skw+nqqeEMK1hBFXdmCx12Wjax3qQ9z7FzpfsDzhmKrPixDLa2pY61dy8/fWFZYRbmfw8xJzMRXXTCjf9/jPZ7idwesp9y38ubZNiPBlCl+vbJ9Bv02xByciGeOF6Bvztgy4Zjj08XKaKNzrcKUZO6dZwL3ubrCIPPbgaBYagM0F4vs3RqemoXezi/eN6PvjDvdElJ/6NcxBG5q0bq0Be+svcG8BfANDy+XAa9+cJgoFDryINsGZLyIiIqID4swXERER0QFx8EVERER0QPkFa88/8BpXRvRVBfbe2iRuRRHaLG+2Gf45v+p8iW1ZnHODIOzM/Tv0+fK4nhkc+noS0VHYbvBV9naoXz70MlAKBmuvykqYLHdRnWL0OsP5ouzyBz7fQjvcE30BTjOU06e1UbUXkTA36Glpvhil0GZj7QxoNrCKwhE2qu2f/jFV50tuy7hzi3bV3GAT1az9O/T58rmem9vP9XSa3G+L6Ohtvc/X0kxMXuL35ZpNXsTLovDzTTwFNvaKqMt9vk6ObRrCsqW9hhR7OpnBDbmC+xPF7O20W96+T0Zww6pAmxf7LXnbPJmB/Zi8svA+Ud4xg1slhc4jnyPpfHFl3hPCgClsaf+pRNv079Dnk67dQa6nCO1Xlma/q71dT39Psrg2uJYwQnuDEdFh5ROsXSqhOJ1iKtfltBdlCv1VBTMrbBXN46AZ8dP68fsQqF6gAm/2QevdwFpMS9QfIOwq2j8dAA5+tquwU+0/5gUZ3400r42P18td7FXnU7YFY3Ru26jam+1/lr1/hz6fyj6uZ7aQ7/1dT6+Prn7PW5JERyqfYO3iGf55PlsOzJ6nJZyHs4kYrH2S9hL6GyVrNM+4g5q/cWfUAM/QgU7N2yRU9Fu4kAvrD/4XYgNIPRDx1vUsvthtNAKDRNX54sq821V2pv2vsvTv0OdT2/313Cbke5/Xs9LqQ9hAI7yWjCHYRPnbyW3H2IihwIvEW+xtxE/x9vQmwglDdFpio09cSxiKqJNgPE3KW1oRtyrTx6l4t0DXbm36ETqrPqzf9nItU5imEXNbNOI22fL2UsRrVOeLLYuKyYm4lRvZ7Sz9O/T5ZIe4nkKITW6lbt2/9Ncz+lYsER2DHQy+ZmLyEpHNGBY7QLs5eIYAACAASURBVPPqv4RHZVzzdXLic+e8wU6Wgdn+RKz5ErYww7mT4XxD0xaRgwLpmOuDBXl9jnwO1fkS2hJoc9ov6G37d+jzHe562maWdYb7u562mbTm6xDrIokoTk7B2t6AKzZUWwgOvk5Q1tDf+GDmHNocaKf0pWibkUHb3hegOrQ5EAKt/LFB6EtYVRZoxwazI5n6d+jz5XE9E0K+d9q/8HnXA+PVAyuGYBPljfFC9LXtNZiZ6DtiCDZR3rjDPX1tewpmJvqWGIJNdBQ480VERER0QJz5IiIiIjogDr6IiIiIDugfW9WejvA8mgafK57j8vIMq71R5/h4fcVkXoZ+pWO5Dev8A6+vEz/PsYjzS26oemzGnRq09gAw7VQ7dhMREVGy3a75mo7wPC17Adu++ccrXmcllKdAeTn4mmL0PAL0K+hl+AOxGc7lwRkdiUVIMXfEJiIi2oUd3nac42Myw/m5NHyaf+BtUoKuh4ZU0ymmxXMsXjqffmKOKabyJNr8A6/Pr/hg5mPOKrioxhSNO6iFo0uIiIhIaY/B2nN8vE1Q0tdns+bzGVAqoghgOvJCt8855XXEBhi5ebeBiIjoe9hbsPb84w2Tko7wpNdCsQR8vD5jUrrEVWCN2OIFDNY+FvUHgevHQiCAGAADeomIiDLYbsH9wnSCCc5xuVpNj+nnHJiP8Pwsvez5GWX9CnqxhPlohJl+5deZYz4DuODrODnNAh6vBcRD3i0hIiL6+nYw+PJnvc51afaqiLPLK5wt/55i9DyVFtyXUcYMpdKiODx4g78I/xM/+CvII2BA1yKeHndQ09qAxd2yiYiI0tp+8BU1cEpUhn45x+vrMyaLv68ibj3ScatcoAqgO3IBcPBFRESUxvaDr7KOq8SBVxl6+EXFM1xenUW/PE05HcgY78O4Mg26ARiR02JEREQUhTvcU6xxp4ZCQUO7ere+qJ4BvURERJkwWJuIiIjogDjzRURERHRAHHwRERERHVB+wdrL5+Ht/cU9voiIiOgEbDf4Kuu4upL+no7wPC0GtozwdrovoxzIaJzj4/UN+Oclzt9eMduqEURERERfRz7B2ijiLGnzVAZrExER0TeUS7A2ERER0anaTbajFDG0fMYP1k7egDUGN1klIiKibyifYG1OhREREdGJyilYO81hGaxNRERE309OwdqrbSYAAKNnPCO8FQURERHR98N4ISIiIqID4g73RERERAfEwRcRERHRAXHwRURERHRAHHyR2riDWqGAppN3QxJ8lXYSEdHJ227wNR3h+fk5+Hj9QDARaI6P12c8P48QiOCef+A1tg4dPX+wUygUUKh1MM5Sr1BDJ3XFjLK2E4DTXLSzgEJgVDdGp+Y9Hz3YW5UH6qr6nrVsg37U9n6xiYgolT9//oid+XwTT2+fgadmkxfx9PYm3p7exKpkJiYvq78/357Ey2S2u3bQnrnCMkxh+3/ZJoRhuSnq2cIEhLmo6FrCwOo4u5e1nd5rYdqBv726rrAMQ1iuKyxD6kuwcqCu/6Si71nLUnAtYRiWSNdrIiI6hByDtVd7epVKRcxns9DhGKydL3n2pongBE8Frf4D6v5fmm5gMHIDr4icNXIe0TUs/O1XHP/uYYAuHgOTSh3UNprd2Uc7m2jAhnioL19Xf7BR7f3GGBW0+n20KooWvQ9h6FrwSVXfs5YREdGXdBTB2rPZHOUyt1c9LhW0+gJC2DATXumOBjCvVwMVp1nwBi9CeA9/EDN+HwLVC1T812i9G1hJB8+hnc5jF+Z1HeNObTkwS7OWbPF6rT3AoK0FbhOq+p61LBV3hIFfn4iIjsOOBl9+xJA0gFoEayflOM4/XjGaneN8bXLsDJdXjBY6duNODY3hamYGcPDYNWCtnggwdKBTK+BedyH6LVyEX1BpoS/UM0v7becY70MT11oHt70buMKFZZi4ju5OqOl9CCHgWgYMy/UHdau+qPqetUzRY29G8PE6MINHRET5yzVYe/7xitfPH7i8PAPHWF/PuFOD1ruB22+FZlaquIgYPFUuqhg0GqjaAv064A10AFwfVztR1aG5Iwyq16jAxQg6/hq/Y7jFDJKq71nLEs6IVl+g5TRRaIIDMCKiI5JbsHbiwIvB2kctfkBTx7XZwH3nb9TD01f1a5gYYrkcyvmJNiy48rhg3EFN6+HG3c3sV6Z2AoCmw+g2UOgaMIwBNM2A5fazN0TZ96xlKWg6jOE7xqjz1iMR0bHY+teOn2/i6WUi1L9V/Az92vFTvD09iafAQy4XQswm4uXpRfBHkHnxfmUH+bH81VxEWeAXeKFy+Zd/riWMyDpyuSFS/ihxD+1c/Jox7nzerxzjjymEaxnRv6pU9T1rWRL+2pGI6OgwWJsoZNypQRvdfY9bdeMOatoId2L1q08iIsoXd7gnCqm0+rDRWG1BsbaFxRdSaeHO7KLBTVaJiI4GZ76IiIiIDogzX0REREQHxMEXURYM8j6cU77Wp9x3om8sp2DtxXOLB2OE6Ng4aG681ktVRxWDlAOn6bfDa9f268GOrH/fXdbA+J2/70SUxXb7fJV1XF1Jf09HeJ4WA/t2eTvdl1EODK5C+4BNR3ieTHGWtB0+0bGotNAXrU0qeJuewkGz8Li3Zm3E0KEBeAdQjdxtdhN77N/G1/obiez7GJ3bEe6EQB1e7NRt5y/0026Mt9P3nYiyyClYO1RzPkOxVAo9yWDtUxQZdA0E/6Uv34Zxmqg1m15ZrYNOUy73ZqI6Ukaj/C/9wLmkY3rPN9CF9yvBYFuSZ3jeY86X0HM0o/qXg7jror7WCeLev4iy1XVLvtaxn5f4ziX0QfE+hNoZeG9j+6f+DCou2O4D49PYONieiDLZepPVhc838fQmb5M6E5OXJ+E9Fd5kdfGcv8Fq1Cat3GT15NhmaEPWVYkw5Y1X5Y1YbdPfeNTbMNWwXGmTU38T1eUxQ8eRuZYw1jZgVW1oGlWe5nxR9VxhGZucW25z3AazOyJfF+W1VrVd8f6Fy2wz4jMQfT3iPy8Kyj6o3gfV5rtJ/ZPaufGmt8mfBduEkC9DpuuysPEmx0SURY7B2mXoV1e4urrC1fkMr+G1YgzWPjGKQG7nEV3zbhU3VGnhzhxg+Y9989qfBTBxt3brxYS93CxVg25I9ZzmanZAa2Owk34ozhdn/Bu9gTTLVmigiyHek2YfKi30hfADvP3HWoxSBqrrorzWccdLeP+yNVIZ4K4U1wfl+1DBXzdAW4uYuUrsn/SZqFygOhhhUTSWZsSyrJXbNNg+0Z6C7YkoaDeDLz9Y+zwcrL1ckD/CFFOMnp8xmkbUL5dRnn9iyluMJy4m6HqnDD8n0UGzMYTlLgYuNsy9ni/pZRbcwEAqxRdgxO26jRZfRzrUdVmo49ocoK357W9AGrwm2cPnRfE+VFp9CCHwC7eb386LsTim99gshWDjwHgiOho7GHwtgrXP1oK1rxYzW1c6yv5MV+RM2HSKafEHysGV+lzzdVLquDa7uI9abKLpMLr3q3Uo4w7uuykHNTLnJ9qD6C8mp9lAd+3ZFLNPGc8XULlAddDGz02/y/c18yWJvi4bUr1/4w7uh/KAJ+0ARPF5WTV+s/VzKd+HSqsP4Vp+YDl29/ncgDowPuG6qA+MGtMQiPZu+8HX2qxXqkoYydtTTEq4vDwD7zCetvqDjWpbW18oXGmhb1dXsyNaDzdu2lsj0m2kBmAvv9yDMy73uhWa4anjbwurc65WnfsLsqUF+YHZprjzqerV8eBaGDZ2OYOVVdJ1iaPon+r9q7RwV21DC8zgLRZ8q6917OdlQdNhABimHkGr3ofgQvyC1sPNL3/gs9XnM8P1hIOf7QEwkK/b6pZl4nVRqVygCqwt4Cei3WK8EH1j3rYH1wyVPl5OE4V7PTCD4zQLuNfd9FsnxB8cTW8EjO+QkX4YY3RqGno3u7j+RBSHO9wTUX7q1zAHwZmvBuytv/i9hewNDC2XA6+0nCYKBQ68iA6BM19EREREB8SZLyIiIqID4uCL6Ktj+DIR0ZeSU7B2mjIiWZag623qHVjqwON99+cQ4eChczDsmYhOTE7B2sllRCcna+DxwYKn9xiezbBnIjoh+QVrJ4Vuc5PV0xMTXKwOus4akB2e4Qn9rQpRPrRAW+RNTxNmohR9iA3P9u08HDy2D2n7z7BnIvo+djf4mk4wKZ1LWYxzfLxNUNJ1rA+vVGV0msbo3PZw4652a1/83L3+sIi5MWEvdkKX9g/wyv2Ha2HY8AYiSfWytEVdbYu4n/qDvzu9N7v0IGX1NTW5LXLcj/fa6AggdR/irpmni/bobnm+avs2xcBnjE7tEddi1U4sj6nqg6rvRETfUy7B2smh22Cw9slRBBcn2XlAdsa27CPuJxzanL4x6j4or9mOw8Ez92HRFYY9E9H3kkOw9oah23QysgUX7ycIOlNb9hJ0nV18Hza9ZnsMByciOkE5BGunDN3mmq+TtRZcvJQcdL1ZQPbq+bgA6fi2RL549zNfmg6j++jfvhujU9s86DqpD8rw7F2Eg2/bB4Y9E9E3k1OwNlGYIrgYQHzQddaA7ODzwXpJbTmgSgu/rKF/O0/D6M6OaGd0+HJ8H5Ku2Y7DwZV9SHMNGPZMRN8L44WI6Mgx7JmIvhfucE9Ex4thz0T0DXHmi4iIiOiAOPNFREREdEAcfBEREREdUE7B2ovnpAc3+aLvILDX1yaROKuooOgtxeQoIelXm6rzZS3bR//keuG9zzJfMyKir2m7wVdZl/brusKVXgZKMcHaa5WLOL8M1SX6YpymPFhy0NTaqNqL2J4b9LSIzMU1Y3Rqt8AvF5YRd6KfaFft1f5hD/WE82UtU/Y2e/9uR7jz225X27hdjrDUx3Sa3N+LiL6hP3/+iN2YicnLi5jM5Kcm4uXpTXyKT/H29CY+Va9dO9xEvDwlvIa+Fds0hGVbwgAEAAHDEu6qVJiL5wFh2lJFV6rjPwzLXT/BTrnCMkLnsc1Am13LWLXVNgVgiMXLvTJT2BHHNINPLl+/1qek82UpU9m6f1LZ4mSJbfGuCeIa51rCkM5LRPQV5BSs7ZVPlrceuZM9AcAA7XvglzRD4u2YvkFos20Cpp28LcFWUUAOmhHbH4zfh0D1AhV4MzZa7wbWYjfR+gOEXUX7pwPAwc92Vdq8VNXMGgqFArT2AIO2Frg1pzpf1jJlW3bUP3c0gHldT9kWL2zb1e9RKKSZZSMiOn65BGuvxQ/pJUxe5TVhYLD2iTLvVjvJ1x8EHupQhzZnlTUKaNxBzdv2PXKAZ+hAp1bAve5C9Fu4kAvrD/4gogHYyQMvr5lePqNrGTAsdy0zUXW+rGUq2/Zv3KmhMbTwt1SYpi2VVh/CBhrhNWEM3SaiLyiHYO2I+uWoNWFEktjQ5mBUjve9n2JYk3Xmq9JC3xsFrK1FqlxUMWg3MLpbDMzGeB+GD1CFaRoYbjVyTD5f1rKs50vTv3GnBq13A1ca5KZty7hT86OOONAioq/vH9sfYhGsra8Fa58t/55i9DxF+Sr6FuT8Y4Jp+Rx68Em8vn7ixyVnv05e5QLVQQM/nRbWxlXjDu6HFlyxYfZipYW+aGVsUB0PwkWnpqEG6dZj/RomhtA1/2XOT7RhwV202WlCG11DPPyNTk1D80Ks92ejZqjOl7Us6/nU/YsaeKU6JrzbkQ3YECKigeMOalobsLgDPhF9IVsvuP98E08vE6FeFx9ecP8p3p6exNPi8fa5XoUL7k+ObSoWfYcX1UuLtG0zuNgeB1yAvdbmQDulBee2GVqA7v2AwFtE7y8qD/QhuFg9csG96nzblKlk6l/wxxJrdRVtsc2kH0/4x078tQAR0fFgvBB9bU4ThXs9MKPiNL31Q5wJOQUM3Sair4c73NPXVr+GOWhDk9ZuNZDi14709TF0m4i+KM58ERERER0QZ76IiIiIDoiDLzou/hYQ0fmGREREX19OwdoR9dfqEaXloPkldj//Ku0MhXgvNzYNPy8FfPucZrA81SA6vOfaspKDZiHueMltSXW+tb3dkgLOIw+oaEvctYzue6pzOs3guaTjRmVhjjs1v5+q67n+3qW9nrH11toZ/uzHX5tsbVFd64TPS+xnUFFv7R+K3mvjP6MMjSfJ7rIdhbftRGjbiNnkRTy9vYW2mvCfT9yigigNW5ibbJeQm+NsZ3C7jIQsRa9GZD9sM8uWD7YwY7cGCZ0nMsdx02vqCstYvT64lYUrLMMQlhufsakW1ZbFMRddMKRtUrxtMpbn2TinMup8oevpWsJYvkZ9PZVbvahaEVfPNgOfh2Dep/pzlq0tqmu9PHLyNYtu0Xo91xKGYQhjeQ75c5Pcv/3nz9Ix2+Ftxzk+JjOcn0vbqM4/8DYpQV/LGJpj+lmCfnmG2P1T5x94ZebjCZH/lRj+F7I3Y9Txcw4LhdW/7r1/ITfQhRQ/FPhXcvBf+8F/6dfQcaJnQeLLwrNX8t9btDP0L+/w7MV+jJexPsvNXhebnG66++u4g/uumS5dIFDvHSk21/dU/sKNMcDI3ewUoYOg1V9FH2m6gcHygBW0+vvdQb/y1w2MwQgugHHnHl3TXl37Sgt35gC939u893X8bcHP2AScn23A+js6ymon1zO9SusXLKOLRwfZP2ebnE+61kqbfAbX3OBmmUErSehf/cHFTU9LP1tL304+wdrzKT5Rwny0ul35ylHWifMClIWwEZ3x3EV7dOdFC7kW0PuNMbz8R6+OCXsRPbT8HzxVIDcQH+SdVKYitVPYqLZv0RmnaOetFA4uonMj1+w5HHy8HESmuF3ijjAwdGgJL1tTaeGXBS8eKqnt49/oDUxc7/D7Wg75PoTx7x4G5jXq/rkNPXjFgoPBbCqtX7CGDTQ7XvrDr7jPUsT17Day/QMgXb0KLqrA8H2c6nOWtS2r7q2utdImn8EIf/1tYfgYuqGa2D8Gxp+6nIK1AcwnmJUX4do6SpO34CwXg7UpQJpVqVygmupftMmB3JFB3inKUrUTGvRUMwsV/HXj/Y//Rl8yewsH1/zD9yGEC8tI36QsluHhNz1vv7bAbID0/mk93LjpAsnTiAr53o9V9qg2upMG3ftSQevORLfdRvUu/HlQX0/T3vAfAFvUS/qcZWtLtmut/gwmVsYd7tf+gZLm/49iA+Pp28svWLsov76McnmO2WwnrSFaiQ3kPlgDoKeYDlr8j/8v3KZfYLyvcHB/VnEjmp7uFo+yWX1vdrArf5FJM4U7fO9isyb3woDlejO2RrexvOZRs1xRs2GZ1K9hImqWcD/XMx0vNL16Ucn+OUsUfa3Tiv4MJqtfV9H++Xt1nJT9Y2D86drB4GsRrH22FqztzWp5M1tllKFfXXkzYcUyfuAT0+VM1xTTaRGlknxYrvmiTQRntAD4M2RpbxdmO5fTbKAb9zLnJ9qDKi4C/6Ma0U5JpdX3vjiG7ykHURlmvgAswsFvelrwC8pPDLjd9J/hlb9wY3TR2HYNy1brb1Ke4qADL0mlhV+WsfxSrvx1A0P+kh93cN81cPPX9/wWdpoa2vBnGrN+ztIKXeuNZPkM1v+GNeyht/w7uX9O05+dExGzuf4vRbkk7BvLJ1hb+MHZq3DttWxtBmufmIjw5cCvwsKhzevB08t68i+MEgK5435RpSqTz2VYltSWcB/Wf4UX3c5wvcMFgwsR1de49kQEgAdTxdfKE3+xZpuKUHTVLxmT2hJ7QkXId3LAeTRVW4K/wFv7hWOg/5u+76rrE/ervvj+rAXUp/y5YWy98Hsb+cvD6Pc+W1tU11rxHik/g4p6riX90nF1nFVT1f1T/trR/98t/iLy+2K8ENHOOGgWHnEd9S9Zolj83FCYg6a/LnPvSwQpF9zhnoj2aH1jz403Rf326niwsVoIX6utr+XL7Zod0/t3TG3ZH+/XkQ0MLZcDr2+MM19EREREB8SZLyIiIqID4uCLiIiI6IDyCdZOVY8oTycULr22wSPDpRkurXr/CgyXJtpWXsHaSfWIDum0wqUjjhkIB2a49KYYLs1waaJN5BSsnVDPr8tNVmn/TjBc2nlEV868q/yFG/Tg5TkzXHqfGC69khguPe6gxpky+qbyCdZW1iM6lBMNl9Z0GN3H1e0v5yfagy2OtyGGSzNc2j8pw6XpZOUXrB1Tb4nB2rRPpxwuXWnhlzVcHfNR33v/GC4djeHSinDpSgt9Zh7SN5VfsHZkPaIDOfFw6cUXrRAC4uECo7UMyl1juLSH4dJhDJemU5RPsHZsPfmwXPNF+3a64dLSydCpNTCMWxO1awyXZri0RBku7f+SMsvtVqKjl1uwdlI9BmvTAZ1WuHSwXrAKw6U3v54Ml95LuPSibpafnxIdOcYLEdERYLg0hY3Rqa3/IIboO+AO90R7dxqBwNthuPTXa8seOU0UIn6JTPRdcOaLiIiI6IA480VERER0QBx8ERERER1QPsHaEXVfuacEYYxOzd/p2mlm/Im5g2bsbtmqsq9IDi1WBTYfe5+zBHkTEX1d2w2+yrq0l9cVrvQyUCoG9u3ydrovhyKGphiNAF3aB6w0mQQHZ3TSxu+H2+nq6/LiWYSwYW5Uli+nKQ+yxujUboFf0bufO03u80RE309OwdollIpTTBazXdMppsUSSoHDcZPVU+Jlv2loD7zoF609wKCtLb+knWbwl12BGRJ/M0avrIEu0pU5zRo6jlQeyLQL/qos/nyhwYGqLEGgj4ETKtqS1Rbt3OKk6yHmCUHeDF8mou8op2Btbwf889mrd9txWsbVZcxO93QSKq2+F4diWHCFgG16ESmLL+n6wyrjTrgWho3FrTQHTa2HG3dRLs/0qMoAYID2PfDLP65dbeOnA3iDhEdci1U9LM83RudWPqacuacqU3OaBTRgS5E/i9GJqi1ZZWxnaMC2PmBViQ4xT8bwZSL6fnIK1vbWgY3g3bbUMVpfK8Zg7dNUvUDFz78LcJqrL3ytjcHy+Ud0zbvomRNVmc+UQpfrD/5gb/wbvYEUvlxooIsh3scAUMFfN0Bbi5otUpUtZvei1mE5eOwasP6O2F5U2Zas1O2Mr9ZCX0iDYCEg+uHQ6ggJIebpTs3wZSL6PvIJ1p5P8TkvL29HlvVLnGOCCRd9nSh/wbXWxqDb8G8/DtDWpNmtxtALC46cwdoDfwZORAQwL0Kpf+F27RZhmjLvEd7JXRFsrWhLVqp2xso686UIMU+L4ctE9J3kGKw9w3y++u/ZvIiSvOiLa75OiL843DZhWK43uDIsuDFRM05TWrul6TC6j6tbgrWUZcrmXKA6WNyCVLxscat0+L42AFGVravj2uziPmpgkrItWW3UzqwzXwBiQ8xTYPgyEX032w++1ma9Uiie4Z/nwOT1eTkzBp23GE/d+H2I6kUFGL8jeNexjmtzgLbmzbbc69Zq5qvSwi9r6N+W0zC6s9OVKdXx4FoYNqJmeELxLloPN78WAxBVWcIZH2xU21rEgvs0bWmgC//W5EZlm7dzO94g+26khX7tWPBnO4FuI3hL1ml6C/RXa+DCh7xAFcBg5O699UREu8J4ISL6whi+TERfD3e4J6KvieHLRPRFceaLiIiI6IA480VERER0QBx80ffg/+qN2YBERHTs8gvWnn/gdVmPW0oQsJtg7WP1TUKwA3t9MdaHiCiL/IK1X2c4X9S7/IHPt/CgjU7ZxsHa/h5UcTsS5O87hGA7aGptVO1FzNMNelpwW4jvNWAmItqPfIK1p1NMy9KArFjGD3xiKo++uMnqSUkK1o4PglbNGoX2s1rbjDN7YPVJhmA7j+gaFhYpSOPfPQzQxaPfR4ZgExGlk0+wdqmE4nS6ug05nWDCQdZJUwdrq4KgVbNGdTxIgdSmYeGXHIKdMbD6VEOwx+9DP3vT33W+dwMrcNEZgk1ElEY+wdrFM/zzfIbRYs3XtITz8O72DNY+TZHB2hmDoJf8QZEchZMQWM0Q7OhBnqFjOSMm+i1cRJ6aIdhERCr5BGsDKJ5dSmvFipjNSyhyoHWikoK1MwZBL47eucXoLiIXMEV4NkOwpaKLKgbtBkZ3i4FZeJC8ODVDsImIVHIM1pbqv44wOz8P3p7kmq8Tkj5Ye7PAagDjDm5Hd+sL8TMHVp9wCHb9GiYM6Jr/t/MTbazWgAEMwSYiSuXPnz9iK59v4ullImbqF4m3pzfxufx7JiYvT+LpyXu8fUZUmU3Ey9OLmKgPTN+IaxnCtIUQriUMwxLussQWJiCwfBjCcuPKILCs6wrLiCvzzxNXphQ6p2nLnYg5pqqdm5TJfd8/24SQuxfsnyns0GsNZeP8vgQOSER0ehgvREQHwhBsIiKAO9wT0SEwBJuIaIkzX0REREQHxJkvIiIiogPi4IuIiIjogPYYrL0I1JYeIylam8HalNo+gqfH6NS+SNSN04yJMlJJCvLeT98DsUtSvNK4U4vZYsJBU2rfuFOT9iOT+xDqv3xNNvpcKI7pNWC1P1rEvmhx/SMi2sSeg7WLOL8MlQPwgrUnKOlSsPbrCNPIkxAdb/D0PgTDrMfo3A9huX7/u/cpB02Hv2ZrsUubBp2PO7jt3cBd7kcm98GEHYhyAmCuzuVaQzRSDcBUxxyjczvCnX9Mu9rGrXSxVf1jqDgRbWK/wdpxplNMi6sd8efTT8wxxVQefXGT1ZMUH1itENrNPVwtzTG9OCFpNuhYwqwBAAOMXADjdwwjdtfPdM3ks4b7nuWY4w7uuybsjUZbgQN4GZa/0m4EG1Rp/YJlrEK+s6mg1V9tDqvpBgYj12+eun8MFSeiTewxWBsA5pi8rt9anM9nyxmy6egZr58/kGbMRt9bfGC1shaamhQ87VoYNlZfcmmOOe7UoPVu4C7jcI4nzBqooPXLwrBRQOEW+BXaOT7bNZObHO57xmO6IwwMHVryKyO9d27Ru/m1RRxRBRdVYLhdkGaAOxrAvK4v/kjoH0PFiSi9vQVrIiOrhQAAIABJREFUr0UM6SVMXle3Fosl4OP1GZPSJa4u5WiixQsYrH1aFIHVymqP6Jp3qy/tSgt3pj9TlHjMAdpawRt8BKJ3jijMetxBTevhxjKBwQiuPzvmTbBkvGYA4vu+zTGz6qLdHhzwfMnGnRoaw2B0UhoMFSeiNPYUrB2hXF5mNxaLJcwnI8zOr3B5VgQwx3y2k5bQl6YIrN7LMQ1Yy0FN0LGEWTs/26jafbRaD/66Jg3tgYnr5aAg6zWL73umY2o6jMhjpWHCFjaq7dstbst5Id/VHXyAlrOB8qA0Zf8YKk5EaewpWDviVR8TTBcDsHIZZRRRKvmFUYM3rvk6MYrAahVNhyEvQh93cN9dhD+nOOZfD/5MRfStorzDrDXdQNdfyOStawJgXvu3HjNes4XIvmc8ZuUv3BhdNDL//K+OB/cGPS3bLTunqa2FfGcROfACUvWPoeJElNr+grU/xdvTKjz7KZyePZuIl2W5HLotlzNY+7TEBVargqeFELapCJ6OO6YrLEN6rX8Mr/iYwqxD4eCm5f0dd21SXTNV31XHTLIeZL6o6lpGsC3LUG5bmFJAt/e6xd8RweiLAwbe801C0RXHjLpmgfDw+P4xVJyINsF4ISKivWOoOBGtcId7IvpGHDTD6+622IZjN01iqDgRBXHmi4iIiOiAOPNFREREdEAcfBEREREdUH7B2lL5iKGOpHSMwdqhgGYmLO/J6jqvXeLAvmqh9/LQZUREG8gpWHuOj9c34J+XOOcO9pToCIO1nZ9oV7PH+lC0tVDx2i3wy/X2Nwu+Ek2tjaq9iJWS9wg7dBmDtYloM/kEa6OIs8uE6CBusnqSjiZYO+mU70MY+nrSn9OsoeNI7QnscB/8JV6gKWu740tf+oHZvqi/o47pva7TqcWGg0del3EHtcDx5TijfYoKFa+g1Y/ZKd55RNdYbao6/t3DAH6w9qHLwGBtItpMLsHaRFGOJ1g73tgfzGjtAQZtLeIW1ADte+CXfz672sZPB/AGF4+4Xu5+bwMNeVZFDvJOO8OnOiYAdNEe3S2vC3q/lwPB2Ovi7+S+GFRg/Bu9qo3Et2IvoeKK03lZQqj4fdF6N7DMfMo8DNYmovRyC9ZOxGDtE3NMwdqrQVZ4ndki89G1DBiW6w9egoM28251rPqD8AYu49/oDbpoLI/ZQBdDvI8j+pCW6pheS2AvB1UXqC6zCVXXpYLWnbmMNHJ+9nCT5j3ZR6h4AkPHcrZM9Fu4yLFsdRkYrE1EyXIJ1iaKdnzB2t4jIqsvC8OCGxig7ODLOPMxFdelfg2z+wgHDh6HN/grzfH2ECqurHZRxaDdwOhuMWjzgrXzKAteBgZrE1GyfIK1Ux2Wa75Oy3EGa+9M5QLVweIWZIimw+g++ucfo1NroBt4wWo2y2lKZapjKiVdF6/8sfkI3KUMBt9DqLi6yjVMLN5neD+AWARrH7ps8RSDtYkorXyCtWdi8iKVRYVrM1j7BB1LsHYy1zIig5SDodhrlYQR0wc5eNq0o8KmvTLDsgJl8ccMHiP6b0V4tmsJI/D6w1CGioeDrgN9D7X1wGUM1iaiTTBeiOjoOGgWHnG9q9udGYw7NdziF7MId4bB2kS0wh3uiWhp+WvO0R0HCbvCYG0iCuHMFxEREdEBceaLiIiI6IA4+CIiIiI6oH9sVXs6CoVlAyie4/LyDEXM8fH6iom8VURZX+U7zj/w+jrxQriXdeiYjDs1aO0BYNrMLiQiItqR3a75mo7wPC37A6xVePb6LvVzfLxOULzUUQYwHT1jUrrEJbezP0KLcGNuGklERLQLOQZr68sNV0ulIuazWehw3GT1OFRwUY0pYlgwERHRxra77Sjzg7WvIoK1JwCAIs4vo7MaZ7N5KBeSjouflciZLyIioq3t6Lajt75rdn4FPW4MNR3heQToV3ogYmj+8YrXzx9c83XknGYBjaG1FkBNREREm9nNzJcfrH2ZGKwdXJzPgdfX4DQLeLwWEA95t4SIiOjryy1YO3HgxTVfR0QKFJYxLJiIiGhj2898xc56TTF6Hq3muuRtJjDFZDIHMMHr82TxgrVbknTkKheoAuhyQRgREVFq2w++yjquIkdMZehXV3GVFGW+4hkur862bBxtb4z3YVyZBt0AjMhpMSIiIorCHe4plheyrKFdvVvf44thwURERJkwWJuIiIjogDjzRURERHRAHHwRERERHVBOwdrhsvjd74mIiIi+k+0GX2UdgR8tTkd4nhalfbviBlVFnF1e4UyuN5niLHZ7fCIiIqLvIadg7VDN+QzFUin0JDdZJSIiou8nx2BtaRPW4jkuL3nPkYiIiL6/3IO1l2WTEjMeiYiI6NvbzW1HP2JIecdRynWMLJt/YspbjERERPTN7eC24yJYW08RrH0OPapwOsW0+APnxUAFvL5+4sep/QryP/x74N/9G+D/+T8BUQAg8m4RERF9VQUAxRLwb/8H4N/+u7xbQ77cgrUDZcvtKU7cf/j3wH/7XwPi//Of4MCLiIi2IADMZsD/8j8D//f/BfyP/1PeLSIwXui4/Gf/KfD/8t4rERHtQeFfAJP/Pe9WEHb5a0fanjzw+u//HfDf/Bug/CO/9hAR0df2v/2vwH/1X3r/vbyrQnnj4OuYyEu8/rsW8B/9x3m2hoiIvrr//L/A6sulkHNjaIHZjsdEXuLFgRcREe2ECP1fyhsHX6Q27qBWKKDp5N2QBF+lnUREdPK2G3xNR3h+fg4+Xj/grVya4+M1VBYO4V6+RvrlI30N/mCnUCigUOtgnL4iOjWv3kEGSpnbCThNv16hgEKgsRn7ILelUENnvIOyDfpR27QiERHtxXaDr7KOq6ur1UMvA6VwsHaoXDL/eMOkpNh8lfJXaaEvBB7q8pNjdG5HuBMCQgjY1TZuU32xj9Gp3QK/XFjGMbfTG7A0YEMs6qLhD16y9sFBU2ujanvHE+4NeloTzlZlKYw7uB9acIVAv1XZpMFERLQn+QVrzz/wNilBj8sjYrB2zlazO4VC+Mu+glb/AYtxjqYbGIzcwCuiZ40qaPX7UI4Bxh3UNprd2UM7naY38JJGcvUHG9Xeb4wT++CgWVgdc9l15xFdw8Lf/iHHv3sYoItHZ4syIiL6knY3+PKDtc8igrW9247yQGqOj7cJSnpEziMdiQpafQEhbJgJr3RHA5jXq4FKeNZIBKejjr6dzmMX5nUd405tfRClNEan9ojrxfGEDTS8AeH4fQhUL1Dxz6v1bmD5Dc5aloo7wsCvT0REx2FHgy8/YqgsD6WKOAvccixh8uqt7fJuN+rxIdwAUDzD5dWJRQt9QeNODY3hamYGcPDYNWD9nXHAVWmhLxJmxzJI384x3ocmrrUObns3cIULyzBxnaY749/oDbpoLGe+GuhiiHd/Fs/QgU6tgHvdhei3cCFVzVqmaIw3I/h4vefBLxERbWo3+3zFRgxJymWUvaEXpp9zYD7C87N0iOdnlPUr9YCMjsq4U4PWu4Hbb4VmVqq4OKKplo3bWdWhuSMMqteowMUIOv4av2OYZgbJsCLOA+CiikGjgaot0K8D3iAPwDVQyVim5s0ItpwmCk1wAEZEdER2MPO1CNZWZzN6wdpllMMzYlc6yihDvwoNvLjm66jFD2jquDa7uM/6y7qN13wlHS5jOzUdRreBQuEeQ7ShaT3cJM3mVS5QHbTxM+oWZf0aJgzomv+38xNt+DNxWcvS0HQYw/eNfuVJRER79ufPH7GVzzfx9DIRs/UC8fb0JJ4Wj7fPuAOIt6c3sVY6m4iXpxcxWT/w9/Wv/+XqkTtbmN6OfKuHYQk3rgymsOPqmosSV1iGqp4QwrWEAUNYbl7tdIVlqM6f0AfXEkZkW8JlUf3OUJbEtYQht4GITs9RfbeQEEIwWPuYnP0nq//++D/ya8eJG3dq0EZ33+NW3biDmjbCnVj96pOITgy/W44Od7gnCqm0+rDRWG1BsbaFxRdSaeHO9H4EwE1WiYiOA2e+jgn/dUJERLvG75ajw5kvIiIiogPi4IsoCwZ5H84pX+tT7jvRN5ZTsHaa0G2iPDlobrzWS1VHFYOUA6fpt8Nr1/brwY6sf99d1sD4nb/vRJTFdpuslnVcXUl/T0d4noaDteN2qVeVER25Sgt90dqkgrfpKRw0C497a9ZGDB0agHcA1a13xd1j/za+1t9IZN9XgfF1eLFTt52/0gen7/R9J6Is8gvWTjwcN1k9RdGB3Aj+Sz8QWN1Erdn0ymoddJpyuTcT1ZEyGuV/6QfOJR3Te76BLqSooOUJk2d43mPOl9Dz6EDuHMRdF/W1ThD3/kWUra5b8rWO/bzEdy6hD4r3IdTOwHsb2z/1Z1BxwfYQbJ/mtLvd5JiIouUUrJ1URqcoPpDbQVPr4cb1n3ctDBurL4hBF7gTNsxBGz3dhWsZGC4CFdFFe3S3DLqutm+X9eoPYnUu18LQD8H2nrdhwoS91pakIO/488WLD+RWV1sftKS+BVV/gOi3UPH7I29pFnddgKRrHUf1/oXKbBMwbX8WR32tswa4x/dB9T6M0bmV2imENNOk/nwGPhOuBfR+p3iP9hRsr3jfiehwcgnWVpctqjNY+7QoArmdR3TNu1XYdqWFO3OA5T/2zWt/FsDE3dqtFxP28htGg25I9ZzmatCitTHYST8U54uTEMgdq9JCX0gDJSH8L9Ytqa6L8lrHHS/h/cvWyOwB7nF9UL4PFfx1A7S1iJmrxP5Jn4nKBaqDERZFY2lGLMtaua8SbE9EQbsZfPnB2so7juUyYotVZXRCDhHIvchJdNBsDGG5q1mOpBmG7c6X9DILbmAgleILcJuZr1iHui4LdVybA7Q1v/0NSIPXJHv4vCjeh0qrDyEEfuF289t5MRbH9B6bpRB8lWB7IlqXQ7B2yjKu+ToxiqBrTYfRvV/dxhl3cN9NOaiROT/RHkR/MTnNBrprz6aYfcp4vgBVILey3p5mviTR12VDqvdv3MH9UB7wpB2ApAhw92fwUo+RUr4PlVYfwrVWgeW7+nxuYL/B9vwVJNG+bT/4ip31mmIkbSXxOjvHlV5OUUanqv5go9rW1hcKV1ro29XV7IjWw42b9taIdBupAdjLL/fgjMu9boVmeOr428LqnKtV5/6CbGlBfmC2Ke58qnp1PLgWho1dzmBllXRd4ij6p3r/Ki3cVdvQAjN40nowxbWO/bwsaDoMIMWatFXf49+H4EL8gtbDzS9/4LPV5zPD9YSDn+0BMJCv2+qWZeJ1UalcoAqsLeAnot1ivNAxYQTEjnnbHlwzVPp4OU0U7vXADI7TLOBed9NvnRB/cDS9ETAXlqc2RqemoXezi+tPR4PfLUeHO9wTUX7q1zAHwZmvBuytv/i9hewNDC2XA6+0nCYKBQ68iA6BM1/HhP86ISKiXeN3y9HhzBcRERHRAXHwRfTVMXyZiOhLySlYO6L+sh5RlCxB19vUO7DUgcf77s8hwsFD52DYMxGdmNyCtecfr3j9/IHLK125PxjRycgaeHyw4Ok9hmcz7JmITkhOwdpzTD9L0C8VG7Nyk9XTExNcrA66zhqQHZ7hCf2tClE+tEBb5E1PE2aiFH2IDc/27TwcPLYPafvPsGci+j7yCdaeT/GJEuYjaaNVjrJOXHxwsTroOmtAdra2qKvtI+g6FNociPtRhS+r+6AKz959OLiqD6q+ExF9T9vddlxaRAzp0nNeePbZ4s/pCM+vIxSvdC9GaD7B7PwKVzrg7Xj/ho+ydIuyeIbLqzPQqfCCizWtgJ614T5DThOFhjyXsm0aYca27OP2nx/aLDa+E5fQB+U1iwkHV7XBD6UeFORjGtDHQN3N2odFVw51W5WI6DDyC9Yuyq8vo1yeYzbbSWvoi8oWXLyfIOhMbdlL0HV28X3Y9JrtMRyciOgE5ROsXSzjBz4xXd5pnGI6LaJUClTgmq8TtRZcvJQcdL1ZQPbq+bgA6fi2RL5490HXmg6j++jfvhujU9s86DqpD8rw7F2Eg2/bB4Y9E9F38+fPH7GVzzfx9DIRs/UC8fb0JJ4Wj7fPYPFsIl6k8nCxV/4iJusH/r7+9b9cPU6OLUxAYPkwhOUGX+FaxqrctFc1zVU9w7KECVPYKerJzwfrJbflkOR2mrataCcEDEu4KfoQf83C9eRrqTqfEMK1hBFTFt+HNPzzmulrENH/397dw6bOLGgAfqN7K2i24VSre1JACn8UK61yC1NQw2lSsc1KqdZUK2i+LmW60xhtFbZKswVaraKVjtnypAjFoSUUgYKsVrcINUi3uPIW/mFs7LExP3bw+0jR/ZLB47HhHg/j8byCXF9bsonxQlnCCAiiAAx7JtoLry2ZwxXuiSi7GPZMRGfoQE87EhEdQeMBpvmQdiuIiA6KI19EREREJ8TOFxEREdEJpROsLd2O6BPzrPW1SyTOJioo1vJmcfaXtCzp/uJu51/7LPE5IyL6nPbrfJUU1Ov1zY9SAor+YG1feaztiD6HYVvsLA3RrnRRNZzYnhYGlYDMxS1z9Gq3wOMMurrT3iX7S1qWdH8Rx3c7xZ299plR7eLW7WHJ6xy2ub4XEZ2hvdf5cq3MxS9xXS7/73G3c/7Mdb7yxtBUUzeEtaLENaR8a0xp3oW8vOtLAaZ69IW5Zqau+vZjaIFrW2mGXSastWWV+de6surcXs4q5Nij9pekTGbv4xPKnJ1FtsU6J6FrfM10U015HTaizMv5tSWL0gnWjtyO8mmE7j3wKIyQWCum7xDabGiAZkQvS7BXFNAQ7YDlD+ZvE6B6hTKsEZvKoAXdye1pPMA0quh+HwIY4nu3CsN8QHSGdPixy/aXtEzakgMd32w6gnbTiNkWK2x7ptzj4iLOKBsRUfYdqPNlRwyVxPRGK1h7c2uxiMV4imXkds7mX3Fdv2anLGe0u00cT+PBxEMDbmhz0+0oNdGPETUklTQKaN5D7aIJGGZgB09VgF7tAvfKDOZLB1diYePB7kQ0ASNOxwuRxy7bX9IymX2Pb96roTnR8btQGKct5c4LTANo+ueElTt4YYYkEX0y6QVrx92OCJCENjdwo43QrdidkyZgPMTo1iQd+Sp38GL1ArbmIpWvqhh1m5jeOR2zOd4m/gqq0DQVk116jiHHLttf0jLpoe95fPNeDZVBCzOhkxu3LfNezXpv2dEionOw/5yvlbn4FZDN6H/V4pcv3zFiO875yh1DC5t3ZM15Ciyb6abqmRt2KgFzvkzD1MT5R775TKah2XOXwuZ2Bf1dcuzS/SUtk0l+fDNdDdlHdFsMLWrO1ynm+BF9Yjm/tmRResHaodvZ2PnKnfDOlykNbRZDonHiIOytNnvaKUw4N7TAkGqr02BPKg8LtJYce+j+9imTSXR8AYHcocfnbYuhRXWsGLpNFCnn15YsYrB2ljD8dHfDNi7uFc+trGHbmj/ELMA8YOg2USReWzKHK9zT59a4gTbqoiLM3WoixtOO9PkxdJuIPimOfGUJv50QEdGh8dqSORz5IiIiIjohdr4oW+wlIHbKNyQiIvpE0gnWDth2HLj8PVEcQ7Q/xernn6Wdm5Bvb9i1/+8XuPD1kodtb3msTrR/zTV3oyHaF2H1Rbcl1v621naLCjh3yuO+j7J2hp3n4PMS6/CGbe++hHqDcjLnvZp9DmTnevt9jXuuQ7fbaqf/fIafm2RtkZ3riM9S6OdTst3Wl0jrteGfXwbK587hsh1Na/kId0kJWbbjh/n689X8CP09p/g4cEKGqe2yXEJqstlO73IZEVmK1haBxyFdj0taV9jSIL79BOY47npOZ6aubl7vXcpiZuqqauqzsHXYnFxKLcH7GNROZ39C3Z612IQ27JxhGbQ/37me6abqvkZ+rqXLwMhaEbaduyacszsxC1T+GUzWFtm5dmuOPmfBLdrebqabqqoKaxCKn6no4zv4unW8tmTOAW87rvG+WOEy1nL1RRQLSyyc0a7lEstCEUVPde8Yh+VB0hkSvwn6vwVbI0a9Xs39puh8g7e+BTfRhxDB4/km7P1G7/02X0NvGDwKEl7mH70Sf9+jnb5v1/4RiuOYu7E+bijA8Du60DGLkxLgqaqH+74WL13As90bYiyubyl/Q0sdYTrbbRe+StB52UQfVRQVI7fCMjovkhX05z3cdqswHm72aUB4y761oI6mmAGY9+7R14zN+1Lu4E4bYfBjn89FA7/rsPM3geH3LqD/HhxzdZBzHV+58whd7eNpiOSfwV32J5xrqV0+n1taaLn5tIKI42s8zNAaVOKP5NKnlFKwtpX7eLkaW2XLEurXX8EYxzyzApRN00BwxnMf3emdFa8z04HBD8xh5T9a22gwnPgd9x81WSA3EB7kHVUmI7TTNFDt3qI3j9HOWyEc3AzOjdxy5HDwuduJjHFLZDbFSFVQibVvQbmDRx1WPFRU2+c/MBhpuDngNVkM+Zabo3fbRTVuJmcC8x8DjLQbNOx2qYr3bHo7ismUO4/QJ020ez3cT3Q8hn3OAs51v5nsy0G87cq4qgKTt3msz2DStmwOb3OupXb5fAb49ruOyZPvhmrk8TFMPg9SCta25oNNoaBer0PBVJgr5mzOYG0SCaMq5StUY31rjQ7kDgzyjlEWq52oQIk1elDGt5b1D/xOF5KjhYNX7OpfYJoz6Gr8JiVh7cfErDWw1mvzfOMX3r/KAK3Z4To/QSHf4a+9RbdqxPwM7GKTS1qZ3gkd8mMpo3Onod/tonrn/6zIz7Vm7PjlYI/toj6DydqS7FzLP5+RG+MO91tfXuL8fyw0TJ7OQjrB2uslPtYlKIr1l5JyjUsssFiGbk2UTGgg98kaACXGcJDzD/wjbuNPIj5WOLg9qriTihLvNo60WS/W6GBfvFgJI4UHfO+CQr4lr8aPwQjoN4VOvNVR2f/OkAp9Zo3mqv2m+34EjXIFjYYl0riBhqARxOOc63isQPXqVTn5ZzBS8LmOK/jzGa1xU0X3+49NPTGPj2Hy5+0AnS971OtSfttw/b7AUuyAYYX1evPfq3UBxaJnA875oh14R7QA2CNkcW8XJtvXsN1EP+xlw+/ojqq48vzDGdBOQbnzYl0cJm8xO1EJRr4AAA08mNbcEs9FyE4MuN31q3b5G1pqH819eyN7zbGJuYudOl7A5pb45va1c/v4YANV5Q4eddW9KJe/taCKF/l5D/d9Fa1v53kVHrYr6MIehUz6GYzLd653kuTz2fgd+mSAgft79PEN2/bonBkw0ms/KcopYZ9cWsHaq8WvTdnPn6Y/d5vB2nkTEL7sefLLH9rsfbrIelrK3k58iigikDvsqSlZmbgvVdeFtviPYfuJuOB2+rc7XTC4aQYda1h7AgLAvaniW+WRT6UZmiQUXfYkY1RbQncoCfmOCDj31BH3aUdZO71P4G094eg5N7t+JmRtDHuqL/yYtsLrYz5uGLqd/30PfPIw+HORrC2ycy15j6SfT8l2M1140nFTz6ap8uOTPu1o/5u20xORub62ZBPjhbKEERCf3BDtiyfcBH1bJUqEnynyG6Jtz9mMPfLKa0vmcIV7Ijqi7cU7d14UNdcaeDCwmQhfq23P80vtfGbpvc1SW47HejqyiYk+O8LDH3RKHPnKEn47ISKiQ+O1JXM48kVERER0Qux8EREREZ1QesHa63eMn4NWvyfKghyFS8sCnWOv6s0AaQZIb17LAGmiCJkI1l4tzF+By1XkDB8HTk2+wqUD6vQEAIcFTyeo262TAdLW7hgg7dZ2jABpCsZrS+akE6y9XHoXXC2U8AUfWIqjX1xklU4ih+HSwyf0xVy78je0MICV2SwLnj4MBkgzQBqIESA976HGkTI6U+kEaxeLKCyXWIrbspNFJ5fTcOmKArX/tLn9NfyO7ij4pfGDp+NjgDQDpO2dMkCaciudYO3CV/x2ucLUmfO1LOLSn03EYG06pjyHS5c7eNQnmzqflMDj2yV4OhoDpIMwQFoSIF3u4IW5hnSm0gnWBlD4ei10zApYrYsosKNFp5LzcGnnQmuaJsyHK0x9GZS75x9GYYC0hQHSfgyQpjxKMVhb2H48xery0lvGOV90dPkNlxZ2hl6tiYkwJ+rwHS8BA6QZIC2QBkjbT1Imud1KlHnpBGuvzMUvSai2aTJYm04qX+HS3u3kxx0WLr1LWxgg7f4wQDp+gLSzbZLHT8mL15bMYbxQljACgnKLAdLkN0evtv1ADCXAa0vmcIV7oqPLR+jvfhgg/fnackTDNi4CnkQmOhcc+coSfjshIqJD47UlczjyRURERHRC7HwRERERndARg7UDXiOWMVibtszRq9krXQ/bCR8xH6Idulq2rOwzEkOLZYHNWT/mTVvPadoSEVGYP+61dUlBvS78vpzieVlw1/tav48x/viC67riWwNsiel4gaJSx3UJVkdsPEWhrgSsA0Z5NH873UpXn5cVz9KxnxSMX5auYfsCTzemnec4R692CzzOoN9WMA147b3CSddEdF6OGKy9xvKjCOU6YPHV5RLLwmZF/PXyA2sssVyK1XGR1Tyxst8q6I6s6JdKd4RRt+KOhAzb3ie7PCMk9mKMVlkTfcQrG7Zr6A2Fck+mnfepsvD9+RaBlJVF8ByjZ4eStiS1Rzv32Ol2iDnK6LyEr2zO8GUiOkfHC9ZeL/GBItbTzS3Jsd2TWq9XQNEaIVtOnzH++CKPJqKzV+68WHEoqo6ZacLQrIgU5yLdeNhk3JkzHZOmcyttiHZlgNbMKTegubXKygBghO498GjXa1S7+D4ErE7CE27MzXZw9zdH71asU8zck5XJDdsXaMIQIn/c9eYlbUkqYTt9HbbtDqtMcIh5NIYvE9H5OWKwNoD1AquSE66toLh4dUeyCkXgffyMRfEa9aDRMQZr51P1CmU7/85j2N5c8CtdjNy/P6Gv3QWPnMjKbJoQutx4sDt78x8YjITw5Ysm+pjgbQ4AZXxrAd1K0GgDrjFzAAANE0lEQVSRrMwZ3QuahzXEU1+FHpRgLW1LUvJ2hm/WwYspdIJNE2acCKKIEPN4u2b4MhGdj+MGaxfEv5VQKq2xWgGFQhHrxRSryzquvxYArLFeHaQl9CnZE64rXYz6Tfv24wjdijC61ZxYYcGBI1hHYI/AmQEBzE4o9SNut24RximzfvwruXuDreO2JSlZO0MlHfmShJjHxfBlIjonxwvWLpTwBR9YunO2llguCygWAZRKKMH+byC488Y5Xzli3VoyDQ2qPrM6V6qOWUjUzLAtzN2qKFD7T5tbgrWYZdLmXKE6cm5BSl7m3CqdvG11QGRl2xq40fq4D+qYxGxLUju1M+nIF4DQEPMYGL5MROdm/85X2KgXCvj62xd8jJ05X1NAcW4jlqBcC2VTBE/Mp1yZv01QvSoD8zd47zo2cKON0K1Yoy33ir4Z+Sp38KhP7NtyFUzvjHhlUg08zHRMmkEjPL54l8oArUenAyIri9jjg4FqtxIw4T5OW5row741uVPZ7u3cj9XJvptWhIcGnGUmKuiOgH7Te0vWedpxMwfOX+UVqgBG09nRW09EdCiMF8oSRkAQ7Yjhy0SReG3JHK5wT0SfE8OXieiT2m+RVSKitDQeYJoPabeCiGhnHPkiIiIiOiF2vug82E+9MRuQiIiyLr1gbazxbj/tOF1u1Uy5dIhg7aw6kxBsz1pfjPUhIkpiv85XSbFXr7d/lJIbGwRYwdrPiyKunXJ3OYk13sevwG/XuOT6EhRg52Btew2qsBUJ0mevZRa4QKysLF3DtjiaOES70kXVcGKeWhhUvMtCnFeHmYjoONIJ1kYBX68jooO4yGquRAVrhwdBy0aNfOtZbS3GmTywOpch2MMn9FUdTgrS/McAI/TxZB8jQ7CJiOJJJVibyE8erC0LgpaNGjXwIARSa6qORzEEO2FgdV5DsOdvEzt70151ftCC7jnpDMEmIoojtWDtSAzWzqfAYO2EQdAuu1MkRuFEBFYzBDu4k6cqcEfEzJcOrgJ3zRBsIiKZVIK1ibyigrUTBkE7tfduMb0LyAWMEZ7NEGyh6KqKUbeJ6Z3TMfN3kp1dMwSbiEgmnWDtWNVyzld+xA/W3i2wGsC8h9vp3fZE/MSB1TkOwW7cQIMKpWL/PvyOLjZzwACGYBMRxZFSsLazzMQYizWwnFrlXHEi38KDteOEWQcFSM/Ru3VG0/yjP7LAarn8hmA38DBrYWAHnF80AUPo0DEEm4goHgZrZwnDT+msMQSbKBW8tmQOV7gnouNjCDYRkYvB2kR0fAzBJiJyceSLiIiI6ITY+SIiIiI6ofSCtdfvGIdtQ+RxjODpOXq1TxJ1M2yHRBnJRAV5H+fYPbFLQrzSvFcLWWJiiLbQvnmv5n1ateatzz1+8Zzs9LmQ1Gk1YLM+WsDTr2HHR0S0i/SCtV9XuLT/rhQXeOWCXhQqu8HTx+ANs56jdz+BPrOPv38fs9N0+nO2Fbu0a9D5vIfbQQszd/kK8Rg0GJ4oJwDaZl8zfYJmrA6YrM45erdT3Nl1GtUuboWTLTs+hooT0S5SDNZW4LyyWCxg7V/6nous5lJ4YLWEbzV3/2Zx6rTihITRoKyEWQMARpjOYK9/tr26fqJzJu7Vf+xJ6pz3cN/XYOzU2/JUYGVYJlzDrNx5hK5uQr6TKaPzslkctqKomzXJIo6PoeJEtItMBGuvVuvtXEjKnfDAaulWaFeE4OmZjklzc5GLU+e8V0Nl0MLMjcPJTpg1UEbn0V649RZ49K0cn+yciU32H3vCOmdTjFQFlehXBnrr3WLQetwjjqiMqyow2S9I02M2HUG7aTi/RBwfQ8WJKL7Ug7XX72NMV0G5kAzWzhdJYLV0syf0tbvNRbvcwZ1mjxRF1jlCt3JhdT480TsZCrOe91CrDNDSNWA0xcweHbMGWBKeMwDhx75PnUn10e2OTri/aPNeDc2JNzopDoaKE1EcqQZrr9/HGH98wXXgrUnKH0lg9VHqVKG7nRqvrIRZD793UTVe0Ok82POaKuiONNy4nYKk5yz82BPVWVGgBtYVhwbDNFDt3u5xW84K+a4e4APkjgaKndKYx8dQcSKKI7Vg7ciOF+d85YwksFqmokAVJ6HPe7jvO+HPMer89mCPVATfKko7zLqiqOjbE5mseU0AtBv71mPCc+YIPPaEdZa/oaX20Uz8+J+TG5nslt2wXdkK+U4isOMFxDo+hooTUWx/+ctfzL18vJo/fy3MVVDZamH++vnT/Gn/vH64G5mvwt+tn1fzY2vbX+YisOIz9ae/2/zkkmFqgAnnRzOC/w6YUHVz5m6mCWWqqc/i1DkzdVV4rV2HVezfn7/O4zI0px1OO8X269bvYecm1jmTHbuszii+tgp1znTV2xZopuHuy/lv53XO79v1uW3xvOe+z8OObZSeM6FtsuMzNJiq9ENi1x37XBIdUO6vLdnDYO0sYfgp0ZliqDiliNeWzOEK90R0RoZo++fd7bEMx2GaxFBxIvLiyFeW8NsJEREdGq8tmcORLyIiIqITYueLiIiI6IRSCtZe430sbsclJUgmi8HavoBmJiwfyeY8b51iz7pqvvfy1GVERDtIKVi7gK/X4nZFLBbLPQ+FzlcGg7WH39GtJo/1oWBboeK1W+BxZq1v5n0l2pUuqoYTKyWuEXbqMgZrE9FuUgrW9m25XqHgrL7q/pGLrOZRZoK1o3b5NoGqbCf9Dds19IZCezwr3HufxPM0ZWt1fOGi7xntC/o9qE7rdb1eLTQcPPC8zHuoeeoX44yOKShUvIzOS8hK8cMn9NXNoqrzHwOMYAdrn7oMDNYmot2kGKy9xNT5+8cX/MYQx9zLTrB2uLndmal0Rxh1KwG3oEbo3gOP9v6Mahffh4DVuXjCjbv6vQE0xVEVMcg77gifrE4A6KM7vXPPCwY/3I5g6HmxV3J3OhWY/8CgaiDyrThKqLhkd1aWEMr2sVQGLehaOmUWBmsTUXwpBmuXoDi3HS9XGPvnijFYO2eyFKy96WT555k5mY8zXYWqz+zOi7fTpt1t6mo8mFbHZf4Dg1EfTbfOJvqY4G0ecAxxyeq0WgLD7VRdoepmE8rOSxmdO82NNBp+H6AV5z05Rqh4BFWBO1pmvnRwlWLZ5jQwWJuIoqUarO0qlVBaizmQlE/ZC9a2fgKy+pJQdcw8HZQDXIwT1yk5L40baP0nDDHE06SFb3HqO0KouHSzqypG3Samd06nzQrWTqPMexoYrE1E0VIL1vZYLrEsfEFJrIBzvnImm8HaB1O+QnXk3IL0qShQ+0/2/ufo1Zroe16wGc0atoUyWZ1SUefFKn9qPwF3MYPBjxAqLt/kBhqc9xnWAxBOsPapy5w/MVibiOLKRLB20PYM1s6hrARrR5vpamCQsjcUe2sjUw05BjF4WjOCwqatMlXXPWXhdXrrCP5dEp49003V8/rTkIaK+4OuPcfua+uJyxisTZmW+2tL9jBeKEsYAUEArAnoT7g51O3OBOa9Gm7xyCzCg2GwNqWI15bM4Qr3RORyn+ac3rGTcCgM1iYiH458ZQm/nRAR0aHx2pI5HPkiIiIiOiF2voiIiIhO6I97bb2c4nnqy2QsXOJajBQSX+Mvwxrv4zEW6xKUugL/MmGUrnmvhkp3BGgGswuJiIgOZL/OV0lBvS78vpzieekN1h5/fMF1XQnMd1y/v2JRLKHEtbwyqdx5gdmxwo178wYXjSQiIjqA9IK11+94XRShKCHjXVxkNSPKuKqGFDEsmIiIaGf7jXyJ7GDtui9Y+8v0Gc/uXcdrXH8tAFjj/XWBolJHCUssw+qkjLCzEjnyRUREtLdUgrWt240Kwga9ADBYO0MaDyZungKy+hgWTEREtLPDjHzZwdrXkcHaUyxXa+BjDayneH4Wqnh+RkmpyztklIph+wJPNybMh7RbQkRE9PmlEKxdwNdrZzTMGhEroQSl7ut4cc5XhgiBwiKGBRMREe1s/5GvsFEvFPD1ty8Yj5+xsP9SUuq8jXhOyleoAuhzQhgREVFs+3e+SgrqYbcKC19xXf8aVQGUoApibUvHN8fbJKysAkUF1MBhMSIiIgrCFe4plBWyXEG3erc9qZ5hwURERIkwWDtLGH5KRESHxmtL5nDki4iIiOiE2PkiIiIiOqGUgrWdQG1hu5KCOhf5Ai4AmGk3goiIzgqvLZmSYrB2AZfXXMF+i/N/jv/7X+Dv/5RqU4iI6JP761+t/2XHK1MOl+3oBGv/pri/S4O1I6t7x3j8gS956qD94Q/A3/5m/XftH8D/txAR0X4u0m4ABUgpWBsA1li4C7ByFAwA8E//DPzHo/0LO15ERLQv4Vry51p6zSCPAy01Yc3hWl0KEUHrd4zHCxTdvMYlps8LFIM6WcspnqeAUleQ+1lf//ovwH//p/0Lb9ITEdG+LoB//DPwX/+TdkPIlkKwNrB1H7JUQgm+ift59W//bv0QERHRWfp/jwTvaecP2VUAAAAASUVORK5CYII=;imageBorder=default;strokeWidth=1;" vertex="1" parent="1">
          <mxGeometry width="607" height="466" as="geometry" />
        </mxCell>
        <mxCell id="CYTgUcAEzpgQwukntkNr-6" style="edgeStyle=orthogonalEdgeStyle;rounded=0;orthogonalLoop=1;jettySize=auto;html=1;exitX=1;exitY=0.25;exitDx=0;exitDy=0;entryX=0;entryY=0.5;entryDx=0;entryDy=0;" edge="1" parent="1" source="CYTgUcAEzpgQwukntkNr-3" target="CYTgUcAEzpgQwukntkNr-5">
          <mxGeometry relative="1" as="geometry" />
        </mxCell>
        <mxCell id="CYTgUcAEzpgQwukntkNr-3" value="" style="shape=image;verticalLabelPosition=bottom;labelBackgroundColor=default;verticalAlign=top;aspect=fixed;imageAspect=0;image=data:image/png,iVBORw0KGgoAAAANSUhEUgAAAZ4AAAHfCAYAAABgeL7GAAAgAElEQVR4nOydLXTizv+2b57zU6DZc/6qCKjIYmtAoGFNFbYuSDDrkHVrggRXi6ppYhdRxGJpRIOg5isaDTaPyNskJCG8BWjv65yes8swk0nS5pN5uyb333//WXD4v//7P2xnjY/ZDKtSA1JR+PRjhtlybf+nWEJp9Qn8vMNNPpTd1DHRAakhQchu5//8gbu7G4SzEEII+Tr871gF5W/u0Lhx/2dCnxRQjIogxSKKMAMfMegQQsj34f8dv8g1PmY6VqVSoEXjpX4sYRaLXtrWoLP+wGwyw8f6+DUlhBCSPTu0eOwuNrc3DfoEExSdLrNgWlFq4M6LOib0ie63cYoSGl4fnYnlcg1gidlk6X5hoxuOEELI1yG3+xgPIYQQsj8n6GojhBBC4mHgIYQQkikMPIQQQjLlewaexQD1XA4d7dwVIYSQ78eOgWeNj9kEk8kEuhlO+sBsYqdNAtOf/Tzej5c5nHakadNaB7lczv7ZJbo4ASmXyyFXH2CRPiMGdTvfPsFM69h564P0RySEkGtlh1lta3zM3oCfP4G3sLnAhD4xUXSnQa8/MHsDft7dIO/li7AYhDF1TMyiMN16HxYY1B+Ap1d0yxo6uUdIxiu65TT5/uD2dYgm7GDwKBl43ZrRPd4T8FCB3rcwbO5S3QHs6naxtYqEEPIF2KHFk8fNXUzwMM3AolDki/iBT5g7tl7W6xXyhULow30WkE6hGwAW75ijilvvie63THK5DoKNkzK6TtABgIpUw1Q3At9wWybBllQZ3dc0gY0QQghwLGVOoYC8bsKEE3zMJZZroOR9YY3lbAJ7iWgepUAAExaY5ku4uztUmlNG90lBvZJDrqbAsIZCS6KM7quFLjR0cs+JpRj6FPK933TROjm0oMKydmnOpMDQMa3es7VDCPk2HCfw5G/wszTDbDKx/18soZRfuYm4uWvA17jpmMx05D07QRFSoyGkfQT1Ofkb3PkSuO0sBqhXxmgrMqY9HQYWeKnv1gW2GNTRmiswhu4nGp5HNSjGMYPOAoN6Bb2qCmunvjlCCLluLkISGkjTlzDXN9vHg2LQ/vRQVS10m8Av1FHJVQDIUHcIOpVxG8bGmIvYZXcMnNaX1kGuAwYfQsi34eyS0ACmCTP/IxiwdhzjqUg1jJ7t8Zdy9wlKDYB8jzSP9fig08S9PMLjKWadVSTU5u87zKAjhJDr5uyS0EBavnTw1gjl7hOUegW5nPOBrECZt5DrqLCGQCfXwshJGuVGQE1xAo2GP70pgCkquZ6bGaplTzhoDlU85yrwk9wuMqfLbOp83sphJOQjhBAShJLQc7MYoF7R0WegIoR8E76nueCSKHfRl0docQEpIeSbwBYPIYSQTGGLhxBCSKYw8BBCCMmUM0tCw9/R41b4XDEaOht6nlPmyxit4+iHbB1RunGqBQb1Oo4+pLVXXQghWbPjdGpb9ll6m2EVSDOhz1YoNRqCJPQDRW9qdFiTEyr54w3LQhHFY5ipSfbUJFQAvAOoHneV7XXXhRASyfkloesPvC0LkOKM1HtJQjNG3E5BmJ1mS0VbGMGetRbepiEgHRW2VEjOF24Jhf4fU5ezEKpL3JYRi0EduZzfAoq7LnZ54rnbLZvUW1EsBqjnTtDSIoTsxHHGeAoF5E3T7yZzJKE+tiQ0shvubYmCJEWbDK6CBQYPY7QNC5Zl/7hbKTSHFixLhQwZqpMmqnHsdOfHUDBv2Q/Vbfn2qUtytmCA2Gk/ouYQ1msXZUcB5FdTQ6ci1MVQMG9tPvQ9W4TlG77jrgvKv9CujfDsBaIXjKuqf8zYuhBCLomzSkILH29YFiQ0kqLOrpLQzCnjVxuoVHIYK2n27xHQOsi1RsIH8nnqUu7i1eoeeOwQ2jNGch+WW4VyF325h2cDsH1EU/QqOfQ8c4SYN+66lNHty8g9axg2m9D+jNH+/Zq+Tqc4T0LIzhxtVlv+5g6NRsP+kfJYrQvIx0pCAWAN83NtB6KJO7HAhB41ceHCKXdfYVkWnvCww66nGjqtORSvdaIeHHb2rsshLZ69qUFRZGCqI7TrUfJ1ad5DHj1Dg4bneRu/OIxDyNVxRkmo3RLyglVDQtHZIiEw3HMNYzwO5e4rLEOJkH7O8b7lKa51fIfc9nz+59H5kuoS+WW8WkL3lmU5XVYHUJFQGz36XWuLAR5HNUgV4Tu/hrBUoJUwe2/z/Gxh63PnGejvWEcnwHK2GyHnZYfA4055tmWgpi5OfxanTNvbYt95sxDsVow7lXq2Kh24tfWloaEjthQqY7SfxAdiE78VoFcJTxJo4l6eep8/SkqoxROfT/w8mG9bXTKk3MWrWvXrXxmjHbUFedMNPu4kgW3XBWj+VjAfAfe7juGUb1EFNnaWJYRkC5U55OpYDOp4wNNu42l2TgzqFYzbO47FEUKOCs0F5Gqwp13nUNH7uwcOrYNcjkGHkEuALR5CCCGZwhYPIYSQTGHgIYQQkilnloSmEYheM7bSxZ5ldizh56GCTbFOadcckd0IXeOwpiewburMaYScg//++89yf5JZWct//6zlamUt//213j7FtE/r7e+b5X20Wlr//i2tVSBfUplbDn31qJYM2VKPUpZhKbWapRj7VkW2IB+nJsRHlWHFXtbANVctGcJ3DcWqeb8bWafZ9a7t/ctEyH6cXxK6jStZQBoQW6ZtRWyRaKYpMyzY3HrI9zlqgVWc7rHqGGhCfQLmguD6oEBVNqwHbstui8w0tkz7ewNnBluU6DTyuhwqEN0b+ziPkhHrhgtcc+0Zo5qC3853Fy9jTOH457JOA9AcGmiPK/G/sxSrkhNwZknotrTrQOvk0ILqr/pPZadMlmimKTNKsBmHNxW5N8W0V4nodpmi9wg8OcdTqz380QD7wfqMe8tX2KAlBBfxHFJrf5LKBIARenrfuy4Yv3hBMPa6bBOIxl+YA3RBGjqxU7T9wFoZt/HkpC/e50D1FmXnXCrjNhTnomWd5lw4dF8tGNLjEbuDCdlC+q42l6iuNstaLf9Zf//+tX/elvFdaJ9v1l+xWy5t2sWiWjK2dX1FdLVFdHn53TVJZRqWUoMFwEJNscJfMZSanQZYiOjeM5RaZNdKbFeRoVg1rzz3x6nbxjmI5xk+Z+H/SWUm5dt2rYX6qPIB3ZFpcM4hVa+lKnv3yr7+qqXU/C4u99pnnRZZz62/y4QczhkloTumXTRVHH/PsaQy4wSbviTU/hniKDsD1BQYAZfb9hbW6cpMuC77CET3bfGUu3i1XT/b3W/Ne8jTMV4WQPm2immvBb3vblmxwPvcKTLjtOBlqCPXAtRj3FtCtnBGSWjKtIsf47GllY+7doInSjRTlJlCsHkUyreoTt1utxAVCbXRs3P8BQb1sNAzRmaaVGYi267LHgLRgwSpTQwte4wkMfhozxjVnEDYvIcMQZaq/UEPzhhM1mnuRx3bBhH5okKxKjkFu81q++t3p/39K3SLBdM2Z7wJeQKJSWnuYZfWv7+XPvPNnjkE9yc0gwnij9g9psoRXU3bygzNanPKSDtRbeeuNjtTsGtMOAexa09Wg91kYlpNUYJdaLFlJnW1JV0XsdxjzSBMT/D6heoY7hINnHuorhmnbZ/V5pwLZ0KSI0JlDjkiGjq5Z9wfq4tvD/YXiJJoKFYlx4fmAvIlOEggSqKhWJWcCLZ4CCGEZApbPIQQQjKFgScLnJlB1KIRQsjZJaEOpu6nzT5wsTOnL4awfiYNpxCWfhG0jnNN7GsUP3V41+t+TCHrtvuXULfU57cDe5V5ht/BU5w7OZj/pf/qGh+zN+DnHUpvM6wCaSb02QqlRsNeg7P+wOztA8W7G9hrSPMoxXje1h8zzD5/4K4hIWq96Zeg3MWr1T13JdB9tdB1Zp6REDUJFQDvAKrHWg2s/UGvqsJ6PcYcvwPv3ynOb+cyz/Q7eIpzJwdxZknoGuZnAZIXoKK+cukLSJOklklvePvJMO3PWhhhhFbEm3Sy7PPY5xeqo9idqHVQ73TsetQHGHSiZKDpxKNnfUsN1CW8QDbhHJAkZI25ZlvFqtFs+53InL3vX9L13F8qu72ulKBmzlFcbaul9U90rH2+WX+9RZ/hhafCYlBn+4Tlm5/+L7xS9OIXkIYX2EX5xKK2RQjlMxSrJiw0VOWkRXvx2yyocnDB4ubC0F23aEiuZwBx8aYqO4sV7fw1xRAWrxqWUotbJLrntg9R/re4eqYmfC/D9Yw+h6AvL26BsFjvFH67xM+SPs+aNPcvqq7bfieS/H3b/v6SqqtYNfrpMuc4kwvyN/hZWkF3x2nMAkpeEyaPm7uG4HErYDnTfZP1eolV0U2XUFi+BVs3+RvcNWJaWheDDNXTIFcg1abQwxK1bfnKt6h67jUNz6MalN/7ddHIgi6mObS2G5rhr4OJbp3F1RNOH7qTr9LDNJDt3llIKqMvrgNZvGA8Fd7Ocy2MPL1OGb/aQK+y45vrQeqbGLRnjOR+tLss4RxcX56h1FBTjE0XXdI1u3r2vH9JvxOJvy/A/n9/cH5v6KfLmvNLQvMllLwPiigW11itNrNdF4Iba29OIR6NZz+5qIZOaw5l520RkCgJdevyhIf03UYHbW+wJ3uJTg+4ZlfCXvcPSL6eO13rY/z9kVNyXknoxliQCdPMo1AIZLjwMZ4Q2h/0pocGjTTiUfGN7zIIiECTSCkJLXdfYRkKavP3lLboI7d4kiSoe4tOg2xesxixair2/J1wWmDHHhba7f4lXM9drvWuf3+UoJ6FHQKPOy16huUaMPUJJhO3y0ycMj3DqtTAndc3ZvpdcJMJZqsSGpIbkvK4+fkDn15eHZAuvVstCqEboAWoXovBHRAVBn5TvoU3hyqq3oZt4bfGJn4rdndG+jfK/euSUEvcy1OvHo+SkvLtvYmhoWDeimqdBAeRc5Ux2k8HBpB9KXfxpMyde1uB3hdbJ0nnkETSNQve12Datvu3z++EQ0VCDcD8KG8ySfcv6RySrue2ax3395eC8i2qAKap++bIMaAy52DOL8Yk5DA0dOwndqrxwMvi0L8/SlDPAc0FhHxj7EklLcwV4wqDzoFQgno22OIhhBCSKWzxEEIIyRQGniygJDQ7vvq1/urnR74F55WEinJQSkJ3IGNJaGCNzJn1IuLiy12evot9NUL+dUt/uH3uDyHfiPTKnJW1/PfPWq4ilDnWp/UmKnMcFc4qkC+FR+HzzfobLJhEcogeZT9ljmckCSheTk9Q+SPqWHZRowSVK6oMR92TJl/NUgzDUmph9VBirS9EX7Od9NeCkONxZkmoyBofyxVKpdCy04tfQPrFJaHaM0Y1Ba69Z/EyxhQjPJ/8dd6+do9SeLaVo0NZvGMesDskXesyuq/+dNuKVNtYtxF1re18++tU3oV7m661dKLfpQRpZ3NooD2uxLceKdEkJ+A4YzyFAvKm6fvXzCWWgUCxxnIW1Q0nYC6xLJSucPEoAIzQ0/ueAqXae3D+UG0NfLwWRchnKMD4xQsSWieHFlR/Fb7z9G0O3fJkqKE0myl6j8CTk6ZWD1tdv3ifA9VblJ06VcZtKGlWiR6ksNHQiZzmWkb3yVlI+AA8BdZubLvWPoY+hXzv54y71ocRvLfzx7TnfuzfpQUGD2O0Dd/osHFNXy0Y0mN2e+SQb8/5JaEA7NaOiWIxQrJDSejutTmyJLQmwWt9WK9d3KapxL4Km8UAdWcx48baisUA9coYbUUGpjoMpxWw21BPHa2534I79FrHkyBWTZvvKL9L6aSd5e4rLBVohVs3lGiSE3B+SShgt3YgykKvna8jCS3fVjHttaD33UCwwPs8RYH7tnjKXbzaT8DNrsc/PVTVV3S7QxjKHK1cBb2pjPuUMWMxqKMybsPYCIDZXuvdOPx3KY20czGoO7oZBhlyes4rCXW/vzRRLMVsBnfxYzwhvpoktHkPWXz4aX/Qg9hiiOEgaWcTQ8seexCDT0WqYeQMLpW7T1BqELZeSCY+6KS51mfiKL9LPnHSTq2TQ0XvR1vJKdEkp2C3WW3ihm5/rb/eTLZg2uaMNyFPeNba55v115sBF3XYK9kIzvsJb1gVtznZtk2/QnlDU6oCm40JaZsbv6WpyxYCm6xlO1trc1abeE0U+/+yam2/1uGN2dJc69DxUp9/mg3d4vId+3cpnC84E3D7rLbwRmuEHA6VOQdDSSg5Fpf4u0SJJjk+NBcQsjMh9X8uair2MfOdCUo0yYlgi4cQQkimsMVDCCEkUxh4soBix+z46tea50e+AOeVhAIbotDZ1cybPicZS0L3EmWeCEpCL4BDfpcuia9+ny6XHQLPGh+zN+DnnWAlcDGhz1YouQtI737g8020TOdRCtgLin4+HZDczxsSCsslwjHt6nHWtJx3h8f0SpkgCwzqD8CTYa+byRitIz7wFxg8zqEYznmMHjcdYpHXeoHBg46+oBF6SLUu5bznHslV/y6lKfoSzs/+vePapdNxZkloAYW8iaXbyjFNmPkCCuJXLn4B6ReXhB4oytwfSkKzkIQmsle+7b/XMQfb8/y2p2mhcjRs/zuiPPW0nFkSanvcSquZ43gronEXYzC4aL6uJHRvKAm9EkloHPvmSzqHJPb/W9nneNv/jihPPSVnloTa4z86JDQaDUjQNzeCoyR099ocWRK6F5SEXpUkdJN984XqstM5pCxz43qe4njOoShPPQnnlYSuTXyui5CcMZ+idIcSllhe/SDP15GE7g0loUciG0noMfNtcoy/h/Mcj/LU03ABktAV1mv/36t1HoVCIMOFj/GE+GqS0H2hJPRwMpKEniofgKOfw+7H8/9OtE4Lo40M8X9HlKeekHNLQlfLf4EyN3a+piT0zJLQfUWZx4GS0Li040hC09dFzLfLtU77u3Ks8wseT/w7qSnKxn1I+juiPPV0UJlzMJcodiTXyVf4Xcr6HM51zShPPQSaCwjZma8gCc26Lpd07gdCeerBsMVDCCEkU9jiIYQQkikMPIQQQjLlf7t9fY2P2QzLNVCUGpDE+dLrD8xmS2fxZx4lT6/j5/EoSr6vLTYfIYSQr8gOgUeQhL7NsAqk+ZLQImAHk7cPFD39TVxA2ZaPEELIV+O8ktA0+a5tASkhhJBEzisJ3ZqPEELIV2PHMZ4Y8jf4WZphNpnY/y+WUMq7nXG2JPTG/a6pYzLTkW9IKCbm88u+a9yAEELI1+A4gQeOJNSPLtAnBRRjJaHm7vkIIYR8CS5AErolH8d4CCHkS7HjrDZhWrQ+wQRFSA0JxVBaUWrgzoseJvSJ7rdxxKnUifkIIYR8RajMIYQQkik0FxBCCMkUBh5CCCGZwsBDCCEkUxh4yPlwtg++tu1YSAp4b0kCOwaeNT4cA4FuhpM+MJtE2AlcTN1Jm2Ay+8A6bb6LZ4FB3d3UqoP9/840dA7KfynHOALOQyuXyyFXHyD1rvZivlwdg9QZYwvkvT02+95bAFonZvO4A++7W2798F8YkpIdAo8gCU2QfTYaDTTufuDzzQ8u648ZJssC7rx0VwJqQp8tUZCEfDNh6vVVUEb31YJlqZDPXZVro9zFq2VhGNizeIHBg46+ZcGyLKjVHh5SPRA0dCo9VFU7n2W0Ma4c+iDmvd2bo95bOzi0oNr31rKgouUEigPv+2KAx7kCw7K4m2iGZCAJXcP8LECKMk6bJsx8CSV3hwTzE2uYMMXI8wUWkKZ7U2thlL7EwDbCXpFaJ/DGtxjUvTd1uw4tjDBCK3LL4ZgyAWidOgZa1Juq/ZY9GNS9fOneGpNaEmV0X4dwn1cVqYapbgTPPup6as8Y1RT8djIuXsaYYoRnsfDFAPWjtIS21MU7Fu/tce5txw46QhRrDlVUxy9YpLnv5OI4vSR0beITBaz1idfVNnOiyHq9Agp55AGY+gSzzx9eEPoqhN/U/D8eDZ3KGG3D+Tz1W/UCg/oz7i0/H1rOH3hzCEutovdHA6DhT68K1bL/0JtD9xgy1I26JJQJAJii9wg8CW+qf7zEEXp633nbVIDxS4ruk/QtCUOfQr73Hzhx13PxPgeqtyg736mM21BO3EzhvY3i+PdWex5Bvm86wTYYPI1D77uhY+rkJ9mRgSQUwHqJVamBhgTYJoM3fBTvUASQLwAfswk+f9yhIeVh6svgXj9XLQnV8DyqQTGaEUnPGMl9WLv+xi9eMJ6OMM2J79A1SAugWQbQHMJ4ryOXm0JWLUQcefcyAcj9rvfH2RyK5cpQ3Ydc+RbV6TMM4Ch/yItBHa25AmPofpJwPQHUJGBQz2HcNmANy9A6PejiF8pdvFrdI9RsS114b7dXK/W9XeB9LuP+9wAPj20Y1hNe6n9w2wSeH52z2Xbfo2uAQb2CXjXYkiLZcLRZbfmbO3ucptFAQ8pjtS4g7/atCd1pQBHF4hqrFZDPF7Be6liVGri7yQNYY72KLv96qeL22K9TNbtP2nsztF4R7J6uQpZrmL/v0Ke0tcxsWQzqqIzbMF67oQdd9PUs31Yx7bWg992++gXe56euJe/tPux6b1GVUPFaJgZ0SKgs3jGv3qK59313Wmb3z6FuSZIFp5eEbmzuZsI08ygU4JiqnX8DdhcdSsHutqse42niXh7hMapvvCKhNnp2ujwWGNRTjgOUb1Gdit0hIbQOKvo9hsMntMeViOmsc2w8s7aVmTHxD6aE69m8h4wapIrzf+0PevD7/p2CjzjGw3u7D3vdW8C5pi3kco+Yo4dKZYz272a6+55ERUJt/r7T7DpyBP777z/L/UlmZS3//bX+/hV/3qzPiLS3z3DWpfXvb0x6IM0tL5z+z1qutlTvbKiWDFgQf2qKZcSly6qXYig173NZVS0ZsqVGHSKMoVi1qOOpsoVAGfaxa4ohZK1F1iW2TMuyVBmWHFmxcJ3TnkPSNYtIizin7ecQUQ9DsWqoWcLlOKCeyXXhvT3WvTUspbblnm2770kYilUL3FOSBZSEEkIumsWgjoreP81YzGKAekVH3xqmGzMjR4HmgosjOPU18HM1fdFf4RxOwVe4LtmfQ7n7ChUt4VhHXChb7qIv29PQuYA0O9jiIYQQkils8RBCCMkUBh5yWiiL/Lrw3pI9Ob8kNKlMcgXsI6dMynMsMeeR0DpOPex6+eMAFIjGsq8INPZak6/GmSWhSWWSL0GkLDIxw+WJOWsS3GUiVW+F4wXWM2uOLAIFEHOtyVfjvJLQpDJdrnoB6elIJ6cMSibrnY6dVh9g0BHTk4WQgWMJZSbLKbe3CN53FlC6dY0WXl4a1yEQ3YcTiEBTHfb4kldyHs4qCSX7kVpOaSiYt/w/1OkI6Fsq5GkPY8mAoYjqFUEIaamo9h68fLaEUizTftgkyym3tQjijxfPNuFlXLZgMN6pC6g5hPXaRdk5n7Qtt+sQiO7L8UWgcM9jj2tNro+zSkITWzpC2dcrCT0FO8gpy1305R6e3RdO+R5NAM+Q0e+WgYGYWRBCogKpNoXuGiG1DnKtUeC7h5NwvDhSCC8jOaocNA1XIhA9MbtKXreS+X0kp+KsklCyLyeQU27g+q80dFpzKDu/oe97vG1f20N4eUiLZ2+uRCB6InYWgZJvxXkloamK4xhPkG1yyke/y2oxwOMo5QNdRPuD3jT6AaF1osYkIuSURzpegH2Fl84guCX+bDwQj8mVCESFvMccL9tbBLq9YNRpGPganFcSmlSmmPeSJaHnIEGUqcqCgFGQK6qy8z1f9mgoNUcyGZY3BkWLquyn1RRlQxYZLafcRRaZIIoMizkThJfZ8kUEokK5tdT21BNJXtMed6c85BKhMofAni31jHuKEr8pGjq5FqBe+oC+vXnbuG04e++Qa4XmAkIugvMIRO2p1y3MFeOyg47WQS7HoPNVYIuHEEJIprDFQwghJFMYeAgBKLwkJEPOLwkV8wXkoSQdGQsgr5V9BZT7Ci8T6xEex3HtEqKKJmJ8J5Q3cA6BtUohrUzqtFDgpbSTnIjzS0Lf/HxSYYk3LtghpyJJQHkK4WUUzaGwENfV2IgLQWvCYt2QaqcFX3tjqaj2/jgvHBo6lR6qqqs1amNc6eyRFlQsbb1mhOzJBUhCJS9foZDHOqw04ALSTRIlkzEiycUA9UDLyH6L3d61tJ9ANFlKmlDPzDmT8HJnKpBqwuJL7RkjNyhozxjVFPx2Krp4GWOKEZ615LTF4BEjWfWDbbmLvjzF+GWX1iClnWR3LkoSulqtUSwWI9OIS5JkMkEkWf6Fdk1Yvb54wRj+AykZQehpKMD4xetyihOIAklS0kuSfZ5IeLk3U/QqUd1idj37esVOe7737AuL9zlQvXW0ejlUxm0ozskkpRn6FLWQ1iIQXCntJCfiOIEnf4OfpRV0d6zGLAS749ZLrIpON1tDQmH5ttGCWX/MoK9Ep5tf9l0jpVD0O+BIJiOXMjgiyVagNeQGmzJ+teG9zS5exkD7V0ptjCD0LN+iOtXhvfeL4w6VHqaBbPdOa8GRkqaqZwKZq2+EKjvCSz9QO8LLdJE7JW4QdH7UKnpet5jdMnMDnYpWIOjWJGBQz+FRMmC9dnErlJqUdlh1u3hN48ojJMRFSELXHzPMPn/gLrI7juxEgkiy3O2jOn7BAgu8jKvBYLAXBwhEr0b2eUbhZfPev56LF4yn/gtAc2hAge1uK99WMe21oPctZ3HlAu9zO1tSWlTXYVQriJBjc3ZJ6NagwzGeIEmSya0SzSbuq2O8aC8YV++PrseJFohGcDWyzxMKL1Md+xEjWbxPYqvQgD51BLDNe8ii3Vv7g57bjZqQVv7VjpTKtn+lvKKUdpI92XFWmz1VerkGTH2CyUR3xnX8adaTyQyrUgN3Xt9YHjc/f+DTS9cBye06M7FcroH1UpiKrSM8U5sIlLt4UuZON1UFel9sZTQxNBTMW/EtguZ9Fb1WD9X7Y4SdJu5lf0ziUVJStni21zM73EkOwi6dXl00/OlNgWkPlStB5ZIAACAASURBVNzmBITmUEW1Vzni5ILghIuK3vfHjcpdPCkQxn9agOq2EpsYGm2M3bQWoHqBMiGt3MWrWvXLrIzRNnboOivfogpstJoI2QaVOYR8e/aVxFLaSfaD5oJvz3nklF+Xa7yeTQxV+JM90rQ+Ke0kB8AWDyGEkExhi4cQQkimMPAQQgjJlP/t9vU1Pmb2rLai1IAkLvZcf2A2Wzp+tjxKYb2OqWPimkXzJWf6tF8e4vKRr8ligLq34LQGJfVsKntAuzcF5IvfMZMQEsWZJaF53Nw1hIWnBSyXnEz9FdE6IU9brLgyiQUG9QfgyYBS2/34XG9CyGVwZklokPV6hby7stT7kAtIw2idOgZanK4/Qb4ZsfL/9A/jhadr8UXLSVLLTsBRZm/N7AalMrqvyS2jOGlnc2igPa7Ezyyj8JKQzLgASajpOd5mnz/wk/1sKZii9wg8Cbp+2wKQJN8MyUVVGZDV7VNhD9LUaOhETLlNEleiObQdZX802As4q1BTri9JlnbaHjRDeoywUBNCsmTHMZ4Y8jf4WZphNpnY/y+WUMqLMrYlVqUGGhJgB5o3fBTd1lMRUqNhf8/UMZl9BPU5+RvcNW6OUs2vhNz3FS7NoWU/mB355jQnimtqkBZAc9+lFuUuXq3u7vmcMZyqauE1Imq44spx24A1LEPr9KC7ic0hjPc6crkpZNVKuajRkXYayd8ud19h3dqtqsC40r7nSQjZmYuQhHoUiyiuRa8b2ZlY+WZQb5NrwTdOJ7Fvi6fcxaulAq3N7rwkcaVPFbLsbqOQlu3SzsWgbp87rcqEnI2zS0IDmCbM/A8UA1sqcIwnNUnyzcUAj3MxKKXUoxwk5mxiaNljK4HgkyS1BACtg4p+j+HwCe1xJeUmcdulnVrH8Z9FnTuFl4Rkxg5dbaGpz/oEExQhNSQUQ2lFqYE7f6YBbn7+wGw2wRJ+uisJ1UUpqDfNmuyHLd+sV3LIuR/VFNusXO6iX82hkusJ399lGvO+2GMrt50cOpo7/bmJofGOeiUHuzYyVMsJZlrHaZHYoaH7qqKTy6GuGHjtwptKDQBo5TCC7I0BNYcqnnMVeKcoq944j9Zx9qOJO1lHeDnSDSCTHX4I+b5QmfNd0DrIPUoBvb/7MKZrC6DwkpDsoLngu9C8hxzQ+9szwPiQBYWXhGQMWzyEEEIyhS0eQgghmcLAQwghJFN2DDz+Ftd6WKm2/hC2r46Y/mzqnrlgMvM9bsFyue314Wjo7LUyf998GaN1HPOAreJJN/15gUH9BDqcvepCCNlxOrUjCX2bIbj+05eEFgE7CL19oOhMjV5/zDD7/IG7hhQ5VXr98YZloYgi1+qQNNQkVAC8A6huWzH6nepCyJVwfkno+gNvywKkwB4LwXQuIA0Rsgm4b9q2ILOFEUb+NsbC6suAQFMQiCbnC7eEQv+PqctZCNUl3gdaD4hI466LXZ547nbLJvUO1hSPEhLJmSWha3y8LVGQJMSEHbLBAoMHQfZpWd4U4ObQFoPKkKFGiDLtdHcrAgVzRyC6Ld8+dUnOdoB4tDl0zAn2wlS/miEJqqFg3tp86C8GdVTGbRiCMifuuqD8C+2aY80GbBdeVfWPGVsXQkgSxwk8+Rv8LK08y/TELAT37FkvsSq6++5IKCzf8LF2u9gkxDV23LLvGtwczqeMX22gV9mjdaF1/Ae9twnbGepykIYnBu0ZI7kfkH725Sl0w/2C7amrjNuBRbR23rjrUka3L2PkRB7tzxjt3ztEl3IXr3TCEbLBGSWha5ifa2HSgQ7T2SJhY+ICCVDuvsKyLDzhYaM7LR4NndYcitc6USFvz3Sauhy01cK+1KAoMjDVYQQ+33JdmveQR8/QoOF53sYvBhFCDuaMktDQ7qMNCUVni4SNLbU5xhNJufsKy1BQm7+HHtpzbJM6a50WRhufxuXzP4/Ol1SXyC8fv8VTkVAbPfpda4sBHkeCiBQAfg1hC7PjZ+9tnp8tH33uPAP9HetI8Sghkey49bU9VXq5BkxdnP7sT7OeTGZYlRq48/rGbEnop5euAxK7zvYnuMNorjJG+0l8IDbxW4G//YHXAglui/AoKaEWT3w+8fNgvm11yZByF69q1a9/ZYx2lAC16QYfd5LAtusCNH8rmI+A+13HcBzx6FQ3tn6VkO8ElTmEbGExqOMBT3t43CgeJSQKmgsIicGedm3v4bNz4KB4lJBY2OIhhBCSKWzxEEIIyRQGHkIIIZmyg6sNELe/LkoR055nS0f+mUcprNcxdUzcBTreFteh7bQBoCihkbii9PJYDOqo9KaBrZYJIYREs8MYjysJ/Qm82VOm/fhgQp+YKDYkQRIK/AxLQjd8bb549PqnVy8wqD8AT1ypTgghSZxfErqNq1lAWsZtNSaJskhCCPHYsasthkIBed2ECSf4OJLQEuBJQn/oE0y8nrY7YYHpGsvZBEs7ZbOL7qpw3GBs8RBCSCx7TKe2x2WCXW1Od5o7WFMsobT6tLvQYI/9FLwxIRP6ZIlCVIAxdUx0QGpcr61a6+TQmiubIkpCCCEAjtXigSMJvXH/Z0KfFFDMA1gjQhKqw1wBG31vxSKKV7wHqdbJ4fnegjU8d00IIeRyOaMkNCLnxzI4VmR/eCVjPAAQklK6UBZJCCEeO259LUx91ieYoOh0iwXTilIDd/5MA9z8/IGZN45jp9vdbCZ0TzSKq5xKnQpHFjniABAhhOwSeOxtDG52ToOzmVtUqr0NQvJh4/JeGgu8z+PSKpBqQC2yOUQIId8LmguOgC2TrKBX7W+u4aEskhBCAlASSgghJFPY4iGEEJIpDDyEEEIy5cyS0BRphBBCvhQ7Tqe2hZ6ltxlWgTQT+myFUqMhSEI/UAxLQhvSRkBJSiOEEPL1OLMkNIVA9KoWkBJCCNnGeSWhWwWihBBCvhrHCTz5G/wszTCbTOz/F0so5YXOuPUSq1IDDQmwbQVv+Cje2QtO49LyftnXsYCUEEJIGs4rCS0kpLHRQwghX5LzSkLTCEQ5xkMIIV+KM0tCk9IIIYR8RajMIYQQkik0FxBCCMkUBh5CCCGZwsBDCCEkUxh4yPlwtgTvaOeuCDk6vLckgR0Dzxofswkmkwl0M5z0gdnETptETX82dSdtgsnsw5aJip+F066GBQb1HHK5HHK5Dvb/O9PQOSj/pRzjCDgPrVwuh1x9gEX6jN69OM4Dj/f26Ox9bwGt496LHHKBG3zYfXfLrQ92qQ05hB0CjyAJ3Zju7EtCG40GGnc/8PnmB5D1xwyTZQF3XrrjZitK9v/dH6kIFPJXtna0jO6rBctSIZ+7KtdGuYtXy8KwKX64wOBBR9+yYFkW1GoPD6keCAsM6g/AkwGldrQK8t7uy1HvrR0cWlBhuXnRcgLFgfd9McDjXIFhWdwhOEPOLAkVWeNjuUKpVAx9fP0LSGPf1MS3v1wLo/QlopPzy/SK1DrI5epw/5btLbntt2C7Di2MMEIr8q0xpkwAWqeOgRb1pmq/ZQ8GdS9furfGpJZEGd3XIdznVUWqYaobwbOPvJ5ldF9fN7ceDxx2gLpwfY4B722YE9xbrWMHHSGKNYcqquMXLNLcd3JxHGeMp1BA3jTh9b45klAAngh0rfvdabOoKGIusSyUvtzi0fCbmv/Ho6FTGaNtOJ+nfqteYFB/xr3l50PL+QNvDmGpVfT+aAA0/OlVoVr2H3pz6B5DhrpRl4QyAQBT9B6BJ+FN9Y+XOEJP79v5DAUYv6ToPknfkjD0KeR7/4ETfz2zh/c2iuPfW+15BPm+6QTbY3alAjB0TKu3YNzKlvNKQr0gs8bH0kSxJEWWfb2SUA3PoxoUI+LhqD1jJPdh7fobv3jBeDrCNCe+Q9cgLYBmGUBzCOO9jlxuClm1kOqxvK1MAHK/6/1xNodiuTJU9yFXvkV1+gwDOMof8mJQR2uuwBi6nyRczzSUu3i1ukeo2Za68N5ur1bqe7vA+1zG/e8BHh7bMKwnvNT/4LYJPD8eVAMM6hX0qupZX16+K0eb1Za/uRPGavJYrQvIe4bpsAh0jZW4k5y5xBLid74SVdwe+3WqZvdJe2+GVriroQpZrmH+vkOf0tYys2UxqKMybsN47YYedCe4nnvDe7sPO9/bqoSK1zIxoENCZfGO+UEtFadldv8c6pYkWXBeSaj7/aWJYilmDOiqx3iauJdHeIzqG69IqI2enS6PBQb1lOMA5VtUp2J3SAitg4p+j+HwCe1xJaJLYo6NZ9a2MjMm/sGUcD3TFXzEMR7e233Y+95WJNRGLeRyj5ijh0pljPbvI7RUKhJq8/edZteRI/Dff/9Z7k8yK2v576/196/482Z9RqS9fYazLq1/f2PSP9+sv/+W1ir2sEvr399/1jL2C+dGtWTAgvhTUywjLl1WvRRDqXmfy6pqyZAtNeoQYQzFqkUdT5UtBMqwj11TDCFrLbIusWValqXKsOTIioXrnPYckq5ZRFrEOW2eg2EptaR87jnWLOFyHFDPpLrw3h7v3hqWUku6ZynuexKGYtUC95RkASWhhJCLZjGoo6L3TzMWsxigXtHRt4bpxszIUaC54OIITn0N/FxNX/RXOIdT8BWuS/bnUO6+QkVLONYRF8qWu+jL9jR0LiDNDrZ4CCGEZApbPIQQQjKFgYecFsoivy68t2RPzisJDX8eZzUgF8w+csqkPMcScx4JrePUw66XPw5AgWgs+4pAY681+WqcVxIKE7oOSJ4oVEJhuUQ4ppErJlIWmZjh8sScNQkV559Vb4XjBdYza44sAgUQc63JV+PMktACCnkTS7eVY5ow8wUUxK9c9QLS05FOThmUTNY7HTutPsCgI6YnCyEDxxLKTJZTbm8RvO8soHTrGi28vDSuQyC6D6eQvKY57PElr+RMpF9A6mIvFg0sAl0trX/eYlLLXhTqLvpcLa1//5bW8s1fQPovtBr0003bWHlqXcEC0uxR5dACQT/FksUFkuKCSW8Bor/w0FBqzgJEZ+GeV2aoHBFDsWo7LSyMSk9zvKh8hqXU9ljUGF5AubEQ9BCi65D6HqVemLnl3FXZOV7c9d5hUWVqtpcbXqAaf11SsPMCYHKpnFkSusbHbIZlQUKjUYSpTzCZlXAnto6uWhJ6CnaQU5a76Ms9PLsvnPI9mgCeIaPfLQMDMbMghEQFUm0K3TVCah3kWqPAdw8n4XhxpBBeRnJUOWgarkQgemIuW/JKzsl5JaFrE5/rIiTJTixKdyhhiSUHebaQhSizBqkCABo6rTmUnRX/+x5v29f2EF6Guh/32f1yd65EIHoirkPySs7FBUhCV1iv/X+v1mIaOMazwTY55aPfB74Y4HGU8oEuov1Bbxr9gNA6UWMSEXLKIx0vwL7CS2cQ3BJ/Nh6Ix+RKBKJC3mOOl51W8srZbl+Cc0tCV8t/gTKj83KMJ0i8nNIey3HThP7wiDGAjTGeGMmiKvtpNUXZ6NePllPuIotMEEWGx2MShJfZ8kUEokK5tdSDJ6eQvO5w3H3HiMjFQGUOgT1b6hn3FCV+UzR0ci1A3WXa+zmwN28btw28cq/rq4bmAkIugvMIRO2p1y3MFeOyg47WQS7HoPNVYIuHEEJIprDFQwghJFMYeAgBKLwkJEPOLwndlo9sIWMB5LWyr4ByX+Hl1mLrAc2NeCw/+Nl17WjO98XjhzQ5/mcRdRU/j5qOHJcv6dwp9CQHcH5JaEI+Qo5KkoDyFMLLWBZ4GVehqlWMX0Ll1WqYP24GuHL3FWrVXcezwOBxBFn1F5AuBnXkHiV/gam3hkZDpwWolr8AuNr7472oxOdLce4UepI9Oa8kNDGfAxeQbpIomYwRSS4GqAdaRv7bdDL7CUSTpaQJ9cycMwgvFy8YV+/RrEjA+CUUZNpoV6MXijaHKtDqYDB4QK+qCkHSCWSRi2IrkGrCok3tGSMvYCTl237uyedIoSeJ5zhjPIUC8qbpb2dgLrH0mjsmPlHAWo/YcycpH4lBQ6cyRjtSYbPAoP6Me+HtFi3nYVr+hXZNWL2+eMEYCn6nmkI7Qk/v22UaSuBh2RwKNgBDwbzlP7ynI6BvqZCnPYwlA4bi6lwS6pnEIeqb5tB5m7e3M/Af2um3NzD0KeR7/4JpnRxaUP3zTzkfefEyRvW+ad8TjBFu9Pz6rWD+HHU1mhiqQK8HKOKNW7xgDAnvnajuNPv8+nrFTnu+91s1ifmSzz3+ehKyneMEnvwNfpZW0N2xGrMQ7I5bL7EqinvuvNktmG35nLLvGjEtre+II5mMXMrgiCRbgdaQG2zK+NWG17WzeBkD7V8ptTGC0LN8i+pUh/fuK44PVHqYBrLdO2/MjpQ0VT0TyFx9I1TZEV76z3tHeJkucosl4WUMR2MUvCce5S76eIxsLSze5wAcoarItAf9XuxOe3Dy2y06N0CqaAWDdWy+pHNPQbmL1zQePfItOa8kdFs+sjsJIslyt4/q+AULp4ulf/BT4QCB6NXIPo8svFy8YDydolex61/pTTHd6G4DmvdV9P68hCuCh14VqipjFG4h1sTA0MS97ASnxQvGU//FoTk0oEDoyovLt/XcCdmfC5CExuTzPuYYT4AkyeRWiWYT99UxXjRnjOHIVYsWiEZwNbLP4wsvFy9jQDGEc1Ahiy1Ir/jfUOZjjP2cGDz0UFWHaDaHMJQ5Wm7Q3eiys1tjvhxWbE0a0KdO2pZ8BwUdCj1JEueVhG7J5+WlJFQkUTK5TaLpSETTexbDEsvg/2MFoolS0hT1zIwshZeGpdQ2r723WZqhWDXxOgj3anMDNbss77PQ9RS/GhCEhu99bL5t574NCj1JPFTmEEJOAIWeJB6aC74955FTfl14PSn0JNtgi4cQQkimsMVDCCEkUxh4CCGEZMrpJaGiHJSSUOISWJOzg1olSVy5b5mEkEw5vSS0KPkLRBsNNKQiUMgLktAlCpKQb6YjHNPI9aN1Qp62Sg9V1VXttDGupDFsJ4krk8vUOlxTQsilkIEkVGSNj+UKJVdjYJowBavB2vzEGiZMMfJwAekGWqeOgRb35p8g34xY+X/6h7GtbHmUhK2VtWeMhBXzi5cxphjhWcOG7t/ePsANIAniyqQyYa/Yb48r8TPLKLUkJDNOLwkVMZdYFkpe8FqvV17rx9QnmH3+ENQ6JJ4peo/Ak/Dm7+nyY+WbIbmoKgOyun2660GaGg2diGm1i/c5UL1FGXZLpDJuQ3FdO80hLLWK3h8NgIY/vSpUaxhpWRDFlYllAnBlmYb0GGGhJoRkSTaSUAB2a8dEsRiMLPkC8DGbYFm4E/bpCZZNSegmct/XmDSHjh14X/lmEvtqahYD1HMtQLUig1tNgtcSsl67uBUTm0MnQLQANTroRIkrE8v0TucVlgq0wq0bSi0JyYxsJKGA3dpBKdCiyecLWC91rEoN3N3kAayxXh2rRt+UWPmmLYB05ZT2Mz2FrW3fFk+5i1f7Cb/RnVe+rWLaa0Hvu0Fpgfd5uIAqZNndRiFcpU2HWLoyna67FqAyyBByNk4vCXU/W5oolkItmmIRRQjC0IjgxDGeHUiSby4GeJyLQSm6JbFZ5iFiziaGlj22Egg+zXvIECSW2h/0xL2BtA4q+j2Gwye0x5XAOFWsuHJbmXC64PR+9LlTaklIZuw4q82e8rxc22Myk4k7A82fZj2ZzIQWjENUQAEAFCHd/cCnm1dH9E6lJCVNDA0F81ZE66TcRb/aQyXQesliMN3fiMwPIE0MjTbGYuvLDSRaR2iNldF9FVtNGv70psBUPA93vCahTNhB51Ey4jdrK9+iCuy2yyYhZC+ozPkuaB3kHqVAS8F9GNOnBVBqSUh20FzwXWjeQ54GWzwtpJjV9h2g1JKQTGGLhxBCSKawxUMIISRTGHgIIYRkyvkloUllkj3Q0NlrZf6++TJG6zgz2WwVT7rpzwsM6ieYwbdXXQgh/0v/VUES+jZDcJ2nLwktAnYQevtA8e4G+aKERkP8qo6J6UpCk8okJIaahAqAdwDV2zNPBrikuhByJZxXEppUppeFC0g3CNkE3DdtreNqcgRtjrD60k7fFIgm5wu3hEL/j6nLWQjVJd4HWg+sYYq7LnZ54rnbLZvUO1hTPEpIJGeVhJJ9WGDwIMg+Ld+F1hzaYlAZMlTXMiAsmLTT3W0DFMwdgei2fPvUJTnbAeLR5tAxJ9gLU/1qhiSohoJ5a/Oh75kPBGVO3HVB+RfaNd9wjcULxlXVP2ZsXQghSZxdEpqmbEpCRcr41QZ6lT1aF1rHf9BXepieqy4HaXhi0J4xkvu+f63cRV+ewhcR2J66SN1O7HUpo9uXMXIij/ZnjPbvHaILxaOERHJWSSjZj3L3FZZl4QkPG91p8WjotOZQvNaJCnl7ptPU5aCtFvalBkWRgamOoBRny3Vp3kMePUODhud5G78YRAg5mPNKQlMVxzGeOMrdV1iGgtr8PfTQ3r4VgtZpYbTxaVw+//PofEl1ifzy8Vs8FQm10aPftbYY4HEkSEMB4NfQ2RIhfvbe5vk1cS+P8Nx5Bvo71pHiUUIiObMkNKlMEk1wh9FcZYz2k/hAbOK3An/7A68FEtwW4VFSQi2e+Hzi58F82+qSIeUuXtWqX//KGG0jopur6QYfd5LAtusCNH8rmI+A+13HcCgeJSQSKnMI2cJiUMcDnvbwuFE8SkgUNBcQEoM97drew2fnwEHxKCGxsMVDCCEkU9jiIYQQkikMPIQQQjJlB1cbYM9Cs2egFaUGJHGW2voDs9nSkX/mUXJVOKaOSdj+mS/hzt3iWswnfn5FLAZ1VHpTQFZTrvgnhJDvyw5jPK7Q8yfwZk+Z9gOPCX1iotiQBEko8DMqiJg6JmYRDanolLlE/s7OZ+oTLAt3wanYV8MCg/oD8MSV6oQQksQFSEIlL1+hkMd6FXJUX80C0jJuqzFJlEUSQojHRUlCV6v17i63i0J0gxFCCIlixzGeGPI3+FmaYTaZ2P8vllDKh3fXcbU5UmQR648Z9FUJd+Hk/A3uGjdHqeapaQ4toJND7lEJiijLXbxa3XNWjRBCLobjBB44klAvPpjQJwUUIyShdxENmvXHDLPPH1c5sUBE6+TwfG/BGp67JoQQcrmcXRK6NehczRgPAISklC6URRJCiMeOW1/P/LEbfYIJipAaEoqhtKLUCLZsYls7JpbLNYAlZpOl85lb5hfCkUWOdAM4j0KTEEIuhh0CTx43dw1Ej7YkpQEoSmhERpIipEZjy2GvZYxngfd5XFoFUg2oRTaHCCHke0FzwRGwZZIV9Kr9zTU8lEUSQkgASkIJIYRkCls8hBBCMoWBhxBCSKacWRIamikn5iOEEPIl2XE69Rvw8w6ltxmCXgIT+myFUqMhSEI/ULy7Qb4oITBxzdQxMfPOmp3QbDhTx2Rp4kb6UpOpCSGECJxZEhpKXa+QLxRCH17TAlJCCCHbOI4yp1BAXjdhwgk+jiS0FP6eIwltBIKXCX2i24LRfAl3d+xnI4SQr8wFSEKFRaSmjsnsI6jPuZoFpIQQQtJwEZJQj2IRRX0Jc33DCQaEEPJFObskNIBpwsz/CAYsjvEQQsiX4uySUG98BxCmWRNCCPmqUJlDCCEkU2guIIQQkikMPIQQQjKFgYcQQkimMPCQ8+FsCd7Rzl0RcnR4b0kCOwaeNT5mE0wmE4S9n/a0ZzttIk5/NnXnM+Fn9oF1ZLnCDLerYYFBPYdcLodcroP9/840dA7KfynHOALOQyuXyyFXH2Bx6nzxBfLeHpsD7pHWce9FDjkxoh14391y64PDf2NIOnYIPIIkdGO+sy8JbTQaaNz9wOebE1yKkv2Z+yMVgUIewaU6b1gWBNfbVVFG99WCZamQz12Va6PcxatlYdgUP1xg8KCjb1mwLAtqtYeHVA+EffMlVpD3dl+Oem/t4NCCCsvNi5YTKA6874sBHucKDMviDsEZcn5J6PoDb8sCpDgj9RdYQJrqTS3Xwih9iejk/DK9IrUOcrk63L87e0tu+y3YrkMLI4zQiqpLXJkAtE4dAy3qrdJ+yx4M6l6+dG+NSS2JMrqvQ7jPq4pUw1Q3gmcfeT2357Ovt399jgHvbZgT3FutYwcdIYo1hyqq4xcs0tx3cnEcZ4ynUEDeNP1uMkcSuoEjCfWD1xofb0sUJOlKWzvbCb+p+X88GjqVMdqG83nqt+oFBvVn3Ft+PrScP/DmEJZaRe+PBkDDn14VqmX/UTaH7jFkqBt1SSgTADBF7xF4Et4q/3iJI/T0vp3PUIDxS4qujvQtCUOfQr73Hzjx1zM53yngvY3i+PdWex5Bvm86wXYzeCaVuRVDx7R6C7Z1suWsklC7i01CIynqXLUkVMPzqAbFiPhD0J4xkvuwdv2NX7xgPB1hmhPfoWuQFkCzDKA5hPFeRy43haxaSPUnuK1MAHK/6/1xNodiuTJU9yFXvkV1+gwDOMof8mJQR2uuwBi6nyRcz8R8DuUuXq3uEWq2pS68t9urlfreLvA+l3H/e4CHxzYM6wkv9T+4bQLPj9vKTKwBBvUKelU19uWFnI4zSkLXMD/XwFqHG68AwJxMNnc3vWqquD3261RNgfHaTXgAVCHLwPxdeLocXGa2LAZ1VMbtiDolX8/4fKeA93Yfdr63VQkVQ8e0eo8yDOiQ8GvxjrnQUtn9vtsts67WQa4DBp+MOaMk1N591J94IKHobJGwsaX21Y7xNHEvj/AY1TdekVAbPTtdHgsM6inHAcq3qE7F7pAQWgcV/R7D4RPa40pEl8Qc7+HqbCszY+IfIgnXMzGf94UjjvHw3u7DvvfWvqYt5HKPmKOHSmWM9u/mljJTUJFQm78fYQYk2Yn//vvPcn+SWVnLf3+tv3/FnzfrMyLt7TOU9fPN+vtvaa0Sy/+03rzyxMMurX9//1nL5MxnRLVkwIL4U1MsIy5dVr0UQ6l5n8uqasmQLTXqEGEMxapFHU+VDM/HwwAAIABJREFULQTKsI9dUwwhay2yLrFlWpalyrDkyIqF65z2HJKuWURaxDltnsO2fO451izhchxQz6S68N4e794allJLumcp7nsShmLVAveUZAEloYSQi2YxqKOi90/THbYYoF7R0beG6cbMyFGgueDiCE59DfxczTLwr3AOp+ArXJfsz6HcfYWKlnCsIy6ULXfRl+1p6FxAmh1s8RBCCMkUtngIIYRkCgMPOS2URX5deG/JnpxZEuqX5/1sFEwum33klEl5jiXmPBJax6mHXS9/HIAC0Vj2lXbGXmvy1dhhAakgCX2bIegl8CWhRcAOQm8fKN7dIF+U0GiIX9UxMfOB9TylOAccuX52tgU4C/ugoZN7Plm1dqImoQLgHUDVW+F4gfXMmsh760s7m7A1OA+DX+kFnJHXmnw1zi8J3cZVLyA9HenklEHJZL3TsdPqAww6YnqyEDJwLKHMZDnl9hbB+84CSreu0cLLS+M6BKL7cArJa5rDHl/ySs7DmSWhALDGchbRRUdiSS2nNBTMW/4f6nQE9C0V8rSHsWTAUGq2egVAQAhpqaj2Hrx8toRSLNN+2CTLKbfJIuOPF8824WVctmAw3qkLqDmE9dpF2TmftEtJrkMgui8nkrzuea3J9XFWSairzfEVbzomMx35hmCrvmpJ6CnYQU5Z7qIv9/DsvnDK92gCeIaMfrcMDMTMghASFUi1KXTXCKl1kGuNAt89nITjxZFCeBnJUeWgabgSgeiJ2VfyGkvm95GciqPNasvf3AmbveWxWheQj5CEJvayFa91M7isOYGccoMapAoAaOi05lB2fkPf93jbvmZv2uW9MVuv2Dp8cEiLZ29OJBBNPPcqZFlsxZ6PfSWv5HtwRkloRM6PZXCsyP6QYzwBtskpH/0uq8UAj6OUD3QR7Q960+gHhNaJGpOIkFMe6XgB9hVeOrthWuLPSW3NVyIQFfIec7xsbxHo9oJRp2Hga3BeSein9SaWt5HRugJJ6DmIl1PaMkk3TZArqrLzPV/2aCg1RzIZFi0GJYuq7KfVFGVDFhktp9xFFpkgigyLOROEl9nyRQSiQrm11PbUU0hedzjuTnnIJUJlDgGcKcH3FCV+UzR0ci1AvfQBfXvztnHbSD89m1wkNBcQchGcRyBqT71uYa4Ylx10tA5yOQadrwJbPIQQQjKFLR5CCCGZwsBDCEDhJSEZcmZJaMR3wmlkCxkLIK+VfQWU+wovtxZbD2huxGP5wc+ua0dzvi8eX9TkONOhY9cpBdYxhZUzvv5mM+gmpFHoSQ5gh8AjSEI3FuP4ktBGo4HG3Q98vjkBpCj5C0sbDTSkIlDwJaHrjxkmywLuvLzJa30I2RtHQAlECCidtT7BAXZfeGlZFtRqDw9HecAu8DKuQlWrGL+EyqvVMH/cDHDl7ivUqruOZ4HB4wiy6iwgbQ6Da5RUGajeOmtoNHQq/jlYRhvjB7f8BQb1B+DJgFLbrGN8mlvXhOtJSAJnloSuYX4WICUFGy4g3SRRMhkjklwMUA+0jPy36WT2E4gmS0kT6pk5ZxBeLl4wrt6jWZGA8UsoyLTRrkYvFG0ObT/bYPCAXlWNmYW2wOBxDuW3k6g9Y+SokuxT+oU2xrDjXRnd1zjzQ1JamnOk0JPEc15J6NrEJwpY63433IwRZgtJkskEkWT5F9o1YfX64gVjKPidagqtIPQ0lMDDMk4gCiRJSS9J9nki4WXSabyMUb1vhoKAz6/fCubPUVejiaEK9HrwA0sY7Q961b4fMAKmBCd9mqqayVDoSQ7gOIEnf4OfpRV0d5zGLER0xznanGLIxrZeYlV0u+IkFJZvwdZN/gZ3De7X4+FIJiPfRB2RZCvQGnKDTRm/2vC6dhYvY6D9K6U2RhB6lm9Rnerw3vvF8YVKD4Fnmvem7UhJU9UzgczVN0KVHeGl/7x3hJfpIrdYEl7GcDRGwXviUe6ij8fI1sLifQ7AEapGlD14HAWCI8pdPClz/1o/S/FdZ8ek3MVrGo8e+ZacXxKaFz8rolhcYxUWW5P0JIgky90+quMXLJwxhv7BT4UDBKJXI/s8svBy8YLxdIpexa5/pTfFdKO7DWjeV9H78xKuCB56VaiqjFFUC1H7g15EK7bcfRVaZbfQ03jxCDkh55WEbowFmTDNPAoFsTiO8QRIkkxulWg2cV8d40VzxhiOXLVogWgEVyP7PL7wcvEyBhRDOAcVstiC9Ir/DWU+xtjPicFDD1V1iGZzCEOZoxUIuk5rp590Pezfl7ny+/RqJAo9SQI7zmqzp0ov14CpTzCZ6M64jj/NejKZYVVq4E7sG4vdEiGPm58/8Onl1QGJ3WqJBLpOKtD7YiujiaGhYN6KbxE076votXr2GMPBNHEv+2/vj5KSssWzvZ7Z4U5yEHbp9Oqi4U9vCkx7qOQ2JyA0hyqqvcoOkwsWeBlPQzPA7AC2OaRTRrdfxdTpu9Q6lcCEgnL3CQp6qHjbwUa3doKTJyrQ+5agnHHTKuhNgVFLPL+ktBSUb1EFNiZjEAJQmUMIOQkUepJ4aC749pxHTvl14fWk0JNsgy0eQgghmcIWDyGEkExh4CGEEJIp/9vt62t8zOxZbUWpAUmcpbb+wGy2dASfeZRcvY6pYxI2iuZLuLu7QT4pbedTIVfFYoC6t+C0BsVIsY5H6yDXCk3Yrimhqc72oHZvKkPljqqEXCQ7BB5BEvo2Q3CNpy8JLQJ2EHr7QPHuBvmihEZD/KqOielIQpPSyJdC6+TwfO+qVTR0Kj1UVQuvTThBqIPbbYGiOYRlDcVCkXu+DaxbWQwe0KvKkENaGK2Tw6PEwW5CLoEzS0JTpHEB6QZap46BFqfrT5BvRqz8P/0CP3s9yKMkbK2sPWNU89ecLF7GmMJZyyLq/uFuHxC1fiQkw7S/bK/sH95vfLs5NNAeV+JnllFqSUhmnFcSmjaNhJii9wg8Cbp+T5cfK98MyUVVGZDV7S2AgzQ1GjoR02oX73NP2691cqiM21DclafNISy1it4fDfYCzmp0l1lYhimu7I+siy2zNKTH3RZCEkKOzo5jPDHkb/CzNMNsMrH/XyyhlA8L11xtjhRRQEJa/gZ3jZujVPMrIapRmkPLftg68s1pThwHqUFaAM19e5jKXbxa3d3zOWM4XndaiJoEDOo5jNsGrGEZWqcH3U1sDmG815HLTSGrVkQgcfUwfrfbwtkqwNoyqFPuvsK6tVtVgXGlfc+TELIz55eEbksjuxEr3wzqbXIt+MbpJPZt8ZS7eLVUoLXZnVe+rWLaawn6lgXe5+ECqpBldxuFEBt6GFtFg1FLsF3b+ptwz9piULfPneZkQs7Hf//9Z7k/6VhZy39/rbfP5PR/y1XKPFvKWy2tf3//WYHivjmqDEtWI1MsGTFphmLVaoplnLhuEQe2lBqsmiIeWbVk1CzvI1W2INZNlS3Iqpc3eD5Rn4VRLRmyFf6KKsMpN6qailVDuJ6EkFNwZknoljSyIwnyzXIX/aoou8wFBvFPhz220tcrQuujiaHRxlhsfblTorWO0Boro/saajXFyjCTcWe1xW7WRqklIZlBZc53Qesg9ygF1rxwirEIpZaEZAXNBd+F5j3kabDF00KKWW3fAUotCckUtngIIYRkCls8hBBCMoWBhxBCSKacVxKKzfR86S44I47siIZO7hn3Owsy982XMe6sN+s33lNPBlhgUH8Ano68dmevuhBCzisJhQldByQ3H0zokyXMGwmcXU1iqUmoAHgHUL0984P+kupCyJVwZkloAYW8iaVrADVNmPkCCoEslIRuELIJuGtctE5w1X54u2U7fVMgmpxPQyfgNgv9P6YuZyFUl3gfaD2whinuutjlieduC09T72BN8SghkZxZEprHzV0DpdXMXnxqFtHgXjxbWGDwIMg+Lcvr3mkObTGoDBmqq8wRFkza6c6PoWDuCES35dunLsnZDhCPNoewXrsoOwtT/WqGJKiGgnlr86G/GNRRGbdhCMqcuOuC8i+0a441G7BdeFXVP2ZsXQghSRwn8ORv8LO0gj5x7AVmAaWN6OGIQIvF4GezCXRIaDQakKBjMvtAIGblb3DXiGlpfUvK+NUGepU9Whdax3/Qe5uwnaEu5S5eAz45y3mAH4D2jJHcD0g/+/IUvojA9tRVxu3QxnFIuC5ldPsyRk7k0f6M0d5FmVDu4pVOOEI2OK8kdG3ic12E5MxSKEp3KGGJZWguAglS7r7Csiw84WGjOy0eDZ3WHIrhb5kgb890mroctNXCvtSgKDIw1RGU4my5Ls17yKNnaNDwPG/jF4MIIQdzgunUa3zMdKxKJWGCgLvtQVQ32grrtf/v1TqPgjjIwzGeWMrdV1iGgtr8PfTQniNK6iyidVoYbXwal8//PDpfUl0iv3z8Fk9FQm306HetLQZ4HNUgVYTv/BrCFmbH78ezeX5N3MsjPHeegf6OdXQC7FnHvQi5QM4rCc3f4GcJWHp5dUBit1oywR1Gc5Ux2k/iA7GJ3wr87Q+8FkhwW4RHSQm1eOLziZ8H822rS4aUu3hVq379K2O0jYhurqYbfNxJAtuuC9D8rWA+Au53HcOheJSQSKjMIWQLi0EdD3jaY40OxaOEREFzASEx2NOuc6jo/d0DB8WjhMTCFg8hhJBMYYuHEEJIpjDwEEIIyZTzS0Lj8l0Ri0Edld4UkNWUK/4JIeT7ssMYjysJ/Qm82VOm/cBjQp+YKDYkQRIK/IzS35i6rcaRirvlu3hOZEAmhJAvxnkloWnyXc0C0jJuqzFJlEUSQojHeSWhafNdDaIbjBBCSBR7TKe2x3mCXW3A+mOGmRs1iiWUVp/AT7GFtG++60Lr5NCaK5siSkIIIQB2nlwQT/7mDo0b938m9EkBxQhJ6F1xx3xXhNbJ4fnegjU8d00IIeRyuQBJaFI+XNEYDwCEpJQulEUSQojHjltfz/wxGH2CCYqQGhKKobSi1Ai2bGJaO+EyN/J9FRxZ5Eg3AHbAEUK+OTsEHnu30Jud0wAUJTQiA8qWfICzEVziNy6EBd7ncWkVSDWgFtkcIoSQ7wXNBUfAlklW0Kv2N9fwUBZJCCEBKAklhBCSKWzxEEIIyRQGHkIIIZlyekkosCEKzZfu/K2xv4AklBBCSHp2nE79Bvy8Q+lthlUgzYQ+W6HUaAiyzw8U726QhwldByQ3DSb0yRLmjYQiTOizJQruNOr1B2YzHXlXGkoIIeTLkYEktIBC3sTSXQFqmjDzBRS8f5fgOkPX5ifWMGGKuyhc1QJSQggh28hAEmqv1SmtZphMJvaWCM62B+v1CijkYW/bM8Hs84cXhAghhHxNjuNqy9/gZ2mG2WRi/79YQinvdsY540IFCY1GEaY+wWRmbwQHAPkC8DGb4PPHHRpSHqa+DHbjXc0CUkIIIWk4vSR0beJzXYTkuHCK0h1KsxmW5g2kfAFrXcfKU+WssV4BHOAhhJCvS0aS0BXWa//fq3UehQKAYhFFOP8GPKdbKTxbjmM8hBDyZTi9JDR/g5+lT8xmEyzhp9uTFIqQ7tZCWhFS4xq3vSaEEJIWKnMIIYRkCs0FhBBCMoWBhxBCSKYw8BBCCMkUBh5yPpwtwTvauStCjg7vLUlgx8CzxsdsgslkAt0MJ31gNrHTJuHpz6bufG7/zAKJCWVeBQsM6jnkcjnkch3s/3emoXNQ/ks5xhFwHlq5XA65+gCLdJmE+5BDLlfHIF3GlGXy3h6Fve6tjdYR7q8X0Q6/72659cN/YUhKdgg8giR0Y76zLwltNBpo3P3A59uHY5z2JaGNRgONhoTCcunodZLKvBbK6L5asCwV8rmrcm2Uu3i1LAyb4ocLDB509C0LlmVBrfbwkOqB4N4H50etovfn0Mcw7+3eHPXe2sGhBdW7vypaTqA48L4vBnicK/j/7Z0rdOJMA4ZfzvkVaNYWQSqy2Jog0LCmqnZdIsF8rrJuTZDg1qJqSmwRRRTbRjQIalYUDXZ+kYRcSEK4JUDf55yIMpnJTHKaydyesYTgDsEZkq8kNClNlwtYQBr9pYbg11+hhX76FKEVvDRXSRpa4IvP3pLb/gq289BCH320ovISlyYAQ6uja0R9qdpf2d1ufRUv3VdjUkuiivZLD+77SpIVjE0rWPq4++m/wscbFFkK/dhF/SAtoRR54bM93LM1NLvS8dVizd4QtcHTWosp8rmTkyNXSeh3IPyl5v3zGNCkAe4s92st7Vf1FN36I26FFw8t5x+82fN98Rn406lhKOx/9GbPvYaK4VpeEtIEAIzReQD++r5UvY/KPjrmvR3P0oGIl8E66VsSljmGeuu9cOLvJ+B/wUqDO/w98hcsn20Uh3+2xmMf6m3TqWzXK8+9nrtlYly7Bts6GfPv3z/hHulYiNnrs3j/Cv06exXPz8/28T4Ts9dXMVt45z87Eb7en8Xz60wsUqR5XgyFClUM135ThG5Fna4KqMPQueH4EVi6UACBwBG8hqUrAoBQ1xKLucaGNIdqVFpR6aUsQ8rzLV0RUHRhBc6PuZ9rSauhuPvAZ5vfs7WErqhiaOlCUXRhuX+LoVCjnm/q524JXUHoOZGsONistuLVjTOG00BDLmKxLKHol4TKPkkoZpid5USCXajh+tCfU4rdJy1WxwuCH3k1qKqCt48t+pQ2ppkt024d0uAO1ks79DWa8n42b6GOB3g66ngxn+0ubP1sazKkVcvEggkZ0vQDb1EtldTP3WmZ3T7GdteS45GvJDRVcuc8xtPErdrHQ1TfuCRD6T86XR5TdOspxwGq16iN/d0hIQwNknmLXu8v7gZSxHTWN6y9szalmTHxL6aE+xnGeERfucMvfwIHHePhs92FnZ+tJEPpt1AoPOANHUjSAHf/NdfPi3ruSUgylLePrWbXkQOQvqvN6TJ79h/v4isiLLEbLhCelOYqsnh9drvtTpGhUMNdGWtdCL4wX9Pe7TYBINThFl0Z4e4T93pDVWCtewRC8fVf+K8Z6GaIS1Mcozsm6Z5FhEWUab0Mod+julssXShpu+o25jMpL3y2h3u2ltCVpGeW4rknserCI1lCSSgh5KSZduuQzPvQRJKDJY66ZOJeeLPtyPGhueDkCE59DRxn0xd9CWU4BpdwX7IvQ7X9giFavmsdcKFstY171Z6GzgWk2cEWDyGEkExhi4cQQkimsOIhx4WyyMuFz5bsSP6SUH+8iet3I+fDLnLKpDiHEnMeCENz8mHnyxsHoEA0ll1FoLH3mlwa+UtC3714cmmG9/NcsEPiiJRFJkY4PTGnIsO1f9VWKxxPMJ9Zc2ARKICYe00ujROQhMqreKVSEcvFIpj2WS8gPR7p5JRByWRd0+ywehddzR+eLIQMXMuXZrKccnOL4GNrAaWb12jh5alxHgLRXTi+5DX6soeXvJKcOIirbTETr/6Fn1/v4jm06PPr3fW4xQvZvt4jfG0nv4A0e4ZqnGMq5LvyL5hcLUD0Fh5auuIsQHQW4QUWY8Ys2rN0oWy1sDDOc7bpelHxXE9X2mv785y0EHQfovOQ+hmlXpi5oewrP1zc/d7Gs5aWzemGF6jG35cUbL0AmJwq/ztI7VW8ws/KBJPRyP67XEGl6LZclvicTDAryWg0ypibI4wmFdyEDNXLzwnMRQU38nraN42rg2TzMjDw2FegWzG6EPUeYtUb1Ma92sGj+8Gp3qIJ4BEq7ttVoOuPrGK46jORICtjmBaAKuwv6lY/cO7+JFwvjukTBuM+xgV/XhTIU6CZFK/axoto753j9GzxjNKyqezNHqyPOgqFMdShOInFkNNuHa03HVbP/SXhvqQh8+dIjsVJSEKXnxNMvn6sVUYkjiPIKddQYG9rYkBrvUHfWvG/6/U2nbaD8DLU/bjL7pfbcyYC0SOxt+SVXDS5S0I3Vjoc4wmxSU754PWBT7t46Kd8ofsx/qAzjn5BGFrUmESEnPJA1wuwq/DSGQQX/mPthXhIzkQg6ot7yPGyg0heoxNGnYaByyBfSeiXeH8+d0loHsTLKe2xnIi9XCLGANbGeCLFjU6/vBOm6Ppav360nHIbWWSCKDI8HpMgvMyWCxGI+tJVUg+eHEPyusV1uYfO2UNlDoE9W+oRtxQlflMMaIUWMNxm2nseTNGtSxjcWXjJc0Mhsjc0FxByEuQjELWnXrfwplunXekYGgoFVjqXAls8hBBCMoUtHkIIIZnCiocQgMJLQjIkZ0mol15kPJKCjAWQ58quAspdhZcbsxOtIVpbcxSuCZ2pz2v5CcQLaWWSykAxJ8mBnCWhRVzdNHwLT0uYzcI1GiEHIklAeQzhZQyGVkALw8C6Ivu6BjRpgDvLt97Il6Fpt47Cg+wtIl2tkzGgSR3Uhs7v1h0GkuatFdpUBoo5ScbkLAkNslwuUCyFQriAdJ1EyWSMSHLaRT3QMrK/cDd3Le0mEE2WkibkM3MyFl5Ou3jo+3VB/rAPvCXk82lQwzBq4avxiL6i4z8nyenTAGP08WikK8Om/FLMSQ7NYcZ4SiUU53Os2irzGWarisJu1VQWE7s7bV5GI2ApmMN0u+C+fuBnZM1GPMJfxX6FzRTd+iNuhReGlvMyrf7CneJbvT59wgDeyyqZPjrmvfM1rQODp1V3TbPn+zq3dLy1vJf3uA/ciyHUcQcD2YKluzqXhHwmsY/6ptlzWgj2dgbeez/99gaWOYZ6692wtZZLmvnIlomxr4URoNrGXx3oSBHlmj5hABkfvorO/QCYfrwBtWtHq1eANLiDHlOYcBni7wshx+MwFU/xCj8ri1UFMpqXfN1x9jiOCdnecwdmaMO3stcNV1lgEt4MrniFm0ZMS+s74kgmI5cyOCLJVqA15FY2Vfy6AwZPzsvqaQDc/UqpjfF9oVevURubWH0z+8ccpA7GgWi3zpe2IyVNlc8EMlff+LLsCC+9itoRXqaruVNTbb9ACAHrbgAp3Ioad2DeepV1rfN71RJRZKBbL+BBtiBe2rhOVYZUGcJLGh8eIVtwEpLQFeUyyku3i47sRIJIstq+R23whKnTbXO/99tkD4Ho2cg+Dyy8lGQo/oo7BrsCGkL1u/cUf6XRxK1qG72r1zWMOy2Y98JZXDnFR6jPLr4MhGRP7pLQAPM55sUfKAf3S+AYj58kyeRGiWYTt7UBnownDGq3B9fjRAtEIzgb2ecRhJfVX7hT+milGg/yjflUf+EOAzytLme3uGQJQPMWqt/ubfxBx9eNulelQzEnOQYnJQl9nYk1FygloWskSiY3STQdiWh6z2JYYhn8O1YgmiglTZHPzMhDeGkJXQmma98qNXSt0KZnoXumDuPCNkhXt9oUjmJOcniozCGEJEAxJzk8NBd8e/KRU14uF3Q/KeYkR4ItHkIIIZnCFg8hhJBMYcVDCCEkU3KWhIbTNUFT2zchSWq5iThR5qYwQshJkLMk1En58x2zks/1Ri4OQwt52mKllsnEizKTwwyNa1EIORXyl4QuP/E+K63MBmtwAekahlZH14hT3SfINyNW/h//ZTxdqVxWHrAkqaWhBVpA9tbMnmk5VpSZGAY0exbuBlL8zDLKMAnJjJwloUt8vs9QkmW2drZijM4D8NenurctAEnyzZBcdKgC6nDzNNm9NDUGtIjpuIlSy2YPYlhD548BwMCfTg1D4diVE0SZiWEAXBmoJT9EWKgJIVmSqyTU7mKTEdfYcdOmJHQd9d77sm/2HKvwrvLNJHbV1Ey7qBdawFBEVm6JUstmz6kgWsCwF1T7JIgyE8NWxXmBGAKtcOuGMkxCMiNHSegS86+lb+KBibmzRcLaxAWSnlj5pi2V7EhOpdRC9J4wYXZt8VTbeLHf8GvdeWmklkANqupuoxAsX5Qoc2PYqjh1u+ysZAjJjRwloaHdRxsyys4WCYEWEMd40pMk35x28fDmr5R66SShe4k5m+gJe2wlUPlskFrC0CCZt+j1/uJuIHnjVEmizKSwVbIFSOZ9dNkpwyQkM/6X/tQlPicTb+zGHGGEMuSGjHIorCw3cONWHsUr/Kx8YTIZYQYvnF1nx6CJnqWjLhVQcH9SdNtKXG3jvlaAVOj4zlegW8f+8rfHVq61AjTD3WisiZ71gbpUgJ0bFUPhVGaG5rRI7Kqh/TKEViigrtvjRO2/d754gDoUTv6TwuxK50G2IOIKW71GDUDftABuHEDIUaEy57tgaPZU49AU4weZHi4byjAJyQqaC74LzVuo4469q6VztJBiVtt3gDJMQjKFLR5CCCGZwhYPIYSQTGHFQ74Pzsy1c9sWh5BLI2dJqJfe6uAinj0xoO20Mn/XeBljaI55wFbxxE9/PnZ5ktK382aPpW2Zh9TlI+R82XI6tSMJfZ9gEQjzJKFlwK6E3j9RvrlC0ScJLbvnjmaYX7manCIqcQ44QqJQZEgAPgDUrreYDFBt40W0j5Ur/4XQfhFow4BWeNw++q7lI+RMyF8SugkuIF0nZBNwv4oNzdXk+LQ5vn4lQwsaCNyg5HjhL/vQ3zF5yYVAXlroewHJLZCEMsTdM5ePbn2HsieIXFOVkTJTct7kLAkFgCVmk5guOhLBFN3fPtmn8FxozZ7tKFOhYuhaBnxaHDvc3YpAx5sjEN0Ub5e8JEfbQzza7DnmBLtV4WUzJEEVQ6irSPa5wd/SlSHuntn00THvE91wEYVPELkmlY+QyyFXSahbKXmOtxJmk9BmcJSEhqji1x3QkXZoXfg3SZM6GOeVl700PDEYj+ir9ztYGDaUIfGeqT7fnQRZWXfDrbGvyJUyU3IB5CgJjUikzM3g0lBtv0AIgb/4vdadFo8BrfUGPbJFkHFe9tpq4fDEl2HbexZ0w8WfFidyJeR7kKMkNCLm5yw4VmT/yDGeGKrtFwhLh/L2EXppb/6CNjT/GMimeN7v0fGS8hJ58uFbPJIMpf+42jCuW4/OZ3K2kssQV3Y78A864xo2zgVIErmmgTJTcgn8+/dPuEdSuHTuAAAE0UlEQVQyCzF7fRbPz/7jXXxFhL1/hWLOXgPxvPAv8e5PLxzRjixen1/FbLEhe9+GoVABgdWhCN0KnmHpiheuDr2YqhdP0XWhQhXDFPH8vwfjbc5LlvjzqQ6HCfmEgKILK0UZ4u9ZOJ7/XiZdTwhh6UKJC9uIk7Y63HwqIScKlTmEnBWUmZLzh+YCQs4FykzJhcAWDyGEkExhi4cQQkimsOIhhBCSKVu42gD/9tdluQHZP+95+YnJZLZaGBrwr83NgPyzWLnBjX9FqD+8WMFNwGxw+ky7dUidMaAOU674J4SQ78sWYzyuJPQn8D7BouKveOYwR3OUG7JPEgr8dCWh/rDQ38vPCSZfP86usllnim79N/CXiwEJISSJnCWhS8y/SpCTKp2zWUBaxXUtJohiR0IIWbFlV1sMpRKK5hxzOJWPIwmtAHB9bEVzhNEIQFlG48apopZzfKGEH+YIo1VPW6gb7qxwXF1s8RBCSCw7TKe2x3mCXW1Ol5mrpC5XUFl8AT9vcFV0xoVKMhpyGXNzBHPhjOM440Kl1XiRvVdP6Yz35zG0AlpvOqx9FTCEEHKhHKbFA0cSeuX+NYc5KqHsl4Te+CShkwlm8yvIJQDFCiqrCqyMctnEfAGc44CPoRXweCsgennnhBBCTpd8JaGBsSAAmGM+DwlEz2aMB4i1E1PsSAghK7bc+nribfBmjjBCGXJDRjkUVpYbcIdx7L16vjCZjDCDF253pRVx9fNHTNgFUb1GDUCfA0CEELJNxWNPErjaOizcDbcWiJvYwBThJ8MUH29xYRJkBVBSbdZCCCGXDc0FB2DaraNQkNCpReyASbEjIYQEoCSUEEJIprDFQwghJFNY8RBCCMmUfCWhod+dwL29bZR2EkLI6ZK7JDTA3MRoXkZDXgvZAUo7CSHkFMlZEupnic/ZApVKqNLZeQEppZ2EEHKKHGaMp1RCcT7HqtPMkYTa2Gt8KosJRqOR3aKJ6kqbzzArVQ68eNSRdhJCCDkZ8pWEbkjzEFDaSQghp0W+klC3kpnPMEPF0+wcCEo7CSHk9MhXEuqeP5ujXImZybaXJJTSTkIIOTVyloTiaK2dRCjtJISQ3MhfElqW0UiqdHaWhFLaSQghp8hFmgso7SSEkNOFklBCCCGZcpEtHkIIIacLKx5CCCGZkq8kdFMYIYSQi2PL6dTvwM8bVN4nWATC5jAnC1QaDZ8k9BNlVxJqArIbhjnM0QzzKxnlxDBCCCGXSM6S0BQC0b0WkBJCCDk1DqPMKZVQNOeYw6l8HEloBYC7xqdojjAawV63460uTQgjhBByiRxmckHxCj8rC5ijkWOgLqGyahkt8TkZwYSMRqMBGSZGk09nLCgpzEv7phHT0iKEEHJ2HGxWW/HqBo1Gwz7kIhbLEop+Sajsk4Rihtl8QxghhJCL5AQkoUlh4BgPIYRcGDlLQjcIRAkhhFwcVOYQQgjJFJoLCCGEZAorHkIIIZnCiocQQkimsOIhhBCSKVtWPPaCz9FoBDO81mb5iYm7gDQ8/XluOr/bx8QfmBRvVwwNhULBPjTjAAkeAwNaQcM+uTM0u4z17vRguSKEkGOTvyQ0Nt6uTNF9eINuCbSrBrTCA7r/Ndd3Ij13pl08vOmwRBuXVjRCyGXzf0+y5w0k0rIgAAAAAElFTkSuQmCC;imageBorder=default;strokeWidth=1;" vertex="1" parent="1">
          <mxGeometry x="96.5" y="550" width="414" height="479" as="geometry" />
        </mxCell>
        <mxCell id="CYTgUcAEzpgQwukntkNr-5" value="" style="shape=image;verticalLabelPosition=bottom;labelBackgroundColor=default;verticalAlign=top;aspect=fixed;imageAspect=0;image=data:image/png,iVBORw0KGgoAAAANSUhEUgAAA4MAAADmCAYAAABvRlCOAAAgAElEQVR4nOydv4r6zvf/n58f37tQwa3nAoKFoP2UNiJs/8YpBcELEAYsI6/2hRBsLF5FegMWkgtIvcKafu8gvyJRo2smMf5Zd/f5gMPrtRnPmTN/EjPm5Mz/Pj4+IgD49+8ffN/Hnz9/cF8ktDeAFS4w6dlw71wbIYQQQgghhJDP/N/jq3QxbHEJSAghhBBCCCFfyf/7agcIIYQQQgghhDye2y4GhYKSN7XI+h5Z36P5Lu37Ln4SQgghhBByATddDMpXYPnACFDW9735Lu37Ln4SQgghhBByCbdbDAqF5vsSwc0MFq9PKAeep3HXhzdn2yehPQ/6tGKhoB0PnufB85zP5aXrO9TpOQqihNnPZLTh3jy6P887AamUed78yHGQUGrntYAq+NhT6t0Y3Plc+2a+EEIIIYR8Wz4+PqKPj4/o79+/0X///RcBKCVSqUiW1L2+PhEpR9+1/uLtk5F2dCRF8rdQkeNd7pu5PhlpR0Xigf393fvzVIRyIs/zIi/H1s8cBxkpJc78v4jc/1z7nr5QKBQKhUKhfD8p9mRQanieA5X1CEQoNLF83DYRz15fJfX/YIl1eOf6vhuP7s8zBHYPrVYfC5OtHzgO8VP0ATqdafJkLf6/k3lyE0IIIYSQn8pNwkRFu4aVfRJIdxLa5+zi36ROhXcJqOQz+5vRLL28+hLbzi6UMLF3HEKa1JcO7StZX2z3XJiai2FrCHf/8RfUtqvUgkLmhjzm9aejm6cNP9h0NA5dmfiYtHf/d1Jpdhvy/Dxf36mfX9mfB3vHcsmi51uPQwaB3UOrv8Bi0kKr1dr/v3fufLqEAuP+WcU8RmJ/Psc2mcSHEEIIIeTGXB8mKiN9JsxMaidS+9A+GSl9CKcTyom03JWpI32TXnZ9IlKOFzlaxp8VMtLezs5pKNlxaF+5+tL1msLUxJlwVifSUuzb7mhZoD9jPZUOldy3QURKp8IoT3w66muISH2q71wbTH6a63u+/jSJqb7vPQ5GkSpSqfNv//8r+ix/3C+VkxBcqSOvUJ9RKBQKhUKhUIrK1ZvOC9XE+5lUi+5sDT1yoNdzzGwX9vBQFthzQEvAdSHaOHr6YtIz1Qf4mA/dONFH4GLlD9B8AfIy2pSvLw8Bqdp4s+2DC6KNBtYY7x5zBTZ6ReoTbTS2c/R2hoINtqgfyiwLHcvDYK8QYiEABECwXKP6Gvc1ZBtY2QVcN/iZU9+z9WdZvvs45PKW/PuS+v8V5I17CYsYjiWU1hhVLVQqAPzV9Y4SQgghhJA9Vy4GJdpY4WyEWWBj2LMhhERbOxhhjt5wd3PtYgUNiTfUsYFdWM9QX1nuUp+AUi9Y7hYuQkLCjUMbtxvDvXrJ+sIF+j37vN3AxhwOlHCxaQLLojfpJj9z6nue/izLDxiHDIRyMO1UAHTQ2R/toLHoXxcqahz3EggFZ1TDej7D2B0ikBreaVQuIYQQQgi5iqsSyAjVzNiATUDp+P2oIHBhD8dYo3n0PpS7Apr6Fdi4hfWy6wMAC025e0lLoln1sdp/tIr6/v2tJqyb1JeFgNJtLG13f5Mu2vX4aU2wxLrahdr5ebK1QWZ9wQbbajf1Dlr30IZgiTU6eE3b1MfbHbirLRojp/jWHyY/jfU9V3/m84IasJ8b+xq//TgYTNo99BcLTFrxO4O7/1/3zmD++X4xLzVgu4LtBvH2MfXqNdYIIYQQQsgZrngyKNCuZT09CbDBCCOnE4d3IYS/GB8/AXRneO+2T+65TXqm+gBsfaA5gjeoxHqTXpJkJMByvcVo6qGDEP5iDb/SwUgt0bPL13d4wgLA8zDwJ2gNXUC+omNZ6HiH5y4IF+jbsS/2eA09msIbxPUt+r0C9bkYjutwMtpgjycHm6GPxXh4nAHTnWHdfcXmTNKWs20w+mmq75n600y6PmvqobNv+08Yh/sgtYfBbvXreRjsn0wWON8vxZ1h3Z3CixsHf7FGaA3gaaA1dA2+EEIIIYSQwpROICPVIWFEKblwf7Or67tQfnp9j5bv0r7v4ieFQqFQKBQKhXKl/O/j4yMCgH///sH3ffz58wf3RUJ7A1jhApOe/aP2cCOEEEIIIYSQ78LV2UQvx8WwxSUgIYQQQgghhHwlN9l0nhBCCCGEEELI94KLQUIIIYQQQgj5hXAxSAghhBBCCCG/kKdbDErtwfM8eJ6+cJ8yAeUkus6luoQQQgghhBDyuyi2GBQKqszqqoSeO2yh1epjEV6mJ/UUjXU/3kh7XcVAczlICCGEEEIIIVkUWAwKyNcGahebLqtXBomm5WOebOYd2HP4VhdKPKRyQgghhBBCCPl2mBeDQsHxphhYFViDOATz6IGbkNCp0Mz94itHT0gNx9uFgzrlnjqmkU1Y4Tve9gfe8B5WUHu50i4hhBBCCCGE/FDMi8HARq/VQn8Rwp+00Gq1MNxvESihR128z+PQzNb4HY1R8q5ejt5r9x3jVny8Ndmi02RIJyGEEEIIIYQ8kvIJZGQT1e0cthuHZiKwMV5Xkb+uczEcb9DWGo7jwRtYpV0ghBBCCCGEEFKOx2cTFQrOqAmsZhj3WmhN/Ottuiv4lRoOUaEvqFV8rFyDDiGEEEIIIYT8YgovBqv1+IVAISUEALgrbKupJC1C4rWx/bQA+6T3UgO2K9hugACAqFevbQMAFyvfQjdxRqguLH8FrgUJIYQQQggh5DyFFoPBcg10pvA8B224iANDXQzHa9RGSSKYURPv4+HRAuysnjvDujrYJ495xRqhNYCXZJiJ9xmcolOxMPA8eI5CkaSg7rCPdWMKz/MwbazRH3IpSAghhBBCCCFZ/O/j4yMCgH///sH3ffz58+erfSKEEEIIIYQQcmce/84gIYQQQgghhJAvh4tBQgghhBBCCPmFcDFICCGEEEIIIb8QLgYJIYQQQggh5BfCxeCdkapYNlRCCCGEEEIIeSQXLAYl9AVbPRAAUqPbqeHlq/0gZxBQTrItiqMhC6sp6J2e50AfKebZFJBKnRxP6XgHu6rQSVamvi+weVWflfGzrE1CCCGEkF/Gx8dH9PHxEf39+zf677//IgAGkZF2VCSMn6HEIiKlVKQcHcmv9kWoSMmv7o/n8kVqL3KUiABEQjmRp2UBPRlpR0dSHNrieIfxNdkUyok8z4s873Q+yEjr9DklIinF1W3Iru/RNsv3WVk/y9qkUCgUCoVC+W3CMNE7IVQbG3v51W4AEJCvDdS+2g0Az+OLRNPyMbcDAEBgz+Fb3WJP4yqp/wdLrMNiNgO7h1arj0WIT6xWNoLk/0K+AG7w+UMXtsFU32NtonSfxR/RZ56UmvSuGFtCCCGEkF/G/+V+QijoUQdWBQh9H1u8J4cdTDsVAD4m/RWaowGsCuBPFsCgAws+JhNgMLAQLiZYNwboVEL4PmBZFSBcoD8GRtMOKgix6PewbGfZ7GNWHyVlx4SLPsZIyh5k0867VxcS7Y0NGwIqfwxy+rOPoRsAQkInxxD6WIyHBz+yyoSCM+3E9+KWB28A+JMWhu738eUuyCas8B2z/YE3vIcV1F4AGMfWxbCVdvgFte0K9pU23b1JiXb9LbaH9DgcEy766G3K1XcPm2bu0GcmvZd7tIEQQggh5GeSsxgUUKMG3sctDHc39KO4JLB7aNkS2uui+1rHfPcZAHgDdHsJ1w2ApgZsF+6yjtqLjaELCKkxqi8RBAHmfg0YDuECQGCwiR5a9ql/h7L+5oE2c/pMtgE70+55jP0JCT3q4n2+W4wpOCONTW8I11QW2Oi1bAjl4HXTK7zweiZfnhcBqepYDS8caJNF1QSWh46JxyHjwyVfhLuHzeKU6DN3iNa3nyuEEEIIIc+JOUxUtNHYzg9PfYINtp8+tMV8aB9HtgUboNGGAOCugKYERBtYJTd1gTvEePMKx9Goz84tsM7YzOFrbJ5BttEEIKWElG3UUEVdSsjCYWpn/JRNVLdz2LuDgY3xuoqmzCm7mmfy5ZkQkKqNN9suNicKIfHaeMfyxz69ukefEUIIIYSQa7jTO4MuVtsa2kJANauoNiXaAN5SnwgAbLdA7eV2L/M8hU3XxtB24bouXHeJd2yxcd2LFqHkzrgr+JV0ltcX1Cr+/scKMwJKveDNTt7zE8lC/yqbAEQd1e2meCTjtfU9yiaAm/eZSe9ubSCEEEII+XmYF4PBBtvqIfmCUF1YBQ27K6AxGqG2GmNdHaCB5eFGVyjo+gzD4RCz+gi6+GOzbL6LzTK4q6NxgJB4bWz3N7+ZZSmqdZEUy+u2BnkmX0rjYuVb6CaOCtWF5a8KhQAr3cbSdg8JX9r15F20IjZfUANQP9No0W7g85t817Yhu77H2byyz84mkDHplR3beOsch5lmCCGEEPKL+N/Hx0cEAP/+/YPv+/jz58/xJ/aJP0L4izXQ6aCaTrCyw5+gdfQimIR26pj1bEA5aC/jxCv7BBbhAv3eBq/eABZOkrZk2jzPo232cjPIABASqt1Eo1EFtmvMZ+YQ1U+JPU79TCXy+Zy0xVCWlO/GcDHpwS6cQObrfbkfAsqZolNBMsZ2/lM5qeENTn4OOdLNtpnXp0I5mNbmheZmkTbkjuGjbF7RZwf96pnETSa9EmMLCe0NUC16fhNCCCGE/ADyF4OEEEIIIYQQQn4c3GeQEEIIIYQQQn4hXAwSQgghhBBCyC+Ei0FCCCGEEEII+YVwMUgIIYQQQgghvxAuBgkhhBBCCCHkF3LBYjDeh8tz1BftDfeNkBqO58HzPHiOBrcue0YElHMYI1lYTUHv9DwH+kgxz6aAVOrkeErHO9gtNmfK1PcFNq/qszJ+lrVJCCGEEPLL+Pj4iD4+PqK/f/9G//33XwTAIDLSjoqE8TO/XWSkPSdSIvlbqMjxdCS/0iehIiW/ul+eyxepvchRIgIQCeVEnpbFxtbRkcwYW5NNoZzI87zI+zQXZKR1+pwSkZTi6jZk1/dom+X7rKyfZW1SKBQKhUKh/DZhmOitEXVUwzWWu32rgyXW4Zc6BPnaQO0rXdjzLL5INC0f82Rz8cCew7e6xZ7GpfZcPx5bs83A7qHV6mNxZi6sVqmN3eUL4BbZ9Lx8fY+1idJ9Fn9En3lSatK7YmwJIYQQQn4Z/5f7CaGgRx1YFSD0fWzxnhx2MO1UAPiY9FdojgawKoA/WQCDDiz4mEyAwcBCuJhg3RigUwnh+4BlVYBwgf4YGE07qCDEot/Dsp1ls49ZfZSUHRMu+hgjKXuQTdt0rx7YGK8djDQwn9lw0UZtPYOd283Zfg7dABASOjmG0MdiPDz4kVUmFJxpJ74Xtzx4A8CftDB0v48vd0E2YYXvmO0PvOE9rKD2AsC4DnMxbKUdfkFtu4rH9gqb7t6kRLv+tp8rh3E4Jlz00duUq+8eNs3coc9Mei/3aAMhhBBCyM8kZzEooEYNvI9bGO5u6EdxSWD30LIltNdF97WO+e4zAPAG6PYSrhsATQ3YLtxlHbUXG0MXEFJjVF8iCALM/RowHMIFgMBgEz20MldUPfQ3D7SZQ7CcY92uozlyMMAa/V7+XaixPyGhR128z3eLMQVnpLHpDeGaygIbvZYNoRy8bnqFF17P5MvzIiBVHath3jL/AouqCSwPHROPQ8aHS74Idw+bxSnRZ+4QrW8/VwghhBBCnhNzmKhoo7GdH576BBtsP31oi/nQPo5sCzZAow0BwF0BTQmINrBKbuoCd4jx5hWOo1GfnVtgnbGZw9fYPIeEfgVs28aw10NrDIwuSrpzxk/ZRHU7h707GNgYr6toypyyq3kmX54JAanaeLPtgnOiCBKvjfdDePGP4x59RgghhBBCruFO7wy6WG1raAsB1ayi2pRoA3hLfSIAsN0CtZfbvczzFDZlE9X3VEsDG/NtA22+s/Q8uCv4lRpe9gdeUKv4+x8rzAgo9YI3O3nPT0hIca1NxO+abjfFIxmvre9RNgHcvM9MendrAyGEEELIz8O8GAw22FYPyReE6sIqaNhdAY3RCLXVGOvqAA0sDze6QkHXZxgOh5jVR9DyBiulZ7H59g50XrH/qFDoWltsrnni466OxgFC4rWx3d/8ZpalqNZFUiyv2xrkmXwpjYuVb6GbOCpUF5a/KvDESkDpNpa2e0j40q4n76IVsfmCGoD6mUaLdgOf3+S7tg3Z9T3O5pV9djaBjEmv7NjGW+c4ZzPNmMoIIYQQQr4vOe8MuhiO63CmHjoI4S/W8CsdjNTykGAFgOV5GPgTtNIvgrkrbLt1zNwAqIfYxb/tE1iEgLBf8NqpwMIUTr2fbzODR9vsmTLIBDbGE43R1MMAiJOo9PNDTNOJPT77GY+DHnnwUolZ3NyyxKXlGphO4XVCLCa9C5LZfL0v98Id9lF3pvA6iJME9Qo8OpKv6FgWOl7ncCxcoG/n2zzq06mHTsF5WLYNZeu7uc0r+qysn2VtEkIIIYT8Nv738fERAcC/f//g+z7+/Pnz1T4RQgghhBBCCLkz3GeQEEIIIYQQQn4hXAwSQgghhBBCyC+Ei0FCCCGEEEII+YVwMUgIIeT+CAV16z1HafNxPLq+Z+Knt/2nt48QYoSLQUII+fEIKK2+aCuXGPkKLG+c2JU2b2vzmep7Jn562396+wghZnIXg1J78DwPnqfBH44uQUAqxT57WgSUk8xt54K5LRT0Ts9zoI8UDTZNekab+e04O8/K2szVKzuvM/SkhuPddhyEcpLjO7uXLoLifQUv04t1Lhu7RxLAHi7RVl+0IBQKzffUXrO0eTOb8Xy/8/fzBW243z2DgNROyevkNdVmtf2HXCfuMT8fRkZ/XvWdSsgv5OPjI/r4+Ij+/v0b/ffffxGAMyIi5ehIni2jnIpQTuR5XuR5T9JnQkVKPoEfT+SL1F7kKHEYLy0L6MlIOzqS4tAWJzXG2TZNemab5eZZWZtmvbLzuqifQurIc1Qkrh0HVcRGkTpuYefZRERSqYdfl+5RJ20exvTe38+Xt6GkT4bvB6GcyFHJNVXqgtfse7f9+18nvuJ6cF8p/51KofxWYZjoHQjsHlqtPhbhV3sCAALytYHaV7sB4Hl8kWhaPuZ2/FtoYM/hW12oIj/vVlL/D5ZY78c4x2amXk6ZAeM8K2nTpFd2XmfqySaq6xnc5CfpwJ1hgQba6XGQGp7nfB6bsu379QRwbRtQGvJRjwiFQhNL3DQKjTZva/Mp6sv/fthuEi/cIVrDB/TAo/v60fzU9vH7gZCL+L+yikI5mHYqAHxM+is0RwNYFcCfLIBBBxZ8TCbAYGAhXEywbgzQqYTwfcCyKkC4QH8MjKYdVBBi0e9h2f4eNu07xFNk92cfQzcAhIROjiH0sRgPD35klQkFZ9qJr4uWB28A+JMW8r5Dn8mXuyCbsMJ3zPYH3vAeVlB7AcyxMi6GrbTDL6htV7BzbRr0DDYP43BMuOijZ5yEZW2a/Hwm8vys4VU78fl7yTkrFPSoA6sChL6PLd6Tw+bz4ai8NdzfWO2Phwv0ezaw+9ufJDeyEtr5fK7knn+Z7hefL649i98hHNp3Dw8T7RpWN75o0uYZm1LDGVioIIS/GGNo7+bmNpmXAsqZooN4PgbA0ZwHQoT+HL2Ti/JpfVJ7GFg+Fgug0Unqm4yNc3NvS2qMBlZyrx5iMenBdmH+fkiXIS47nEPI/M7JPo8meO8O0EGIsFJBJfThw4JV+XytONvX3+U6cfHY7uaHqV/O+3LaL5/qM47RFosJ0Dg7d7OvZ1n9mf/9kGoDQviT3tfchxDyTFwXJioj7TmRo9XhkTwQQahIJ+FyUid6QkU6Cf8QUu/D6fbl385mnpQJk8nwEzLSjhMpKfZ+O046zDCrLGmHcvZt+p6+3Fg+hSOKSDnehX6dhNsVtmkK0ysTwpc3z8qGBWbplQ1JO6O3C98Ru/qcyPOcSIlr/Ez+TocIFQrjEpFyUnV/0ss6H8z9cjzfRaT2oW0iUjoVyvRJP6++60QqfRe7n0Xur7G0eS+b8bXG0TKeryKeO0pkzKvUvJY6PedlpPTpuWKoT6Xqc07P23Pnw0lI5ZlQT9P3w/myvO+cjPNof70+nPef7We1/XtcJ0qNrbFfzL5k12cao9O5VPR6be7PdPnnkGon0mlfHhRuTKE8s9wgTHSL+dDG0Y+CwQZotCEAuCugKQHRBlbJry+BO8R48wrH0ajPhmdCFL6LzXtwxk/ZRHU7h72Pp7MxXlfRlDllP8qXZ0JAqjbebPvCOWHSK2uzbH330LuQwMZ4AXSnHjxvhCbW8C8ycM7POAxyP2eDJdanoadnTbXR2M4Pv3IHG2w/fejM+ZBDsFyjujsBZOriItpoWBYG012Sgyk6lSrqR35eXl8+cSIf2MMb282oTTXxvrzxkzHaPFPiYz5046d9gYuVn0Ql5ODO1qiNHGglIQIX9smTYmN9dqq+bZH6XAzHG7S1huN48AZWvoN5FPrOyTiPtpukrVtszjTxbNu/0XWi9Nhm9UuOL5n15Y5Rei6d68+ynPl+EG00sMYs5cvp01JCfiN3emfQxWpbQ1sIqGYV1aZEG8Bb6hMBgO0WqL0UfXHlu9gkT4+7gl+p4XDv8oJaxd9//5oRUOoFb/YuzErG717l2szQyy0rS1mb9/Alm8AeotdqodXqYbgEquEaxe6fM/wUCs4zZT4ObMwRvzsqmyfp28MF+q0WWnu5Twj6AQH1iEX+Hok2VjduE23e1GZgY9jrYbYE2tqBc5R28cb1CQVn1ARWM4x7LbQml/3081juMX4G7nGduMfYmnwx1vdoDN9j+8UuIWTH3RLIuCugMRqhthpjXR2ggVTqYqGg6zMMh0PM6iPogneb38VmzAtqwMkveCVxV9hWU8lIhMRrYxsvNExlKaqJI0LK61LLP5MvpXGx8i10E0eF6sLyVwVukAWUbmO5+xUTgGjXk/cMTTZNeqayIpybZ2VtFtErO68z/HR2acEF1KiD7fzkHbazCWQMfgYbbMP3/Q86Qr6igwILzGBzNHeF6uIGzy0AAO5qi8bIOU7fHiyxRgev+2uKgLzrPoC7Prv0HcE4dbtzNruSqSx+8nB+8zLavK1NALDQ3M0lIdGspn+IOjy9EaqZmteHvSeDwIU9HGON5v6HlOL1KXStAj+mvdSA7Qq2G8RbYtSrZz920fdDwe+cS8ls+7e5TlwzthkYfTHUd6cxysb0/bDEutqFSreBW4ARkp9AJn5ZPPnD8zA4fckZgOV5GKRf6AbiC0C3Hj+Or4fY3Y0dXpYGhP2C104FFqZw6n2MMfoWNs3JO1K6AKyph85pnXk6n/x0MRzXoUcevNQL2G5uWUywXAPTKbxO8sK+0ZPn8uVeuMM+6s4UXgfJi/sFvpnkKzqWhY7XORwLF+jbOTZNejk2TWTOs7I2c/TKzGuzXoDlOsR04MEbhPAX/WIv8hv9dDGcx3sXxvkBfEzGRRZA8dx1ph46COEv1vArHYzUMvcacpTo4Ow1ZoZ19xWbo+tGAHs8gR5N44QYqXPFfP6VJYA9fOTv4QLt2q2frNBmps2tDzRH8AZx0iR/0kuuuwGW6y1GZ+Z1zw6wwQgjp4PKLpnGYpxck/PakFVf9j1D4M6w7k7hxRMe/mKN0BrA09jP7/PfDxLaGySLrvhacUhokv2dk30eCaiuBVSq0BqwKhWESmHbqcCChnRnqGe2/btcJ8qMbV6/DDN9MddnGqMROpUK4Ci89ZZoJ4ldqsn8NJHZn8bvhwD2eH1owy7BmLEmQn4BxRLIUCgUCoVSUKS6MBEQbT7cZun6fvi+w4/ua7aPQqF8sfzv4+MjAoB///7B9338+fMHhBBCCCGnHJ78nab0J4QQ8h0pvc8gIYQQQn4X7rDFBSAhhPwg7pZAhhBCCCGEEELI88LFICGEEEIIIYT8QrgYJN8Kqe6Zfp8QQgghhJDfAxeDd4P719wcqdHtpDd2B3Z71XmeB8852WxcxlsMnC0DIJWTlDvQGXt7fUIo6F19noPjfXUNvpj0jDZzHTo/z8razNUrO68z9HLGqIyfQjnJ8Z3dS39AiPd7u0wv1vnSfZafkrx+KdPXhBBCCLkZ3Fri9iKUE3meF3nek6TfFipS8gn8uMoXESmlPqU0l9qLHCUO/a5lUiYj7ehIJim0hdSR56hIpMbIUTL+W6jISZVly7FNCBU5qTEu6suxntlmuXlW1qZZr+y8Lurn6RiVHgdVxEaROm5hh8K+plAoFArleYVPBu9AYPfQavWxCL/aEwAQkK8N1L7aDQDX+CJUGxt7eXJUomn5mCeb0wb2HL7VhRIAZBPV9Qxusm9t4M6wQANtEeu9draY2268GXlgo9crsjE5gErq/8ES6/0YG3wx6uWUGTDOs5I2TXpl53WmnnGMdp/R8DwHnx7clm0fIYQQQgjZY9xaQigH007l0/Fw0ccYo6TMx6S/QnM0gFUB/MkCGHRgwcdkAgwGFsLFBOvGAJ1KCN8HLOtSm33M6qMCvjzGZs8utGy4iENff/Zz6AaAkNDJMYQ+FuMh9m5klQkFZ9qJ75stD94A8CctDHPygj+TLzub7Y0NGwIqfVw2YYXvmO0PvOE9rKD28snCib06quE7oBx4nQqAEP5ijGHuuLoYttIOv6C2XcHO8yUw6Blsms4/8xwsa9Pk5zOR52cNr9pJrjMhFv0eCp2yQkGPOrAqQOj72OI9OWw+H47KU/uu7Y+HC/R7NrD725+gNXQBSGjn87mSe/4Z23D+/LuHL4fr52X9YurrmPO+EEIIIeQOXBcmKiPtOZGj1SFkC4ggVKSTcDmpk/AtoSJdKDwww+ZVcg+beSI+hTSW91NG2nEiJcW+fx0nHWaYVRaLUE7Bvn9GX0Qkldz//6hPP4UVikg5Xmx/FzoodjacyPOcSIlEz/Mivfczbqu6aG6ISCpVzBeTXuGysvOsjE2TXpl5naFnGqPSfiZ/p0NIC4Ugikg5qbo/6eVdQ873y/F8F4wno4wAACAASURBVJHSqbmsU6Gun/TLXLPM5999fCnTL6a+zvOFQqFQKBTKLeUGYaJbzIc2jn6wDjZAow0BwF0BTQmINrAqvFPtGZv38PMpOeOnbKK6ncPex9PZGK+raMqcsp/gi2yjCUBKCSnbqKGKupSQedkmAhvjBdCdevC8EZpYw0+XhwvMDvGJmC2Q/0Rxj4BUbbzZ9oWbL5v0ytosW9899C4kb4xyOednANdOzdlgifVp6OlZU200tvPDE6hgg+2nD11+DQmWa1R3J4BMXQRFGw3LwmC6S3QzRadSRf3Izwvryzn/7ufLhX6a+rqQL4QQQgi5FcYw0fK4WG012kKg3ayiCon2O3D6xhchubg2hvs/BOrdGjauG9/8Byv4gyZegOR9vxfUKv7+Hjewh+jtYgeFgtNYYxYAwDvCSi2ldwkCSr1gaSfvGAoJCReua/YlUy/IKytLWZv38CWb7DEq6ScUnGkN89OwxK8isDGHAyVcbJrAcpgqS0I2H/b71DP5YuKZfCGEEEJ+OHdLIOOugMZohNpqjHV1gAaWv+zL/QU14Da/aLsrbKupZCRC4rWxjRcaprIU1cQRIeV1KdyfyRe4WPkWukmFQnVh+atkERBv8xCntBdQow628+QGM1hiHVroqqT+DD8/I6B0G8td4hkAol1PVn85vmTqmcqKcG6elbVZRK/svM7wM2uMdpxNIGPwM9hgG77jbXdcvqKDNZZ5bQ82R3NXqC6sS5uYgbvaojFy0HxPXQODJdbo4HX/iFtA6iu3Vyhw/j3MFxOmvn60L4QQQsgv538fHx8RAPz79w++7+PPnz+FFD8lotgnItghoZ06ZkmygvYyP4lDvs3LuYfNe9SZq5NKuPA5aYuhLCmPk7eEWEx6sAsnkPl6Xw56EqrdRKNRBbZrzGf24amaM0WcB+b4icKhHecSxKSSVBRNMiI1vMHJEuGozgxfTHq5Ng1dkjVOZW3m6JU9l0x65jHa+VQ9Hp+89kkNZ2DFyYpCH5PxsNiTzdTc9BdroNNB9VwyqZN25/eLgHJesemdJlHJSfaSac/cBuP5d0Nf8vw0lmf0dc/OSVBFCCGEkJtSejFICCGEEEIIIeT7cqd3BgkhhNwWCe0NMsJXz2zfQAghhBCSAxeDhBDyLTjdX5EQQggh5DrulkCGEEIIIYQQQsjzwsUgIYQQQgghhPxCuBgkhBBCCCGEkF/IBYtBCe158Bzu+WQm3jvN89Jyuk8a+XpS4+RoyMJqCto5jKs+UsyzKSCVOjl+zXwpU98X2Lyqz8r4WdYmsLvO6VMlYxuuocwYEUIIIYTciI+Pj+jj4yP6+/dv9N9//0UADCIj7ahIGD/z20VGWqf7SERSiq/1SahIya/ul+fyRWovclQ8LkI5kadlsbF1dCTFoS2OpyNZwKZQTuR5XuSlPn/tfClX36Ntlu+zsn6WtVm2DWWl7BhRKBQKhUKh3EoYJnoHVqvUxufyBcV2vL4XAvK1gdoXenDgWXyRaFo+5slO1oE9h291iz2NS+2hjWCJdVjMZmD30Gr1sQjxiXLzpXx9j7WJ0n0Wf0SfeVJq0rtibEu1oTyl+5MQQggh5Ebkby0hFPSoA6sChL6PLd6Tww6mnQoAH5P+Cs3RAFYF8CcLYNCBBR+TCTAYWAgXE6wbA3QqIXwfsKwKEC7QHwOjaQcVhFj0e1i2s2z2MauPkrJjwkUfYyRlD7JpG+/VXbj77O8S7fob7NxONvVnH0M3AISETo4h9LEYDw9+ZJUJBWfaie9jLQ/eAPAnLQxzstM/ky93QTZhhe+Y7Q+84T2soPYCIGdsj1P7v6C2XcXje4XNrPlyGIdjwkUfvU25+u5h08wd+syk91K+DUfz/mjPPkMbYoegnWTOI4Q/6WHo5vS1+SJCCCGEEPIYzGGiIlKOE6l0eNRRmKiMtOdEjlaHEKrkczoJ05I6CYESKtJJeKCQeh/GtS/Ps5kjj7dZQF/pQ98Vkiw/ZaQdJ1K78EGhIsfZ+WMq2/nh7Pv+e/pyY5E68pzj0EzleBf6JSKp1KFthWyKSDnZ8+ii+XKD+h5i8+o+u9DPq8c2r30nbUiukTo95y8KS72mPykUCoVCoVCuE3OYqGijsZ0fnvoEG2w/fWiL+dA+jmwLNkCjDQHAXQFNCYg2sEp+XA/cIcabVziORn2W/gXeYDOHr7FpQuK18Y7lxQ8Azvgpm6hu57B3BwMb43UVTZlTdjXP5MszISBVG2+2feGcMFF2vnwX7tFnj+ZMG0QbDawxS8353pc87iaEEEIIuZw7vTPoYrWtoS0EVLOKalOiDeAt9YkAwHYL1F5ul2bzqWyKOqrbTfnoOnI/3BX8Sg0v+wMvqFX8/Y8VZgSUesGbnbznJySkuNYmLp8v19b3KJsAbt5nJr1HtwEAeJ4TQggh5JtiXgwGG2yrh+QLQnVhFTTsroDGaITaaox1dYAGlocbJqGg6zMMh0PM6iNoeYPF25PZFO0GPr8tVBJ3dTQOEBKvje3+5jezLEW1LpJied3WIM/kS2lcrHwL3cRRobqw/FWBJ1YCSrextN1Dwpd2PXkXrYjNF9QA1M80+vL5cl19j7N5ZZ+dTSBj0is7tiXbECyxrnah9teGS7eKuLQ/CSGEEEJux/8+Pj4iAPj37x9838efP3+OP7FP/BHCX6yBTgfVdIKVHf4EraPwKAnt1DHr2YBy0F7GiVf2SRXCBfq9DV69ASycJG3JtHmeR9sskvxBKAfT2rxQXUf1ZfmZSuTzOWmLoSwp343hYtKDXTiBzNf7cj8ElDNFp4JkjO38pztSwxuc/BxypJttM69PL50veW3IHcNH2byizw761TOJm0x6JcbW1L68NqTnfKEkUzn1EUIIIYQ8iPzFICGEEEIIIYSQHwf3GSSEEEIIIYSQXwgXg4QQQgghhBDyC+FikBBCCCGEEEJ+IVwMEkIIIYQQQsgvhItB8q2QSn3RdhSEEEIIIYT8LLgYvBuX7jdGcpEa3U56Q3Eg3kbAg+d58Bx93N9Sw/EyygBI5STlDrQquMQUCnpXn+dAHxk1+GLSM9rMdej8PCtrM1ev7LzO0MsZozJ+CuUkx3d2H/UDgoS+oD6pdz5mtTu2d9l8IIQQQgi5gI+Pj+jj4yP6+/dv9N9//0UAKFeKUE7keV7keTqST+APhIqUfAI/rvJFREqpSDnHfSq1FzlKHPpdy6RMRtrRkRTJmEgdeY6KRGqMHCXjv4WKnFRZthzbhFCRkxrjor4c65ltlptnZW2a9crO66J+no5R6XFQRWzcS2SkC7UhNa+dJ7lOUCgUCoVC+XXCJ4N3ILB7aLX6WIRf7QkACMjXBmpf7QaAa3wRqo2NvTw5KtG0fMyTHb4Dew7f6kIJALKJ6noGN9n8O3BnWKCBtoj1XjtbzG033jQ8sNEruDE5UnuEI1hivR9jgy9GvZwyA8Z5VtKmSa/svM7UM47R7jManufg04Pbsu0jhBBCCCF7/s9UKJSDaafy6Xi46GOMUVLmY9JfoTkawKoA/qSPWX1UQO/72uzZhZYNF3Ho689+Dt0AEBI6OYbQx2I8xN6NrDKh4Ew78X2z5cEbAP6khaH7fXzZ2WxvbNgQUOnjsgkrfMdsf+AN72EFtZdPFk7s1VEN3wHlwOtUAITwF2MMc8fVxbCVdvgFte0Kdp4vgUHPYNN0/pnnYFmbJj+fiTw/a3jVDqx4EmLR78E8tALKmaKDEGGlgkrow4cFq5LSNc55BT3qwKoAoe9ji/eDZakxGljJ2jXEYtKDXWDOH52DrSHSKkabKV+AEKE/R6/QSUYIIYSQX8l1YaIy0p4TOVodQraulu9iM0/KhH9l+Skj7TiRknEIYhzWmA4zzCqLRSgn0heHZj6LLyKSSu7/f9Snn8IKRaQcL7a/Cx0UOxtO5HlOpESi53mR3vsZt1VdNDdEJJUq5otJr3BZ2XlWxqZJr2xY4xk90xiV9jP5Ox1CWiRscz9+IlJO7MNhrprm9eHzn+s7CRmVOhU6XKQ/z5WZbUqd9kVGSn9lyCyFQqFQKJRnlxuEiW4xH9r7UK/b8F1s3oMzfsomqts57H08nY3xuoqmzCn7Cb7INpoApJSQso0aqqhLCZmXoSOwMV4A3akHzxuhiTX8dHm4wOwQn4jZAvlPFPcISNXGm23jsmcuJr2yNsvWdw+9C8kbo1zO+RnAtVNzNlhifRp6msV2k4QKb7EpOudFG43t/PCUMNhgu1d0MRxv0NYajuPBG1gXte48ZpvubI3ayIFWEiJwYQ8Lhj8TQggh5FfCdwbJc+PaGNouXNeF6y7xji02rhvf7Lsr+JV0dtEX1Co+VsnKILCH6LVaaLV6GC6BarjGMgDw9o6wcpqVtCgCSr3gzU5uskWyMM3xJVMvt6wsZW3ew5dsMseorJ9CwcnMzvlghIIzagKrGca9FlqTy5a6pWwGNoa9HmZLoK0dOExFSgghhBADXAzejRfUANRvcSPtrrCtppKRCInXxjZeaJjKUlQTR4SU16XZfyZf4GLlW+gmFQrVheWvkqdE8TYP8b2wgBp1sJ0nC4dgiXVooauS+jP8/IyA0m0sd4lnAIh2HfEfOb5k6pnKinBunpW1WUSv7LzO8DNrjHacTSBj8DPYYBu+4213XL6ig6ILzAxM8zrYHJUJ1cX+Wd1LDdiuYLsBAgCiXr3CiSI2BZSOt7UIAhf2cIw1ms+xMCaEEELIU/K/j4+PCAD+/fsH3/fx58+fQoqfElH4E7SuTFTwXWzeo85cnXRiCEMCi09lSXmcvKVYAotn8uWgJ6HaTTQaVWC7xny2CwVMkn9UAIQL9FNZQQ/tOJcgRkI7g32ijfwkI4gXJqehfkd1Zvhi0su1aeiSrHEqazNHr+y5ZNIzj9HOp+rx+OS1T2o4uwQroY/JeJgTHr4btxC+D1hWBeFigW2nA2uXwCVnzu/mtL9YA50Oqos+ejYO8yEpq3Y6qCTtl9rDUTMK9bXIsemgW62gsi8vkhiJEEIIIb+V0otBQgghhBBCCCHfF4aJEkIIIYQQQsgvhItBQgghhBBCCPmFcDFICCGEEEIIIb8QLgYJIYR8LUJB3TrtKW3+Tn5z28vyTH32aF+eqe2/GY7Dl8LFICGE/GoOW1J8FfIVWN44yTNt3tbmd+E3t70sz9Rnj/blmdr+m+E4fC25i0GpPXieB+9ZNnL+NghIpdhnT0u8x53nefCcC+a2UNA7Pc/B8Z7eBpsmPaPN/HacnWdlbebqlZ3XGXpSw/FuOw5COcnxnd1bLXQEpHZKjlNZJPRN23COAPZwibb6ogWhUGi+L4tvrUmbJWya5m48xx4zn+9MZn/e+jz6mX0WXzu/8F7vHufDDeq7X7+cnJfqdHaaztu876Nzc9503/PosvTHzo1DxjlW+n6pQF9ffG9z5355JB8fH9HHx0f09+/f6L///osAnBERKUdH8mwZ5VSEciLP8yLPe5I+EypS8gn8eCJfpPYiR4nDeGlZQE9G2tGRFIe2OKkxzrZp0jPbLDfPyto065Wd10X9FFJHnqMice04qCI2LhehnMhRyZhKXXDO3EJkpAv1y7UiIqnUw69Z96iTNo+Pfd3cfayY+/NR51FJ+aLvxuM++9p7vUdff4rXd59+kTo+L0VSh9ROpFNzwHTeFjunj+e86b7n0WXlxqH8/ZKpr8ve29y7Xx4pDBO9A4HdQ6vVxyL8ak8AQEC+NlD7ajcAPI8vEk3LxzzZjDuw5/CtLj79UHSO1D7gCJZY78c4x2amXk6ZAeM8K2nTpFd2XmfqySaq69l+Q/jAnWGBBtrpcZAanud8Hpuy7buS7SaJY3GHySbwP4kArm0DSkM+6hGhUGhiiZv2JG2etfmz5y7u058P44u+G5+pzx7ty1e3XSh0q2uMbRcv2oHnTdF9n+O9fvycyHTeXnZOm+5RHl123A8XjUOZ7/6cvi53b3Pnfnkw/1dWUSgH004FgI9Jf4XmaACrAviTBTDowIKPyQQYDCyEiwnWjQE6lRC+D1hWBQgX6I+B0bSDCkIs+j0s29/Dpn2HGIbs/uxj6AaAkNDJMYQ+FuPhwY+sMqHgTDvxuWN58AaAP2kh75rxTL7cBdmEFb5jtj/whvewgtoLYI4XcTFspR1+QW27gp1r06BnsHkYh2PCRR894yQsa9Pk5zOR52cNr9qJz99Lztkicxfx3IU/yf3yjft6i8UEaAwsVBDCX4wx3DljPI8U9KgDqwKEvo8t3lOWJbSToWf0pdhccu1Z/A7h0L57uJZo17C68QWVNlM2c+bu0bW+NdzfkGV/B0zw3h2ggxBhpYJK6MOHBasSYtGfozYdZH6nLvo9LF80RgMr8SfEYtKD7Rb4zikw58/2Z4nzaO9LuEC/ZwO7v5N+y+qzTzYRwp/0Ut9xGW0wfDde1y8l+wyIw/fPXLOEPD9+p30NhAj9OXr7xl8/fp9smq6fxnEwtT1H70y/7K7z8VwQUM4UHcRzJzC14aUGrGcIpMbofYzW6hUab0D9xXze5n0fZc150z3Ky4PL0peoM+OQfY7lffdnjJ+pr3PJmLv36M+HxUef4bowURlpz4kcrQ6PbZNHtzp5BCp1oifU4ZGs1PtHpPvyb2czT8qEFWT4CRlpx4mUFIdH4046zDCr7PAIXF8cfvJMvtxYPoUjikg53oV+nYTUFbZpCsUrE6aXN8/Khv5l6ZUNlzmjtwvxELv6nMjznEiJa/xM/k6HkRQOPb313I3nwD405cgXU30iUk6qH470RKR0KkzmDuFLUumTc/5eIvfXX9q8r03z3L3w+31/rTvM071943fqSZjmp9C2rO+cInP+XNvLn0fH/SUi9SmM65wPcX06fU7v9fLbkD1GZfrlmj7zIkfvrllx3XEfmsdP6nRfy0jpS65Z5+duts386+f5ccifL5njl9kvp+05Dc0834ZdmKdKzhOhdKSEiJQ6DgXNOm/PlxnmvOke5dFlBa5Zl9/bZI9fkb7OPKez5u5d++XxUvrJ4IEt5kP7+NexYAOM2hB2AHcFaAm81YFVsnwP3CHGUsNxgPV4eObJw3exeQ/O+CmbqG7nyS+BAAIb47WDVwm4MJRd/dTtmXx5JgSkauPNvvTJiUmvrM2y9d1D70ICG+OFxmjqYYAQ/mINH40LDJzzM4Cb/pUxWGKNEdrCRmBqjGleXzV3fcxtN/Yv2GCLen59b200tnP0dv6m9UQbDctCx/Iw2NcRYiFwg18V4/6Effq04z4I1cT7jdPH0eatR+7MdwAAbDcIALSxxSb+T4zxO9XFcCyhtMaoaqFSAeCv8usrMOfPtl2UP4+C5RrV3ckv24ebAhOijQbWGKfO6d6weBvMXNgvKNlnAAAf8+HumuVi5Q/Q3EW4GMbPna2hRw70eo6Z7cK+oO1ZvmTazLt+Zo3DzqWs+WLUy+qXM11YpA2bLeLp+I43CLQbwGbZRhNLs0ETpjn/hJS/Zp357jeMX1C2r43n2M/iBovBc7hYbTXaQqDdrKIKifY7jro9ALDdArUXAfNd2nezSZ4edwV/0MThOv6CWsXHqtA1SUCpFyx3FyEhIeHCzbWZoRfklZWlrM17+JJNYA/R291nCQWnscasUF0ZfkLBmdYw/xS+9YMIUyFIN0NAqfahP++ORBurG4fc0+Y9XmG4DMN3qlBwRjWs5zOM3SECqeE1C5o1zvmSbTfZDGzM4UAJF5smsBye+9AZkkXyxfWVJcumyKuvRJ/ljV9gY9izIYREWzsYIRXSWdYXk00TpnEw1WfUK0lWG97egSawQQdTrwbft9AZvaPfu9NJbLxHeXQZUP6alfXdj+zxu6avs+ZucK9++RrulkDGXQGN0Qi11Rjr6gANpNLGCgVdn2E4HGJWH0EXzFbwXWzGvKAGoH6LXxDcFbbV1AumQuK1sY0nj6ksRTVxREh5XWrtZ/KlNC5WvoVu4qhQXVj+qsDiQUDpNpa7Jz0ARLuenNEmmyY9U1kRzs2zsjaL6JWd1xl+OrvU0QJq1MF2fnLRPZtAxuBnsME2fMfb7rh8RQdrLPPaXnDu3gxTfcHmqEyoLqydXrDEGh287q9FAvLqPQJ3/XnpjWqc+ts5++a7qSz+Rfj8plK0eVubjyfzO/WlBmxXsN0g3sagXi1mMGfOZ7b9yvPIXW3RGDnFtzoIllhXu1Bpm7tU9QXP24u+G002y/YZAMBCc6cnJJrV5EbVOH6HvUqDwIU9HGONZqG2Z/tisGm8fhrGwVRfjl5mvwAAqvvvNqGah3lm7Bcbc3TRXPXRag0xHLbQn9fQvmafAdOcN96jPLqs7DXL9N1vOv+K9PWZexTj3L1Pv3wVuU8GpfYw2M0mz8Pg9KVqAJbnYXCaUMFdYdutY+YGQD3E7m7s8HI2IOwXvHYqsDCFU+9jjNG3sGlO3pHSBWBNPXQKJ5vI8tPFcFyHHnnwUi+xurllMcFyDUyn8DrJC99GT57Ll3vhDvuoO1N4HSS//BQ4FeUrOpaFjtc5HAsX6Ns5Nk16OTZNZM6zsjZz9MrMa7NegOU6xHTgwRuE8Bf9YgmFjH66GM7jvQvjd8h9TMZFFjmmuSuhvUHypRr7WiQpjVAjdCoVwFF46y3RTl5Cr6plnKwn5zxyph46u/DZSgcjtUTPDmCPJ9CjaZw44Mw5djkB7OEjHykJtGu3fopFm+dtmufuUWKh1LU++ztAQHUtoFKF1oBVqSBUCttOBRY0pDuEm/GdCneGdXcKL5648BdrhNYAngb6713Dd45pzpvafuV55M6w7r5ik5nc4rjPYj/XB5u75FW5bUhaeea70fxdbLJZts8AbH2gOYI3iBNw+ZNerGcYv9bQxQYjjJxOHD6aJFjJb7vJl8Bg03T9NI2Dub5sPUO/IMByvcUoY55ltwFwh2PUdcrmYoxhnJHOcN6aysxz3nTf89gy8xzMPMeM3/3m8cvua/M9ium8vUeffRnFEshQKBQKhXIDkerCJEG0+XCb30V+c9t/Qp892pdnavtvFo7D08n/Pj4+IgD49+8ffN/Hnz9/QAghJI/0L7SnnEs7TwghhBDyXNwpgQwhhPx0Tvc8IoQQQgj5XtwtgQwhhBBCCCGEkOeFi0FCCCGEEEII+YVwMUgIIYQQQgghv5ALFoPxPkeec+2eVr8AoaAdD57nwfOcZB818lzEe9x5ngfP0Sg8RMaxzbN5um/RiY53sJuxndiFbThX3xfYvKrPyvhZ1iYhhBBCyC/jsq0lZKQdFYknSIP6vCIj7ehI7tLmChU5no7kV/okVKTkV/fLc/kitRc5SkQAIqGcyNPy6rE12RTKiTzPi7xPc0FGWqfPKRFJKa5uQ3Z9j7ZZvs/K+lnWJoVCoVAoFMpvE4aJ3oNK6v/BEuvwyzwBICBfG6h9pQt7nsUXiablY57seBrYc/hWt9jTuMyxNdsM7B5arT4WZ+bCanXYFF3IF8AtsiN1+foeaxOl+yz+iD7zpNSkd8XYEkIIIYT8MvK3lhAKetSBVQFC38cW78lhB9NOBYCPSX+F5mgAqwL4kwUw6MCCj8kEGAwshIsJ1o0BOpUQvg9YVgUIF+iPgdG0gwpCLPo9LNtZNvuY1UdJ2THhoo8xkrIH2bSN9+qn6eZfUNuuYOd2c7afQzcAhIROjiH0sRgPD35klQkFZ9qJ78UtD94A8CctDHOy4T+TL3dBNmGF75jtD7zhPayg9gKg7NheYdPdm5Ro19/2c+UwDseEiz56m3L13cOmmTv0mUnvpZxNqT0MLB+LBdDoWKgghD8Zx/MdyJjXu30Gz1/r4muFhHY+nw+55xghhBBCyCMwh4mKSDlOpNIhXkdhojLSnhM5Wh3CwJLP6SRMS+okJEyoSCfhgULqfRjXvjzPZo483mYREZFU6rKQurN+ykg7TqR24YNCRY6z88dUlrRDOfu+Ly7P5MuNRerIc45DM5XjXejXydgWsiki5WTPI6H04Vy7SRvM9T3E5tV9dqGfpcc2/pyjZKwrkrksYJ7XxmudiJROhch+6rty1yUKhUKhUCiUW4k5TFS00djOD099gg22nz60xXxoH0e2BRug0YYA4K6ApgREG1glDwgCd4jx5hWOo1GfDfH54dAZmzl8jU0TAlK18WbbF+qd8VM2Ud3OYe8OBjbG6yqaMqfsap7Jl2ei7NiakHhtvGP5Yx8K3aPPbo2Pue3GDxADF6tt8kTRNK9N1zrRRsOyMJjukudM0alUUT8KWb38ukQIIYQQcivu9M6gi9W2hrYQUM0qqk2JNoC31CcCANstUHu53cs8z2NTQKkXvNnJu2BCQvKdpefBXcGv1PCyP/CCWsXf/1hhJmNsr7IJQNRR3W6KR2NeW9+jbAK4eZ+Z9O7WhkxnzNe6cIF+q4XWXvLCzAkhhBBCHod5MRhssK0eki8I1YVV0LC7AhqjEWqrMdbVARpYHm50hYKuzzAcDjGrj6BvsVJ6GpsCSrex3D1hACDa9SveuQLgro7GAULitbHd3/xmlqWoJo8jhJTXbQ3yTL6UxsXKt9BNHBWqC8tfFXhiZRrbIjZfUANOngzt7DTw+U2+a9uQXd/jbF7ZZ2cTyJj0yo4tAFhoyv3FDl3LLzSvM691wRJrdPC6v24ISM2teQghhBDyPPzv4+MjAoB///7B9338+fPn+BP7xB8h/MUa6HRQTSdY2eFP0DrKBiKhnTpmPRtQDtrL3nHihHCBfm+DV28ACydJWzJtnufRNnumn/alhjc4WTKHC/R7tnE9+Cmxx6mfqUQ+n5O2GMqS8t0YLiY92IUTyHy9L/dDQDlTdCooND4ACoxtts28PhXKwbQ2LzQ3i7QhdwwfZfOKPjvoV88kbjLplRhbCCjnFbVtNU5whRD+pHdIcGSc1+evdbHe+YRK5ceHEEIIIeR25C8GCSHkxxMvBje9S98NJoQQQgj5vnCfQULIr0fqKToVCwNP48flOyKEEEIIZHksggAAHfRJREFUySB/n0FCCPnhuMMWnwgSQggh5NfBJ4OEEEIIIYQQ8gvhYpAQQgghhBBCfiFcDJJvhVRMzU8IIYQQQsgt4GLwbghIpZiM4pZIjW4nvaE4EGeB9OB5HjznJPmH1HC8jDIAUjlJuQOtCi4xhYLe1ec50EdGDb6Y9Iw2cx06P8/K2szVKzuvM/RyxqiMn0I5yfGd3Wf/AUFCfws/CSGEEPLj+Pj4iD4+PqK/f/9G//33XwSAcqUI5USe50WepyP5BP5AqEjJJ/DjKl9EpJSKlHPcp1J7kaPEod+1TMpkpB0dSZGMidSR56hIpMbIUTL+W6jISZVly7FNCBU5qTEu6suxntlmuXlW1qZZr+y8Lurn6RiVHgdVxMaziYx0obZTKBQKhUKh3E74ZPAOBHYPrVYfi/CrPQEAAfnaQO2r3QBwjS9CtbGxlydHJZqWj3myw3dgz+FbXSgBQDZRXc/gJpt/B+4MCzTQFrHea2eLue3Gm5EHNnqFNiYHkNonHMES6/0YG3wx6uWUGTDOs5I2TXpl53WmnnGMdp/R8DwHnx7clm0fIYQQQgjZY9xaQigH007l0/Fw0ccYo6TMx6S/QnM0gFUB/MkCGHRgwcdkAgwGFsLFBOvGAJ1KCN8HLOtSm33M6qMCvjzGZs8utGy4iENff/Zz6AaAkNDJMYQ+FuMh9m5klQkFZ9qJ75stD94A8CctDHNy6D+TLzub7Y0NGwIqfVw2YYXvmO0PvOE9rKD28snCib06quE7oBx4nQqAEP5ijGHuuLoYttIOv6C2XcHO8yUw6Blsms4/8xwsa9Pk5zOR52cNr9pJrjMhFv0eCp2yQkGPOvHcRYjQn6M3dCG1h4HlY7EAGh0LFYTwJ+P4XAAASGgn43wwlaXqC30fW7xf0ymEEEIIIZdzXZiojLTnRI5Wh5AtIIJQkU7C5aROwreEinSh8MAMm1fJPWzmifgU0ljeTxlpx4mUFPv+dZx0mGFWWSxCOQX7/hl9EZFUcv//oz79FFYoIuV4sf1d6KDY2XAiz3MiJRI9z4v03s+4reqiuSEiqVQxX0x6hcvKzrMyNk16ZeZ1hp5pjEr7mfydDiEtGH4pdapuISOld3rxWB7CipN5nvitdCpk9aidOWVOur7iflIoFAqFQqHcSm4QJrrFfGjvQ70AAMEGaLQhALgroCkB0QZWhXd1PmPzHn4+JWf8lE1Ut3PY+3g6G+N1FU2ZU/YTfJFtNAFIKSFlGzVUUZcSMi/TRmBjvAC6Uw+eN0ITa/jp8nCB2SE+EbMF8p8o7hGQqo03275wo3KTXlmbZeu7h96F5I1RLuf8DODaqTkbLLE+DT3NwJ2tURs50EpCBC7sYTp02E+FFbtYbZOnvqKNhmVhMN0lrJmiU6miLgqUbeeHp4TBBtuL2k4IIYQQcj3GMNHyuFhtNdpCoN2sogqJ9jtw+sYXIbm4Nob7PwTq3Ro2rhvf/Acr+IMmXoDkpv0FtYq//9EhsIfo7WIHhYLTWGMWAMA7wkotpXcJAkq9YGknCwUhIeHCdc2+ZOoFeWVlKWvzHr5kkz1GJf2EgjOtYd4aXr6QDWwMezaEkGhrByPEYaK5hAv0z71zKnLKCCGEEEK+mLslkHFXQGM0Qm01xro6QAPLEjfe35kX1ID4KcC1uCtsq6lkJELitbGNFxqmshTVxBEh5XX3oc/kC1ysfAvdpEKhurD8VbIIiLd5iLccEFCjDrbz5KY8WGIdWuiqpP4MPz8joHQby90TIgCiXU9Wfzm+ZOqZyopwbp6VtVlEr+y8zvAza4x2nE0gY/Az2GAbvuNtd1y+ooM1loXaHm/tEAQu7OEYazRTW11YaO4eRwuFrpUs9IMl1ujgdf+oWkAmdsxlm6NzRagurDwXCSGEEEJuzP8+Pj4iAPj37x9838efP38KKX5KROFP0Dr6FV1CO3XMejagHLSX+Ukc8m1ezj1s3qPOXJ10cgtDIorPCSyQSt4SYjHpwS6cQObrfTnoSah2E41GFdiuMZ/Zh6dqzhRxHpjjpzCHdpxLEJNK7FE0yYjU8AYnt+xHdWb4YtLLtWnokqxxKmszR6/suWTSM4/Rzqfq8fjktU9qOAMrTlYU+piMh4WebErt4P+3d/cqyjN9GMCvB96zUMGt5wCChaD9lDaLsP3DTikEPABhwDJytw9CsLG4i/QOWEgOIPUurPZ7BnmLxBhd82H8WN29fjDc9xrnP5Nkoo4ZZ57rNdTiNrGrj4ByX9BY15NJafxxfzf5UZUJlaKdT64Ff74Cej3UrzRBFREREdExlTuDRES/Q9QZfO9XGHpKREREdMe4ziARUQ6pJ+jVLAyMxkXmZSIiIiK6E1eaQIaI6Gfw7A7vCBIREdGPxDuDREREREREvxA7g0RE9JiEgrr02F3GvJ1bl0dERF+wM0hERBXsluP4LvIFWFx4DC9jXjbmPZVHRERfFXYGpTYwxsBw8oQTCUileMzuVrTGnTEGxj2hbQsFvc1n3HiNvBIx8/Llxizej6PtrGrMwnxV23VGPqnhmsueB6Hc+PFt3Ot1WKKyfutrYwDHXqCrvqlDKBTaHxdev5Yxk2Vkrt6uT9iH630OEZDarfjaS0T0Q3x+foafn5/hf//9F/77778hgCNJhMrVoTy6jekwCeWGxpjQmDs5ZkKFSt5BPe6oLlKb0FVid760LJFPhtrVoRS7fXFT5zg7Zl6+/JjV2lnVmPn5qrbrsvUUUofGVaE49zyoMjEulb7ptfFOrqPtMZBK3fwYXKNMxtyd02u369P3oWKdcq4VodzQVfHrtNQl3weYmJiYflbiMNErCJw+Op1XzDffXRMAEJAvLTS+uxoA7qcuEm3Lxyxe3DtwZvCtZ6gytzdSa6cjWGCVnOOCmJn5CrblyG1nFWPm5avarjPzyTbqq2myIHzgTTFHC930eZAaxrhfz03V/fsR7uU62grgOQ6gNOStbhEKhTYWl53llTFvN2vuzcorvlbW73EtPBsdm2NWiej3qby0hFAuJr0aAB/j1yXawwGsGuCP58CgBws+xmNgMLCwmY+xag3Qq23g+4Bl1YDNHK8jYDjpoYYN5q99LLqPEdO56NicouP5CtsLACGh48ew8TEf2bt6ZG0TCu6kF31utgzMAPDHHRS9391TXa5CtmFtPjBNHnjDx6aGxhOQP2bJg91JV/gJjfUSTmHMnHw5MXfnYd9m/op+biOsGjOvnvekqJ4NvGg3un5PuWaFgh72oraLDTb+DH3bi4/ZGuOODQ8Cyp2ghzle+86uuUgNd2Chhg38+Qj2tsCMmJAaZmAB8DHuTNF0J+jVUuc2K1/hdSSh3cPrb1vnDTa1GmobHz4sWLXiY3NKG/ScafQbQtu57PDFY/XqNrC88AsxYx6JeaRdF14PWW03pzypDQaWj/kcaPXi8saj6P2mqO5SYziw4u+HNpiP+3A85F8r6W2ItsEf7zqDGe9j2e+NY3w8DypdY0RE3+68YaIy1MYNXa12Q7aAEEKFOh4uJ3WcT6hQx0M1hNTJcLpk+8PFLEpVhrRk1BMy1K4bKimSertuephh1rZ4P5Sb7NNj1uXC6ctwRBEq15xYr4OhcaVj5g2pqzLcrqidVR3Cl5Wv6vCxI/m2wzvFtjw3NMYNlTinnvHf6SGkpYaeIpQ6VbaQodLbfId1l6F209tM6GoZ/S2i62YbJzvmwbWQei0qypd9HYlQ6dTw2XS9k/YpQuVGsS99LUqlD14rrpXk3rFizGvEzGvXeddDcdvNLU+lynMPXwuOvfbsl31sqGdeOz++reh9LOO98QbXGBMTE9M10gWGia4xsx3sfYEXvAOtLgQAbwm0JSC6wDL+0i3wbIzeX+C6Gs2pfWSoyKPEvIYj9ZRt1NczOMl4OgejVR1tWbDtR9XlnghI1cWb45zYJvLyVY1Ztbxr5DtR4GA0B54nBsYM0cYK/kkBjtUzGrKYtNlggdXh0NMM3nSFxtCFVhIi8OCUvsPlY2Z70XMDD0s/viNcEDNwZtheHKKLvTslleoiumhZFgaT7WQbE/RqdTS3+75+j2Os8X7ZmUcglQIcGyVu5JxfmmrjY3HhO2OMeWRLdrvOU9R2c8tzUuWty5TnwR69o6s1XNfEd9vPVOp97Mh7I3DFa4yI6Hqu9JtBD8t1A10hoNp11NsSXQBvqWcEANZroPFU9kcmjxKT7p63hF9rYPc54wmNmp98CZBPQKknvDnbIVEy+p1UYcyMfIXbqqoa8xp1yRY4NvqdDjqdPuwFUN+sUO6zbkY9hYJbdcbBwIHd72O6ALrahXuJqQVzY3pYog0JgS7e9zveVeuymeO100EnSdceoiagbvHFQUKii+WF94kxLxozt+1euDyh4A7bwHKKUb+Dzvi0r5OIiOiK6wx6S6A1HKKxHGFVH6CF1BTSQkE3p7BtG9PmELrkp81HiRl5QgPYfSt/Dm+JdT01GYmQeGmto45G3raUelwRIeV508DfU10q87D0LTzHFRXqGZa/LPFhVkDpLhbbb68BiG4z/p1hXsy8fHnbyjjWzqrGLJOvarvOqKdr4uncBdSwh/Xs4A7Y0QlkcuoZvGO9+Ui+0BHyBT2U6WDu1swLAg+OPcIK7VSncneHTag29u8/WGhvXxuERLu+/RKgKGY8IkG/AO/p1lecDzhyHQULrNDDS/I6JSCvug7g9jyc+htBCW0M3KMzNuVti4798YXpGPOyMYHsdg1kXw/5bbd8eQrPVokv6J4awHoJxwuiJTGa9aNPO+k9p+T7GBHRT1E4gUz0w+74D2Mw2EQ/FEdqYgHLGAzSP74GohfU5yamXgA0N9h+Gkt+gL0BhPOEl14NFiZwm68YYfgQMfMn79ifdMGaGPQOyyzK86WeHuxRE3poYFI/aPcKt0WCxQqYTGB68Y/rc2tyX3W5Fs9+RdOdwPQQ3U3pl3inly/oWRZ6prd7bDPHq1MQMy9fQcw8me2sasyCfFXadX6+AIvVBpOBgRls4M9fy00olFtPD/YsWrswmr/Cx3hUprMS4B1DDN0eavHEF/58FLfPAIvVGsOJQQ8b+PMV/FoPQ7VA3wGw9oH2EGYQTVjjj/txm8+LGfOm+HjuHnw+Ls53/DoK4IzG0MNJNCFGcv0JqGcLqNWhNWDVatgohXWvBgsa0qs6BD6AY99yLJxAt3HpO2OMmRkzp11nXw95bbdoH7LKy/4cEnhTrJ4nMFGDhz9fYWMNYDSS16bj14qENoO4Exu9/uwmesl+H8t+b8y/xuDZJ58dIqKbKTeBDBMTExPT5ZMM1cUnBPmhSaoTJxdizJvHrFwe1zJmYmJi+q70z+fnZwgAf//+he/7+PPnD4iI6JriOxObOcb9W/3ejug+7e78+fGSFUREdCuV1xkkIqKqDtdKJPq9PLvDDiAR0Te52gQyREREREREdL/YGSQiIiIiIvqF2BmkhyLVNafKJyIiIiL6PdgZvBoBqVS1xa/pOKnx3Esv7A5s16ozxsC4B4uNy2iJgaPbAEjlxttd6Ix1uL4QCnpbnnGxvxZ4Tl3i7V/bRCqP2cUtV50q5X1DzLOOWZV6Vo1JRERE9MtwaYnLJ6Hc0BgTGnMnU2ULFSp5B/U4qy4iVEp9mX5cahO68dT8Qrmh0TLeJkPt6lDGU5kLqUPjqlCkzpGrZPS3UKGb2pad9mNCqNBNnePsuuS1CRlqnS5bhFKWW2qgWnm3jln9mFWtZ9WYd5fu6bplYmJiYmJi+pGJdwavIHD66HReMd98d00AQEC+tND47moAOKcuQnXx7iwOHpVoWz5m8SrGgTODbz1Hd9VkG/XVFF68wHHgTTFHC10R5XvprTFzvGgx8sBBv19mYXIgWsk8FiywSs5xTl2Q3yaWy13ZQj4hqXSu6uXdNiYqH7PoKfrIndK8fCViPoR7um6JiIjop8pdWkIoF5Ne7cvjm/krRhjG23yMX5doDwewaoA/ngODHiz4GI+BwcDCZj7GqjVAr7aB7wOWdWrMV0ybwxJ1uU3MvlOq23CS3bH+Wk/bCwAhoePHsPExH9lwdj2I49uEgjvpRZ/FLQMzAPxxB3bBHN73VJdtzO67AwcCKv24bMPafGCaPPCGj00NjacvEQ7iNVHffADKhenVAGzgz0ewC8/r4XIAT2isl3CK6pIb1oOXhJToNt+ieMi//vrv1cq7Rsx8Vzhmefmezjku63iNMwHlTtDDHK/JlwQS2v3arpPjuYmei+3f/hgd2yvIt8Z8DLQGFmrpNnjOtUJERER0ivOGicpQGzd0tdoNAwNCCBXqeJiW1PGQMKFCXWrIU0bMs9I1YhYl8WVIY/V6ylC7bqi2wweFCt0kdt62KAnlljz291gXEUolk//vHdODoZ/RdhPF3w5HFNsYbmiMGyoR5zMm1Ek9o31VJ7UNEUqlytWlZJsQSpevwwXKu0nMs4/ZifWsGvPLfslQJ3FEqHRqqOvBc/fbtAiVTrXXzHxRvfKGKle7bpmYmJiYmJiYyqcLDBNdY2Y7+yPbgneg1YUA4C2BtgREF1iW/mb7SMxr1PMuHamnbKO+nsFJxjw6GK3qaMuCbT+hLrKLNgApJaTsooE6mlJCFg37CxyM5sDzxMCYIdpYwU9v38wx3Y0hxXSO4juKCQGpunhznAsulCzx0vrA4u7bZ1XXOGY3IrpoWRYGk+0kOBP0anU0t8NnFyvUt41cpl7oCvIBfmqo8jvWt90rIiIiovxhotV5WK41ukKg266jDonuB3D4iy+iQp4DO/lDoPncwLvnRR2KYAl/0MZuBOATGjU/+SweODb6uzGXcFsrTAMA+MCm1kC10Y8CSj1h4cTDB4WEhAfPy69Lcdgm6uv38vU5t7xbxQRw8WOWm+9K+7BJDxk9EDiYwYUSHt7bwMIumY+IiIjom11tAhlvCbSGQzSWI6zqA7Sw+GUfiJ7QAFJ3Ac7gLbGupybBEBIvrXX0ATdvW0o9roiQ8rx1+u6pLvCw9C08xwUK9QzLX8Z3nqLlBaJlDATUsIf1LP5QHiyw2lh4VnH5GfX8SkDpLhbbuzkARLcZ9zry6rKV3SZEt4Wvv+Sruu/F5d0u5pnH7OgEMnn5yuxDlt1dO6HasLYPBwus0MNLcjtaQOr99S695RqtoYv2R+p1rkS+whpd7FohIiIi+uqfz8/PEAD+/v0L3/fx58+fUhm/TESRTJiwJaHdJqbxpArdRR9F83MUxzzdNWJeo8zCPEJBD3sZk7bkbIu3RxNSbDAf9+GUnkDm++uyyyehum20WnVgvcJsuh2+Gk/2UcOXuzC7/Tg2QUxqYg9sMH8tbp+QGmZg7T+2V2aZusQOjqlQLiaN2Ylts3p5N4t5xjHb5a8fOT95+QpiZu250hj2tpO5rIBeD/XthFF5kyYlZb7gvW/vdzwz8u1PPLNAN67v3gRVVa8VIiIiopIqdwaJiIiIiIjocXGdQSIiIiIiol+InUEiIiIiIqJfiJ1BIiIiIiKiX+iynUGhoC6yvh3L+5bybu1R9u9R6klEREREdIKLdgblC7C44Yx3LO+xPcr+PUo9iYiIiIhOcbnOoFD7a2xdW6o8oVwYo3HVmzdH909Cm+1advvP1a6BMQbGuF+3Vy5vV6ZxT1uvLFvGPlzbrY/n8UpAKpXfbn7keZBQu8UgoXjb88Clzy0RERHRnfr8/Aw/Pz/D//77L/z3339DAJWSVCqUFfOeX54IlauvWn75/ZOhdnUoRfy3UKFrTq9bfnky1K4KxQ2P96Mfz8MklBsaY0JTEOtnngcZKiWO/P+KSahQye/e79OO0WOeWyYmJiYmJiam8qncnUGpYYwLlfU1uVBoY4GbjaS79/JS63IjWGC1uXJ5j+bWx/OIwOmj03nFPC/WDzwP0V30AXq9SXynNfq/m3lxX6RUyJcWGlcsgYiIiIhOd5FhoqLbwNI5GEh3MLTP3Y5/kzp+TENCQMXPST6MZuUrKi+O7W6HEsbx9oeQxuWlh39VLC+Ka44MT/Vgd2x4ydOf0FgvUx0KWTjkseh4urp9uOO7mK7G7lDGdYz3N/k7LjR7H4rqeby8w3p+5/HcxdtPp3R6Hvo8ZAicPjqvc8zHHXQ6neT//WPX0wl1Ecm1F21LRp4KBddMMLBqsAbR9tJDYTPaktTRsVIqdb3L9M7nHZdybffruSUiIiL6gc4fJipDfWSYmdRuqJKhfTJUejfkSig31NshY0Lt5c/Ll12eCJVrQlfL6LlChtps4xwOId0f/lWtvHS5ecMMxZHhrG6opUj23dWyxPGM8qn0UMlkH0SodGoY5UGd9o41RKi+lHdsH/LqmV/e/R3PvJRX3mOfh9wkU0M2Sw/fzKvLwZBKqUNzsH/7+18uZbel+HpXqevdTV3vmcelYFvmuWViYmJiYmJi+pnpfziTUG18HJlq0ZuuoIcu9GqGqePBsXfbAmcGaAl4HkQXe3df8vLllQf4mNleNNFH4GHpD9B+AopmtKleXhEBqbp4c5xdFUQXLaww2t7mChz0y5QnumitZ+hvAwXvWKO522ZZ6FkGgyTDBnMBIACCxQr1l+hYQ3aBpVOi6jn1LCjv3o5nVY9+Hgq9xf8+pf5ftS7wYI8klNYY1i3UagD8ZYmg+fLbko+Zk7re1/H1jpzjUrQt69wSERER/VBndgYlulji6AizwIHddyCERFe7GGKGvr39cO1hCQ2JNzTxDqd0vpzyqrpKeQJKPWGx7bgICQkvGtq4fs/5rF6xvM0cr33neNzAwQwulPDw3gYWZTtLefUsKO9+jmdVP+A8ZBDKxaRXA9BDL3m0h9b8tXioaFZdhII7bGA1m2Lk2QikhrnEKMvctpQj67iIgm1EREREv8xZE8gI1c5YgE1A6ej3UUHgwbFHWKG993sobwm09Qvw7pXOl10eAFhob383JCTadR/L5Kl1NJPfb7VhXaS8LAJKd7HY3rUAILrN6G5NsMCq/gyV/L5pf2mDzPKCd6zrz6nfoD3v9iFYYIUeXtIx9f6U+N5yjdbQLb/0R149c8u7r+NZ7AkNIGkbSYkPfx5yQjp9vM7nGHei3wxu/1/YEcyry1MDWC/heEG01EuzfjREPT7QQsoSfa+i15D09a7wbMXXe95xyd2Wc26JiIiIfqgzJpAR6Day7p4EeEcLw2TyhyEaH9P9WRm9KT7qHwefufPy5ZUHYO0D7WGUb/IMzOw4X4DFao3WJJpo4gUf8Gs9DJU4q7xo0o8JejULg9RkIJAv6Fk9TFKTlkxa25F4AZzRCo3nSVJec+GUKM+DPVql9mG1tw/OaAxsY7ovaE4P7nx4U6ywzpi05cg+5NYzr7x7Op75trNqWjULvUl633/CebiGnLp4U6zqg2SilxessLEGqf2IhsmiN4ExLrrwStSz6DUkfb23sB7bpdpn9ra8c0tERET0Q1WeQEaq3WQLldKJ65udXd6J6aeXd+v0KPv3KPX81en664oyMTExMTExMf2G9M/n52cIAH///oXv+/jz5w+uS0KbAazNHON+ubs4RERbUhsMLADwMe7YfA0hIiIiqujs2URP58Hu8OMbEVXj2R12AImIiIgu4CKLzhMREREREdFjYWeQiIiIiIjoF2JnkIiIiIiI6Bcq7gwKBb2d3t3VkHszrQuo9DZ85zYiIiIiIiIqq6AzKKCGDSxH8QLVM2DwsuuCST1Ba/UabVvVMdDft42IiIiIiIjKK+gMPqFRq6O5/bMJ+B9v8R8SbcvHLF5AO3Bm8K1nRGs033obERERERERnaKgM+jB7vThPGkYYzDEEtO4MwbZhrX5wFvy3Dd8bGpoPH3DNiIiIiIiIjpJuQlkPBudTgej9zaGHJpJRERERET08E6aTTTwpljV25y4hYiIiIiI6MHldwaFgmsOZ+2soykAeEv4tQZ2ozSf0Kj5WHrfsI2IiIiIiIhOUnxncLP7r5AvaGGFRQAAHpa+hed4BhehnmH5S0R9s1tvIyIiIiIiolP88/n5GQLA379/4fs+/vz5s/8MqeEOLNQAYONj3LdTHTAB5U7QqwHYzPHadxB82zYiIiIiIiIqq7gzSERERERERD/OSRPIEBERERER0c/AziAREREREdEvxM4gERERERHRL3TZzqBQULdchJDlPbZH2b9HqectSA1jTJwOl52h7yWhk3NjoC95cnjeD1zxWBMREd3Q/y4ZTL4AC/uSEVneLcu7tUfZv0ep56344w5srulyhzzYnfjESA194eg872nXPdZERES38n8a/KTpTxb9nQAAAABJRU5ErkJggg==;" vertex="1" parent="1">
          <mxGeometry x="558" y="555" width="899" height="230" as="geometry" />
        </mxCell>
        <mxCell id="CYTgUcAEzpgQwukntkNr-8" value="" style="rounded=0;whiteSpace=wrap;html=1;strokeWidth=2;fillColor=none;strokeColor=#FFFFFF;" vertex="1" parent="1">
          <mxGeometry x="1220" y="670" width="210" height="30" as="geometry" />
        </mxCell>
        <mxCell id="CYTgUcAEzpgQwukntkNr-11" style="edgeStyle=orthogonalEdgeStyle;rounded=0;orthogonalLoop=1;jettySize=auto;html=1;strokeColor=#FF0000;strokeWidth=3;" edge="1" parent="1" source="CYTgUcAEzpgQwukntkNr-9" target="CYTgUcAEzpgQwukntkNr-8">
          <mxGeometry relative="1" as="geometry">
            <mxPoint x="1330" y="502" as="targetPoint" />
          </mxGeometry>
        </mxCell>
        <mxCell id="CYTgUcAEzpgQwukntkNr-9" value="" style="rounded=0;whiteSpace=wrap;html=1;strokeColor=#000000;strokeWidth=2;fillColor=none;" vertex="1" parent="1">
          <mxGeometry x="100" width="260" height="56" as="geometry" />
        </mxCell>
        <mxCell id="CYTgUcAEzpgQwukntkNr-15" value="&lt;font style=&quot;font-size: 20px;&quot;&gt;i2c1: i2c@1e000&lt;/font&gt;" style="text;html=1;strokeColor=none;fillColor=none;align=center;verticalAlign=middle;whiteSpace=wrap;rounded=0;strokeWidth=2;" vertex="1" parent="1">
          <mxGeometry x="760" y="320" width="230" height="30" as="geometry" />
        </mxCell>
        <mxCell id="CYTgUcAEzpgQwukntkNr-16" value="&lt;font style=&quot;font-size: 20px;&quot;&gt;cbus@ ffd00000&lt;/font&gt;" style="text;html=1;strokeColor=none;fillColor=none;align=center;verticalAlign=middle;whiteSpace=wrap;rounded=0;strokeWidth=2;" vertex="1" parent="1">
          <mxGeometry x="750" width="160" height="30" as="geometry" />
        </mxCell>
        <mxCell id="CYTgUcAEzpgQwukntkNr-18" value="" style="shape=image;verticalLabelPosition=bottom;labelBackgroundColor=default;verticalAlign=top;aspect=fixed;imageAspect=0;image=data:image/png,iVBORw0KGgoAAAANSUhEUgAAAaQAAAD7CAYAAAAl4+CjAAAgAElEQVR4nO3dL3Ta3sMG8If3/BTozBYBExkWAwJdZqpq60CC+brKupkgi5utqhnYIkAstkQsiGAbTex9Rf6HJAQKIdDncw7nbISb3ISNm5vc+6QkhBCIZWGtGig3ZUgATG0Go9JE86a8/VFTw8yU0JElACa0mQmpY5eDtYa6BH40b1CGhbW6BH78AJYqNtUOZCl+60RE9LX8X/KiMm6cxggAKpUyrM0m9pOWtUG5UrH/YpowJckrh7KEb/iAabnrbCKuTfNXtoY6U7G29toPIiK6cP/L+sHNxoIkBbszJrSZBhMAylU0m04rU6mgrJkw4TRKpgHDAqpHrDQREV2fUvIlO5+1VqF+fEOzeYPYzo2pYWZUvOXWWoVqOF0cqYrq5gP4EewZWVirvGRHRES+nT2knY0RAEgSJM2Aad3gpgyUb5ro3LgLTWizCqS0y3RERPTlpdxDytgYAfZ9o/K3mEbHwlrVsKlWkbkjxHtIRERfUkoPyYRhWAAMqDPDeU+C3JEhBe8fAc49JLfRsi/HeVfs5A6aXmsUXgZthpm3TiIi+soy3UMiIiI6tdRLdkRERHlhg0RERIXABomIiAqBDdKhViO0SyX0p+euyInkvX/XfjyJaKf0BslaQ53NMJvNMFPX8EdiW1irzvuzGWbRYdrBcmnLQuu8Es4Pa6lUQqk9wip7QYzadrnsP8pT9Et9XPVv+IUdz2nf3mZ7lL2mROQQiTbC+LsUH87fPpZv4q+xif/ox1K8Lb1PiuWbX05sDPH3ryE2+67zIulCafXExPnbpAfRUvSM5VpC0XWhtCB6k90lnC2IHvztXZ8LO566IlotRWSpIRFtO0O46o51Fn5irH/mXdo6m65hMH/GrfO3utzCQtNDn3DPoEulEkreqXsNg/kcg9phNfo3anvrzNYbsHsCo0A5/4w+bf/SyiHcm4nrJaxGaJfaCL99DceTiI4h8z2k+HBV+9Kb+vENP24C4aqm6U+adcJVs63zEtQwmAsIMUFvxyd1bYHe3a3392m/hC4mEELYr+fblNJZjTHUHu316Qren7Je1gqUExM0hg9OQ7Fr/8Lbw8sfZ3srjB5ecK8Lb//mmVqEazmeAHQNi8Z3HNgOEn15mdK+rbUKbVNFUw6+K0HudOw/mhpm6tpOayjf4EdVhTqbOR+rolre7lnFrxNA+QZNPwjvYq1GbXTfFejP7jtTvI5bUPRj/GgG9TBxf4hr39FYvEIHMvwoBsqhDrm1gJapYNL2avh5D9TrJbwoenxjVBtgLgaZ9iqq2MdzhVG7jmFjcqRGkehr2tlDyhyuarmX5Zxw1U7HfsllbKwKyoHCmTPyLtRq1Eb95R76fBD5IWvge2FPn1uQ659bQ20whxACv/EQuYT2OcU/nk4v7+71aPtM9BXlHq66c52Fv4eULvnH8xZ3vTGeijj6avoLw8XxftxrgzmErqD1/i98uSv2HlK6izqedXl7n4kos5QGyQlXtYzAEG43UNW/fzSbzULPQgoPCbefeeQ/9jxtnZdiin6phFKpizHG6IaGI0/xa7gAFkPUS9s36m+fJ2gM6zE34d0b+3UMF8C4G3eD/9icupdKKHWBiXAHD6TtXxq3nPOqv+D+d7QRSSt36ceTiD6L4apf0hT90ivuhD+CjY5gNUK7ruGRx5XoIExqKLRIr6MUN8T5mOWu3YmPS22Ax57dy+PEWKL9sYdERESFwB4SEREVAhskIiIqhPSJsdYaqmrYAagpjykHyqg2m/AG0wXLhZbtKEeFMu2X0B0DraSJrkRER5RyD8nCWjVQdrLnTG0Go9IMDOEOMDXMTAkdWYI9JNyE1HEy66w11CXwI27eUagcFcpqhPYD8Htr/g8R0WnkHK6aUs5787Inxh7dtI92v2+HlrZHGPWDoZ/RxyUE/j7toxSYhLoatTkXh4gKLVOWHZAUrupMai1X0WwGwlU1EyacRskJV63uKkeJFmNgIiZ4LXXxcq9DVx7w8G+F1Mkut88Qkz5Kv6YYPAO/ho3A5NcMdA2Lxh17R0SUmzOEqyaUcxdfSbjqUfXucAvgFT08DmrAKGO522fo/9oolRboTUTGxohBoUR0HmcJV00qR6fQQK/Xwvu/rBM1GRRKROeRe7jqznK8h7Snd7htzbTfxTi4aNpHXbvD8/Nv3L/U93vYHINCiShnKZfsnCBUGFBnhvOeBLkjQwreBwJSh4RLcgdNyV9ncjna3y3+U55Qr5cwBNBSFPSg2YumfSc01b7sNphP0C+V0OYQbiIqKEYHUTwGhRJRzpjUQPEYFEpEOWMPiYiICoE9JCIiKgQ2SET7WI3Q9pIyiOiY0hska+0/alxdwx+JHXxMuf2o8tAw7WC52CHcbvlLe3w5Xb1p34lYsh+Dnvn+mdNQlTI/8t0r6Dxu/VSNXDRe6gTrOPSYEUWkDPu2sF5uUO10vHDV5VpywlXLuGl24OUpmBpmhokbN1xV9cvZ4aprSIHh3dZ6CaMiQeJcIyqilow6gH8AGt8jQ+RrA8zFIFJghdGDhkdhp2FM+yU8jH5mGF6/wqj9APzWoTzU3QH7lyntmBFllH+4qrXG0qhATkr45sTY8wue7Tsv96x32m9jNE3oDUTK+Wf8KSGwzp9Ho/bWtuLWeb6zb78nsx1SW8Ng7g+Pr8stLDQ99IlpP+5x6TUM5nMcNC0s7biEloUnS4fqsWev7F/gO+IlSzqFzPeQ4sNV7cty6sc3/LgJhKuapn8pzglXtVlYLw1UZDk+uYEKYIp+/QX3uoAQAmLSA3qTwNn+AsMn4Lewl08aQ/yaxpTTFbx3/bTxdGMMtUe7nJigMXxwyq0wegisU4hsk3pjGtTMl9FunyHmA9ScCCU/zs+JVBIT9HasQtcW6N35s7em/RK6mHj78PmMwLTjEvkeIvW9ffbL2N9R1st5ge9IV/D+FDieiceMaD+5hqval+pkdNJaI4arFl7v0X9G0u2zE9o6fcW49wjhLqgN8Ngb4lUHdkeG9zDxfsXqkFsLaDqAWg0/74F6vYSXfRImYi+r5WM1aqP7rkB/dt+Z4nXcgqIf81c65bhEv4eoaR+lbrDPtKt59T/nfUe172gsXpHpqyXaQ47hqhbMD8tuvGbugAa7l6VxZEOB3OKut8Cw7vQsugg0FnlpQa7bf6oN5hBC4DceIpe7Unymh/QJq1Eb9Zd76FsPNWzg2LdVDjoumKLffYeS0HsiOrccw1XtgRBeQ9WRITm9rNDtJN5DOq/VCE/vCnT3sk7W6KC6jNb4yb9Etxrhaew3LKkhsEHTXxgutn/Aa4M5hK5kC3ytDTAXgUtTQjiXlE4nuTG6xV1vjKcT3fvaOi51Ga3xq3MZboVRO/lYp34PxzTt874TZSMSfYjl25t4C72W4iNu2V9DbLxyG2H89ZctP9LW764vYGOIv29/hbGJK0N5mPQggOCrJRTdX9abJBaMLSOEELrS8pa1FEX00BP2aiaiF9qW+37csvA68xWtCwRaitCTlqXth3cAdaG00splrUvyse5NJoFjHf5uw9/Dru1F9ydLOa9CogWI1vm+PLoQjA6isGkfpSc5dKY/7ZfwJJ8qJXyKfukVdwxxvWJT9O3oeQ54oFRMaqCw2zv0FkPUA/dfupjwkRW5mqIfvQe2NWT8Mra3GrVRKnXxruhsjGgn9pCIiKgQ2EMiIqJCYINExcdAU6IvIedw1Wi5GWachERXF2ga3VbWxIogBprS13OGcNUyqs0mblInNtGXw0DT/THQlK5M/uGqu3BiLHkuKNA0cXvRVbRRKmXvMR0caLoaob3HdoiKIFOWHZAUruo8z6hcRbMZCFfVTJhwGiUnXLXqlbNgqDMYANhbIgB2OKfTsgzmwUGfdljnwJmrlCY50PRYY439QNN5TGOWZXtemoPImhoxxlBz1rkaof0wwurWKZt4zIguV67hqrGX+lQN5U4g/ZvhqrSnswea7tyenQ04bCkx0UJpPhFoesaAWaJD5RiumlDu4KoTFSnQNG17LShKD1ho0JM+QkR5hqvGrd8I32+y3+Q9JMqkMIGmWbb38xliAnQ//TjxjJz7XRx9R5ck5ZKdCcOwABhQZ4bzngS5I0MK3j8CnHtIbqNlYa2q3kP5JLmDpuSvM1ROktFJenIskZOB5iZSj0tjwLvsNcWv4QLAAvXS0PlEDxMnE+/2eYLXUh3+oonzYLwVRu06hgvn/W4J40C5rHUBWlD0eeC5UEnbC7h9hpjYyde9U+e61b6jAWCs8alFdDkYHUR0leyG9+X+VKG4RMfHpAYiANcUaGpPmmVjRJeHPSQiIioE9pCIiKgQ2CBR8V1DuOo17APRieUcruowNb9saL1UHMHYnlPdR3HtCBK9BEUKiGXwKl2o3MNVvblNHTl9bhOd1/QXho0JxLwAj/m8lNSBIgXEMniVLlDO4aoWzI8K5LSJtpwYWwirf+9oyfXIu9GeTPDv9p9HgTDQLOGj9ntdjDFGd6s3lhauiq2wU7+nsLsu+SlYQCzA4FUqrMz3kOLDVe3LburHN/y4CYSrmqY/+dUJVwUAWCY+UIGl+Zf7VLY8hbJyfsTrwwUWw7rzY5j1x2uMofYIIQSErgAvf7xLUH74qLBfzqzQ22cBISbooYdJZJkbrmovj5qiX7fDTt3tvXeD9UyuS8rOhxq4vS6j3T5DzAeoOXX2J72m7UNYckBs9LgcWheiYss5XBWAZWBT7aAjA3ajtsRaCiR+M1z1rGqDOcTAbpge8HvPeSxJYaAnCDudvmLce4Rwq1cb4LE3xKsXTHBAMOkZLw3mExDruJRLoPTl5B+uWq6i6nW0JEiShYQrgXRVjh92enSf6SF9arP5BcQSFVm+4apbD+szYZpluLefnI3yHlKhveOf8ws97Qez3dJkCTv115tJXUZr/ORfoluN8DRuYeu21z5qA8zdy2Pua6/HRezvLAGxDF6lgkppkJxwVcsIDOF2g1H9+0ez2QwzoxIJV/WHfG+qHWdkHgCUcfPjGz5Uf32Q+YC+y3GL/xRgWLd7D0+ysvO+iFfyeYKGd08qOow8vF5/mRuvExj04PZYagPMJw2/TP0F9/onbvSfTMo+uAGxiyHqpe2BD8nHzB0oYYfEjrsJgz6SOMGr0QEUROfG6CCiL4fBq1RMTGog+koYvEoFxh4SEREVAntIRERUCGyQaH8MCiWiE0ifGGutoaqGHX6a8phyoIxqMzBaLlguuMzUMNPM8DZC66Xzm6JfesXdzkd6F1nwMeXRx5OnLSOic0q5h2RhrRooO3l2pjaDUWkGhnAHmBpmpoSOG646MyF15EC4KvAjrtEJlaNiuIYGyZW2L9e0n0TXIedw1VAprI0NqtVIY8SJsYXwLzaYND3sNBQEGr2kF0lByDYpMy0kNS3o9RQ+FyzLQFOi3fINVw0yDRiVKifFFlIgmFRM0Bg+OD+k6UGhdlBqMOzU/cFeYfQQCEIVYo8hx0l1KZpLqSdRcWVqkNxw1XBnxg5X7XQ66FQ3UN0H7ZVv8KO68ZMczAqqcZFChhlp4BzlGzQ7TG84r0AwKeqQWwtkmtQ/7fs9pPoQC29BDT/v7SSGuJ7RKtCz2O55HViXA6XXJc2OetYGmIsiJkkQFUf+4aqA3TtCtIGj4sqSETdFv/sOxesFhXtRtcEcQgj8xsNWdJC7zH7tuqfzyby6HfarS5rT1pPoGuUbruq+Z5iQqgnr5D2kYpn+wnCxf+p0UvBqbTCH0BW03v/tn6K9VZdDgl4/I+P24o4ZA02JdhOJPsTy7U28hV5L8RG37K8hNl65jTD++suWH9HVLiOfj9gY4u/bX2EkfoBOayJ6gID36olJ4jIItBShu0t7/vstRRE9r2y0XEsoesym96qLELrSyri9YD3T9yFN9u2F6xnal972EiKyMTqICuxShmZnqScDTYl2YVID0akx0JQoE/aQiIioENhDIiKiQmCDRMfF4FUiOlC+4arAVsBquZqQj0cFcSkDC6KKVO+kuhSpjsHQWQBoQSnkI+HpmqX0kCyslxtUnQmucsXA0pscVMZNsxOY/FqBYbiNjAlN9ct1mt/wsXRSHGBC0+AnPHRkVAwDZuz26SLVBpgLgefz/8LSDtN+sCfrxkI5r0kDw1/T0Gc5h4pOLedw1QoqZROG27CZJsxyBZXQyjgx9uxCQajhCaDTfhujaWB5e+RMcE0JXl2N0A69Z3/W/zGcop8Uypq5nv4Pph3y2sUYY3Td5f3gj2vSPqTVZUeAaqQu7vJddQHCQbb5XOq0j/+TrCeeOKz+vaMViJq4fdZx/1LfqrtfgOGx9Hk5h6vaPavqRnVy7iR0+CykgpmiXw8GoUaDVBcYPgG/nTPpSWMI+0Q6JXi19hP3LT/lAKs/eIGC/24B+8fxFXfC3x66WTLkkgNb7ZDXCXroYeKuN/TLm7QPu+oSCFDVFeDlj9OQRY7ZpAf0JpgPahnqEl7n+9Nod4JFTOMXblTTTNFPHILuN8b1l3v8Di23v19dftoz448ou5zDVS2s1Rk0yPZlQGiYueVcDFc9r+krxr3H1HsHvccB3MW3z1kuz9nhqi9/nL7Unxfg/qe9jtUfvCwCvYdSF+NARE9y2Gl6YOsusfuwoy6hANXadzQWGj6f83rAOp3LoiL4mvv7k2g1QrvUBSZJaeu3eHbX96ihHtPI1QZziAnQjfaGGB5LR5BvuKpl4sOSIDsP5JPkJqowYPAm0tWrDR7RePmDFVb489LAY/CXq6VAD/3A+j9saWGnaYGtB0upS7Jb3PUWGNadhqyLQPL3CRzaQ6oNMLdbk92N+O0deosX/Nl6rFPb3j82PnQCZwhX3cCy/D9vrDIqwZtIvId0XnUZrfGr/xyj9rFCS29x13jBn+kfvDTu/Ial9h2NhXvJ7DDJga3B3k2WFR1Yl9UIT+/Bhixu1NyedUlzaA8JgN0Lsu8HpTZK01eMW/f4GVjptF9CXXuM3z+Gx9IRpDRIJgzDAiwDqnv5baY594b8+0ez2QwzoxIZEu4uU7Gpdvxh3eUb/KgChuqvDzIvzxVKbYDfyrtz2aoO7TH+YXzb3PsPgRv4kbP227sGht0hGnfBn7NbPOsK3rv73g8JDz4o1V9w/zv4o3yL/xT4vZZMvacD61Ib4LExRD3Uawle0jqkLqdk3w961OqJA0tKTzL0QCM37duDIERSz6/2HQ0Ai1M+rIquHqODiD5r2k/8Af862XUMj6XPY1ID0Wfd3qG3CPeQuph8nR9mhsfSkbCHREREhcAeEhERFQIbJCIiKoT8w1XTllGs1aiN+nAB9CbJo5yIiC5cyj0kC2vVQNnJszO1GYxKQjK3qdkxQLIEe0i4Canj5OBZa6hL4EfzBuXUZZRuhVH7AfjNCYlEdJ3yDVdNDV51V8aJsfFq+N5IWMRgSyK6AvmGq6YGr9JuC3DeIRFdq0zDvndGCJlaKK3BWqtQ3ZZGqqK6+QB+2PeK0pbRbtN+Cd13JTQJk4joGqQPasAe4aqaAdO6wU3ZCVe9cRea0GYVL+cubRmlm/ZLeL0TEM/nrgkR0fGdIVx1xzLeQ0rRQuCZaT4GWxLRFUjpITnhqjCgzgznPQlyR4YEE5oXtIrUIeGS3EHTa3HSltHBnGDLsaYDvJBHRBeK0UEXI23YN4MtiejyManhAthPTa1j2Ih5kiuDLYnoSrCHREREhcAeEhERFQIbJCIiKoQDw1W9Dzij5tzRdzHlrjBclWGnRETH96lwVWutQt1UIJnwA1OdIeGQO5AlOA3QBtXAcPH4ZZeGYadERMd0eLiqtcbSqECWI02JacIsV1F13rbMD1gwYZo7lgXWexkTYxl2SkR0TAeGq1pYLw1U5O2ejWVtgEoZZdi9KvXjm98ApSy7TAw7JSI6lkwNkrVWoW0CPZv1EkZFRrRz5CpXgLVqX+LrRO47pS2zP3CDZucy7ivdPgvcvZZQao8Q6gzVBpgLXsojItrHAeGqFswPC7A0zGb+58zZDJLcgVyuwNI0bLxYIAvWBoAElFOWXSKGnRIRHU9qgxQfrlrGTbMDL7A7+hRYSJCwgfu8PpgGDFSdBihtmbdRqOoHvl3E6LuUsNP6EFCYnkBElNWB4appJMhNC6o6g+GVcRu0tGVXhGGnRER7Y3TQwRh2SkR0TExqOADDTomIjo89JCIiKgT2kIiIqBDYIBERUSHkH64aeIy55GbaERHRl5fSQ7KwXm5Q7XTQ6XQgVwwsIwFzdmKDFBkGbkJTDVRku1yn+Q0fqgbTXae6BH40Ub26sd5ERPQZ+YarooybXRNeLyZclYiIjinXcFUiIqIkuYer7nRB4apERHQ8uYarEhERJck5XDWDiwpXJSKiY8k5XNUf8g0A0GaYZVonERFdO0YHERFRITCpgYiICoENEhERFQIbJCIiKgQ2SIdajdAuldCfnrsiJ8L9K4ZLqWeR8JhdrPQGyVpDnc0wm80wU9fYTvOxsFZnmM3crLqYctEYoJ3rvHDOf4ZSqYRSe4RV9oIYte1y2f8jTdEv9XG9/+/8Y1K66P08wfd08f/O+N0CwLRvH4P2KPs3eM3yD1fdsc6LURtgLgSeb4NvrjB60PAoBIQQmDSGeMj0D819HLoOpXWi+u4rdv9yrwQGcwEhJugdfdVF2L8MrvbfGb9brEZ4elegC8GnSzvOEK6ask5nvcUOV007s6thMH+G+/+gLrew0PTQJ9wzolKphJJ3ilrDYD7ffhx6Rv9GbW+d2c567bO6UaCcf4aWtn9p5RA+a9/nrO+gcjvqkryxA/dv97JpZD1TuN93F2OM0d363oP730a4+tfw7wz8bmkvZw1XDa/zUmQ/s9O1BXp3/mnatF9CFxMI58xWHOUUboyh9mivT1fw/pT18k2gnJigMXxwfhB37V94e3j542xvhdHDC+514e1ftrO+Q8ul7UOaQ/fvsO3dPrvb6mGy1/d+Df/O+N2m0jUsGt/BvpHvbOGq0XX6ha8jXHU1aqP7ruA/79/nFK/jFpT/jn0doYeJ+5+g9h2NhQY9vcB2OdQhtxbQMhVM2l4NP++BYX3f6+GHlovUZa99yLjOreN5iu3BucR0WM+l2P/O+N3Gc3pyr3dHOlm4HjsbpMRwVVNzBi1oMGFCm82gmUC5XIFlaNhUO2jelOGFq6au87qsRm3UX+6hzweRs58Gvhf2dKgFuf65NdQGcwgh8BsPe12+OLTcts/vQ7G3F3YJ/8743cZxenJ3r7zEF5HaIKWFq3Y67kuGBAlyx3kcuSRBQnkrXNXvXe1ojAp/Dyld8o/ELe56YzwVcTTN9BeGi+P9iNUGcwhdQev93x6jvw4vB+Do+7D/9t7xz6n0tN/FeKuAv3xL7D2kdJf27+zLfrdp6vJhx+OaiUQfYvn2Jt5Cr6X4iP1c5P2NIf7Glsmwzo0h/r79FcYmuWbnNRE9QCD4ailCT1qGnpgkle25S3ShtNLKpdUluv6s5TLWcWv/krYXLdcSir6zIjvK7XOss+z3MfcvvD1daXnLWoqy9T0El/vfu7dQtLaO1zX+O/uC320aXREtr34khBAMV/2SpuiXXnEn/JFalyfvfbiGY3Ypvsh3uxqhXdfwyH9THiY1FNoU/cCQ2dAr9drzoeVOIe+6FGnfL8Wl/Du7su+2NsBjzx4yzomxNvaQiIioENhDIiKiQmCDREREhZDyCHPYQ7BVww5ALVdjhmq7jySPPIY8WA5lVJvuRNfII8xDy6hopv0SumOgpejM2iKik0u5h2RhrRooO9lzpmYnLzQDrYe1VqFuKpBMQPIaJBPaTANkZ16StYaqblDtbMcMwdQwMyV0kiIf6HxWI7QfgN9b81yIiE4j53DVMMvaoOzNoPXXe8kTY49u2ke737cDKtsjjPrBcMvk4EdM+ygFJluuRu0Lj/knomt3hnBVO2ZoNrOX/eD1up0WY+BRTNBbDPEi69CVFt53TQ2/fYaYNDD8NQUwxa9hA5N95jsw+JGIcnaGcFU7ZqjT6aBT3UCNPqTvSsJVj6p35zQkPTzucy/n9hm6/IRSqQtMsjZGDH4kovM4S7iqR5IgWR8weXnuhBro9TL0qDwMfiSi88g9XDXENGGWv0EK9oZ4D2lPKcGP0z7q2h2en3/j/qW+xyOrweBHIspdyrBvE4ZhATCgzgznvcjw7lgS5KYFVZ3B8Mq4DZo9As8b3xA7lJyyu8V/yhPq9RKGAFqKgh40e9G0j1IXmAj7sttgPkG/VEKbQ7iJqKAYHUTxGPxIRDljUgPFY/AjEeWMPSQiIioE9pCIiKgQ2CAREVEhpDdI1hqqk6owi05gtT+AterORUooFzuEO6Ec0blN+07Ekj1BOHz/zJk07D0Yzo1m2n5wnD/EPlom8jC51ciOhYqWW43Qbo8Cw+7t9WQauh9cZ2gd4fpsrSt13w907cczbdkpjueVS2mQLKyXG1Sd+UZyxcAy0rLYiQ1SZBi4CU01UJGdeUrNb/hQww1PfDmigmjJqDt/bHx3h8ivMGrXMWxMIIRwXnP4I+h7mLjv6wreu+6PqzPRWEzQcz/jJWBM0a+/4F6PK3eoFUYPGh6dukwaQzx4K1xh1H4AfutQWvvs+ydd8/FMXJa275Qk/3DVpHKB9XJi7JlFzjJLgZF2034bo2nCWWHS2WlaCKzz59GovbWtuHWe7Sxz+gtDKNCzxCnVfuK+tYCmp39sNXrCuPfo/wjXBvitAC9/PrOPNQzm/lD9utzCwqtIDYN58Ef/jK7meCYty2A1Qrv02QbzuuQcrppcjooicpY56QG9SWAy7QLDJ+B34Kzw1zSm3F5np2MMtUfnLHmCxvDBKbfC6CGwTiGyTeqNaVC3L10luH2GmA9Qc87E3d/L1b93wAmbXXmNZ8L+rf7gZdHD3Y7fWl1boBf5UO17w/9RWwxR9/ahjuEiyw7s3kaihH3/lC90PLeWneJ4Xrlcw/slrrYAAAyjSURBVFV3lbMLM1y16HqP/jOSbp+d/2jT162z08fe7rNaZ42YeP9b65C9s+Eaft4Dw/qePaPaAHMhApeChPPD8Dktue6sfg4hope97DlbpVIJpfoL7vUjTChuKdC9fUi5zJZgNWqj+67gv4L+EF7T8TzoWNcGmIuC9FgLIsdw1fRyVBS3uOstMKw7PwZdBBqLvLTg/FY5P1YCv/GwfQM7yWd6SAlq3xtYvPxJWUfgnkfGH5m6vB16u/r37v1Qf8Zq1Eb95R56QR+weE3Hs+jH+pLkGK66o5y/Ud5DOqfVCE/vwTPJjGemdRmt8ZN/yWU1wtPYb1hSQ2CDpr8wXDQQvf9bG8whdCVb4Ospeki3d+gtYm5af0Lt5z3gXZ4EsBrhYdjY7xEjMU72Azntx4/OO8SVHM9PHWvnxImj7wJEog+xfHsTb6HXUnzEfi7y/sYQf1PLJJTzyv4Vxia5ZnRakx4EEHy1hKL7y3qTxIKxZYQQQlda3rKWoogeesJezUT0Qtty349bFl5n/pLqMwnsT5QulFbkeAYPYNIx0xXRailCj6wn8dgn1jF4TGPqkljvuF1RRAsQraN9CZd+PNOW7bH/uyvxZTA6iMKmfZSe5NAZ37RfwpN8qpTwKfqlV9wxxPUCTNG3I+R5g/4o7KHvL/dM4HcxqYHCnEsp9cD9ly4m/A9TGNuTRmMniB6ZPRKui3dFv7LG6DzH0778ycYoij0kIiIqBPaQiIioENggUfE5o5FOeQWlsC5l3y+lnlRoOYerup8PvDgJqaAiIZYn/aWJRgtdIAZp7ukT3zmP9dX6X/IiP1xVgh0DtFxLzmRX5xNuSGqopfLDVZsS7MZJ1VDuuHFBZVSbTGIovOkvO/hyXoA72LUB5mJw7lrs5gRp/sMRgzQvZd/zrucpjjWdXf7hqrtwYmwhxM9w/0RIKuzh49Eel/1eF+NgVIz/zIBALy3mbHpHmGtaXXKVGFabVs9D9z3NruMSHnEWXGdyqG5aPXd/D/8Cy0L78JlQXYaWXq6sE5Y+lm9i6c1i3Qjjr/v38ATXjfFXvDkf/Fi+ibe/hjC8snY5f6JtzARYTow9q+AEVuycsDjZnuDqTvKLTESc9NImAKZNhExaPhG96MTHUD2T65Ky86IV3fcs5VJF6jnpBY5DdGJk5LPee/vs+666JG1PF0or6bt1vr/I9xn+OpPqmbS9tO9IF0rrE5OgMx8PKpqUS3Y+N1y1Kbt/t0NSOzvCVT++NdGRyzA1A3bfyo4PunE/aGqYqcHLeXDCVW+2V0q5qA3mEAN73skDfu85RyIQklr7jsbiFTqAGqZ4Hbeg6Ee8/OeEuYpQmOsQr/YGU+qS4iyXxxKCZdMqunPfD9ge/uBlMcaiFAx1akFeAbfOOqOhutm+zbT9S/qO7FDder2EF+WAeTqXcpmTtuQYrhpD4kP6vo7tfLrCOUEo6/5htcH8vzwEthdKw84eanrw9lIcFKpLFy/HcNW49Rswo40S7yEVXMaQ1JBb3PXGeEq9qO+vN5OdYa4HOEUo6z5htQnBsluOte/B7dW+o7Fwn211Iln3L2CvUF0XQ0svVkqDZMIwLMAyAkO4I8O7Y0mQm9/w4Q7v1gDZa9DsnpQ75FvdVNFJfTgSFcst/lPgne0/yQp6WUs+T9AY1hOGkYfX6y9zb7IHBj24PZbaAPNJwy9Tf8G9XsBny9QGeGyEo5jCD6ILDOboAhOvwTrVvidt7xbPuoL37r69w5R6pm4vyzoD+/d7jxOD2nc0gP2e3kqFwOggolNKDavVcw6WzTvI9lzBuQwtvVRMaiA6pVzDas8UFFokDC29aOwhERFRIbCHREREhcAGieIxLJOIcpZzuKrDm8OUtF76WooSrppWjx1RPkT0abmHq3pzmzoymK9aYJztHlHDYC4wcEaOEdHx5RyuasH8qATmJcXgxNgzOzQsc/eyuFDW9HDVXZLCQNNDPUMhrzGXJf8dFMqaHEwKgIGfRBlkvoe02ViQJLfxsbBeGqjI8lb0j2VtgEoZZdi9KvXjm5/SYJn4QAWWFpgcy5anYOyegBCThEmvYwy1Rzt1QFeAlz+hSZDeMjFBY/iw8wf49tndVg8TN80gNVrHtcKo/Yo7LwFhAnSDjV5yPe1tCm/Ze1K5jPuwuy5ElEWmBskNV/V6PU64alLIghuualSa6ER7Q5aBjeTHDlWMZbg3VL5Bs8PnJRVXNBBTgx63LBTcebhVoLcS6rGt7DBQr1dV6mIcih9Kqee0H0gBGGKRtH9Z92FnXeBcAi1gkgRRgexM+04MV7U0zGb+58zZDJLcgVyuwNI0bNx7SG64qtt4lYO5dhIkSYO5AXhD6Rp9PijUTR+PX70SSkDIZop+9x2KLpzGYdc9oYz7cFBdiCgo33DVsoRv+IDp9YhMmGbgs/ZGeQ/pGmwFae4KZd0zXPVIYaCpAbFZw0Cz1IWBn0Q75RyuWsbNj8AyeyEvzxXKrrDMNMnBnemhrEnhqmkODQMNPw5iuy4HhJ1mqQsDP4l2YnQQHcm5gjQvBQM/iXZhUgPRqTHwkygT9pCIiKgQ2EMiIqJCYINE+ytS8GqR6kJEn5I+D8laQ1UNO/y0XI0M/wbscFUVhiVB7gRSG4LlUEa16YykMzXMtMg4vdj10vkUeXDCqeuWtn57UMJwAQC9jI/iJqJ95BuuKsnodIIf1TAzy2yMLk2RgldzqwvDVYlOLedw1SALa2ODajVSnhNjCyE+YDT9EQypoaXOpbW9Q0tD5YKTWHc8DiJlewxXJSqmfMNVg0wDRqXKSbGFlBQwmh68mhxausLo4QX3ur882/DnKfr1YLngdtPqkr49hqsSFVP+4ar2GrA2zEADFyzMcNXzOzAkNTG0tIaf93YSQ1yPIzFAdfqKce/xgEDS9O0xXJWomHY2SInhqt5TXzWYMKHNZtBMoFyuwDI0bKod536TE64aFMy3owuQJWDUDy3d7s04IalC4DcetuKB3GX26ziDBZK3l17PbXuEq4pAz4uND9He8g1Xtddq946qCSPreA+pWLIGjEaLJYSW1gZzCF1B6/3f7ty5uozW+NW/7NdOCUJNsGt7DFclKhCR6EMs397EW+i1FB+xn4u8vzHE36QyH0vx9tcQm6TNbgzx9+2vMBI/QKc1ET1AwHv1xCRxGQRaitDdpT3//ZaiiJ5XNlquJRQ9ZtMxdKXlletNJinrDNYlfXvZ65l934WuiFbSsmD53kQQUTxGBxHlguGqRLswqYHo1BiuSpQJe0hERFQI7CEREVEhsEEiIqJCyDdcFdgKWC1Xm6F8PNq2GrVRHy6A3gTimZGeRHSdUu4hWVirBspOnp2p2ckL4XBVFeqmAskEJK9BMqHNNEB25iVZa6jqBtWODAkmtJkZ+Wzw75RshVH7AfjNCZdEdJ1yDletoFI2YbizXk0TZrmCSrA8J8YmqOF7I2ERgzuJ6ArkHK5qpzxUN6odO2RKCVl3FC9jphwR0QXKOVzVwlqdQYOMTqcDGRpm6hqhzhDDVRPdPgvcvZZQao/CMTgM7iSiK5A+qAEp4aqWhtnM/5w5m0GSO5DLFViaho37gD43XFUCYJn4sCTI9gJIchNVVYVh3iQ2buSb9kt4vRMQz+euCRHR8aU2SGnhqjfe36MDEyRI2GyFq9pPjwWADSwLsFe4wcYKBLHaG4WqfuBbk72kbQnJ06sR2vUhoDAJgIguV0qDZMIwLAAG1JnhvBcZ3h1Lgty0oKozGF4Zp0Er3+BH9SOwDJDkDhuez6p9RwPAWNMBsEEiosvE6KCLkTbsm8GdRHT5mNRwAewnqtYxbMQ8PZXBnUR0JdhDIiKiQmAPiYiICoENEhERFUL+4appyy4Ew06JiI7vvOGq1hrqEvhxkfFBDDslIjqmfMNVTROmJPk9qbKEb/iAGcwOuphwVYadEhEdU77hqpUKyqYJ72lIpgGj8A1PGoadEhEdS77hquUb/KhuoM1mTtp3BdXotboLCldl2CkR0fHkG64KoHzTRMcLwjOhzSqQLqDxicOwUyKi48k3XDW8dqxVDZtqE3J4oxcUrsqwUyKiY8k3XNUbJu580utFXRmGnRIR7Y3RQQdj2CkR0TExqeEADDslIjo+9pCIiKgQ2EMiIqJCYINERESFcJpw1cBoOsnNtItb54WGqxIR0fGl9JAsrJcbVDsddDodyBUDy0jAnJ3YIEWGgVtY24mp2ykMMKGpBiqyvc5O8xs+VM2PEiIioi/r+OGqKOMmqdeTFrwaWO9lhKsSEdExHT1cNU1q8CoREX1pJwlXTZMYvOp94HLCVYmI6Hj+H9auezFe7kqwAAAAAElFTkSuQmCC;imageBorder=default;" vertex="1" parent="1">
          <mxGeometry x="680" y="830" width="420" height="251" as="geometry" />
        </mxCell>
        <mxCell id="CYTgUcAEzpgQwukntkNr-20" style="edgeStyle=orthogonalEdgeStyle;rounded=0;orthogonalLoop=1;jettySize=auto;html=1;entryX=0;entryY=0.5;entryDx=0;entryDy=0;strokeColor=#FF0000;strokeWidth=3;fontSize=20;" edge="1" parent="1" source="CYTgUcAEzpgQwukntkNr-19" target="CYTgUcAEzpgQwukntkNr-18">
          <mxGeometry relative="1" as="geometry">
            <Array as="points">
              <mxPoint x="480" y="622" />
              <mxPoint x="480" y="956" />
            </Array>
          </mxGeometry>
        </mxCell>
        <mxCell id="CYTgUcAEzpgQwukntkNr-21" value="" style="shape=image;verticalLabelPosition=bottom;labelBackgroundColor=default;verticalAlign=top;aspect=fixed;imageAspect=0;image=data:image/png,iVBORw0KGgoAAAANSUhEUgAAA5gAAAENCAYAAABq/MpkAAAgAElEQVR4nOzdsYrqzN8H8O/z8r8LFbSeCwgWgvZT2ohgf3BKIeAFCAOWkW0XYbCxTG/AQnIBqVdYcx15i0SNuybGqKt7zvcDw7Mn4/wymUl8HDNO/nt/f49838fb2xuIiB5PQJkBtn0b7rOrQkRERER39b9nV+DfJqG9EayzeT6mbX4A//f8/eeE1DN0KwA8DfwFx0NERERER//xDiYRERERERHdw/89uwJERERERET0d7jPAFMoKHmXSNzfM/b30/724yMiIiIi+kfdZYApB8DqB39Ixf39bn/78RERERER/atuH2AKhdbnCsEdKnPt/oQy8DyNh94MO3t8EtrzoL/uWCho48HzPHie+Z5fen/HfXpGQZQI+13GMTzaT7fn+UpAKnXleSOh1L7lBVTBW7BS7+v/4PP0l9WFiIiIiP5S7+/v0Z8/fyIApZJUKpIly96+PxEpox+6/+LHJyNtdCRF8m+hIuNdX7f8/clIGxWJH2zv396eX5NQJvI8L/KujiUjpcSZv4ukx5+nv7MuTExMTExMTExMf1vKv4MpNTzPQGXdMhMKLax+7jEDr76/SurvYIVN+OD9/TY/3Z5nBE4f7fYQyytixXfKR+h2Z8kdwPhvk3lhEBERERH9m256Dqbo1LB2vkzmFAp63IVVAYAQob9A33bjwerIQvwsvznqJn4WXrgcou8E2eUu7Q8ApIYZWagghL+cwHYCCGUw6+6S5wYKKDNDF0sM+048PbPk/uK4FXx/JqELu50u30Btt4ZzrCS0GR3250/7+LK7i+0Z+j52+Ewf+DFm6GM5sRE3ZVLHMD5e7P/tT9G23ZxjuFTP8/v7Ws9ntucx3qnDeVZC4PTRXimohgPHjY/18PctCrTZ9yL5xyekxnhkJWPzEMtp//Z6EhEREREVVX6KrIz0mWmCUptIHaY1ykjp45ROoUyk5T5PnZTPK5e9PxEp40VGy/i1Qkba28f5OhXwdHppuf2l95s3zVCcmcprIi3F4diNlgXaMy6n0tNED8cgIqVTU0i/1OmkrSEi9W1/544hr575+3u99sxLJaaJShWp1Ll7+PuG/V1us2vTlynUUkdeoX5nYmJiYmJiYmJiuk8qfQdTqBY+zywF6s430GMDvVlg7rhw7GNe4CwALQHXhejg5G5WXrm8/QE+FrYb35UMXKz9EVoN4NKqQ+X3d4mAVB18OM6xCqKDJjaYuMmWwEG/yP5EB83dAv19oGCLHerHPMtC1/IwOhQIsRQAAiBYbVAdxG0N2QHWDi7Kq+eF/b1aez7ER/LfRurvG1xqsxIRYU8klNYYVy1UKgD89e0VJSIiIiIqqOQAU6KDNc7OOAwc2H0HQkh0tMEY6Wl/LtbQkPhAHVs4hcvl7K+sh+xPQKkGVvvBkJCQcONpn7ttzpi35P7C1JTfrwIHCxgo4WLbAlZFBy959bywv9dpz/s6TkvtonvY2kXzhmm3AC60WamKwoxr2CzmmLg2AqnhtcqHIyIiIiK6VqlFfoRqZTzIUEDp+DEaQeDCsSfYoHXySAR3DbT0ANi6hctl7w8ALLRkUkEh0ar6WB9eWkV9n6VasO6yvywCSnewctzDwEd06vGd1GCFTbUHJY+PuUg/JiNzf8EWu2rv0P5C9Y7HEKywQReDdEx9+ggTd71Dc2yKP0Ymr565+3ut9rysgRpwODcuCZw+hsslpu022u324e+bBpcFrpWrNWrAbg3HDeLH+NSrt0QjIiIiIrpaiTuYAp1a1t2oAFuMMTbdeHpesujOyZ1Kd47PXufLeCOvXN7+AOx8oDWGN6pgv9iLm8RcbXYYzzx0EcJfbuBXuhirFfpO+f2dLLLieRglC+dADtC1LHS94z0uhEsMnbguzmQDPZ7BG8X7Ww77Bfbnwp7UYTKOwZlMjzGTRXdOmtWdY9MbYJu5sM6XY8itZ97+Xqk986X3Z808dA/H/hhSexjtvxXwPIwOd4ELXCvXcufY9Gbw4g6Cv9wgtEbwNNC23Zy6EBERERHdydWL/Eh1XJikVLryGYI37+/K9Lfv76fT3358TExMTExMTExMTEyH9N/7+3vk+z7e3t7wWBLaG8EKl5j2nb/3WY9ERERERET/qJueg3mdr881JCIiIiIior9J/iI/RERERERERAVxgElERERERER3wQEmERERERER3cXLDDCl9uB5HjxPX/ksQAFlkrLm2rJERERERER0L/kDTKGgyozYSpRz7Tba7SGW4XXlpJ6huRmi3W5juKlipDnEJCIiIiIieoacAaaAHDRRuzpk2XJlSLQsHwsnflR84CzgWz0o8SM7JyIiIiIiopTzA0yhYLwZRlYF1iiefnpyY1BI6NS01MOA7kI5ITWMt58Ka8rdHU2TLVjhJz4OGz7wGVZQa9wYl4iIiIiIiK52foAZOOi32xguQ/jTNtrtNuzDIywl9LiHz0U8LbU9+URznPz28UK5Qe8Tk3a8vT3dodvidFYiIiIiIqK/xfWL/MgWqrsFHDeelorAwWRTxeWxogt7skVHaxjjwRtZV++aiIiIiIiIXtfPrSIrFMy4BaznmPTbaE/922O6a/iVGo4zYhuoVXys3ZwyRERERERE9BAXB5jVevwDSyElBAC4a+yqqYV0hMSgufs2qPtWrlEDdms4boAAgKhX71B9F2vfQi+pjFA9WP4aHF8SERERERH9vNwBZrDaAN0ZPM+gAxfxpFgX9mSD2jhZrGfcwufEPhnUnS3nzrGpjg4L/AywQWiN4CWrAMXPwZyhW7Ew8jx4RqHIYrCuPcSmOYPneZg1NxjaHF4SERERERE9w3/v7++R7/t4e3t7dl2IiIiIiIjoF/u532ASERERERHRX40DTCIiIiIiIroLDjCJiIiIiIjoLjjAJCIiIiIiorvgAJOIiIiIiIjuosAAU0Jf8diQf5eAMsmjWw7JHJ8XSi8i1U9GQxYupqDNsV/1ScFLMQWkUl+233K+lNnfE2Le1GZl6lk2JhERERHdzfv7e/Tnz58IQE6SkTYqErmv+deTjLROt5GIpBTPrZNQkZLPbpfXqovUXmRU3C9CmcjTsljfGh1JcTwW4+lIFogplIk8z4u81OtvPV/K7e+nY5Zvs7L1LBuTiYmJiYmJiYnpfolTZO9ovXYQJH8L2QDcIPf1jyUgB03UnliDo1epi0TL8rFw4n4JnAV8q1fsrmEl9XewwiYsFjNw+mi3h1iG+Kbc+VJ+fz8bE6XbLH6JPnNHN6/cDX1LRERERHfzv8wcoaDHXVgVIPR97PCZbDaYdSsAfEyHa7TGI1gVwJ8ugVEXFnxMp8BoZCFcTrFpjtCthPB9wLIqQLjEcAKMZ11UEGI57GPVyYo5xLw+TvJOhcshJkjyfiimk/v534Xr7v+W6NQ/4BTogOz2HMJ2A0BI6GQbQh/LiX2sR1aeUDCzbvz53vLgjQB/2obtZlTiBevyELIFK/zE/LDhA59hBbUGgAt9a7fTFW6gtlvH/XtDzKzz5dgPp8LlEP1tuf09Ima+B7RZXrnGI46BiIiIiK6VMcAUUOMmPidt2PtBwjjOCZw+2o6E9nroDepY7F8DAB+A7qzgugHQ0oDjwl3VUWs4sF1ASI1xfYUgCLDwa4BtwwWAICcm+mhnjtT6GG5/MGZBQrWAVbESue0JCT3u4XOxH+ApmLHGtm/DzcsLHPTbDoQyGGz7hQdzr1SX1yUgVR1ru8jXBwUjfjlf4n7IeHHJHxY+ImZxJdrMtdH+9ecKERER0b/n/BRZ0UFztzjenQq22H170Q4L2zmd1RdsgWYHAoC7BloSEB1gnXxQDFwbk+0AxmjU5+cGbWdiXvCcmHkkBs1PrK6+a3KmnrKF6m4BZ78xcDDZVNGSF/Ju9kp1eSUCUnXw4ThXnhN5yp4vv8Uj2oyIiIiIXtWdf4PpYr2roSMEVKuKakuiA+Aj9YoAwG4H1Br3+3HUS8UUdVR3W87Ke0XuGn6lhsZhQwO1in/4AiSfgFINfDjJ7yaFhBS3xsT158ut+/upmADu3mZ55R52DERERER0jfMDzGCLXfW4QIZQPVgFA7proDkeo7aeYFMdoYnV8cOzUND1OWzbxrw+hpZ3GBC+WEzRaeL7L91Kctcn/QAhMWjuDh+oM/NSqnWRZMvbHjPzSnUpzcXat9BLKipUD5a/LnBnTUDpDlaOe1yUp1NPfttXJGYDNQD1Mwd9/fly2/5+LuaNbXZ2kZ+8cmX7Nn4Mk+FqQERERER3kfEbTBf2pA4z89BFCH+5gV/pYqxWx0VwAFieh5E/RTv9wzp3jV2vjrkbAPUQ+7l/h0VGQkA4DQy6FViYwdSHl2Nm+OmY/fxVfkpJL77yvZ5xP+ixBy+1eI57MS8WrDbAbAavG2I57V9cdOiV6vIorj1E3czgdREv5NQvcItLDtC1LHS97nFbuMTQuRzzpE1nHroFz8Oyx1B2f3ePeUObla1n2ZhEREREdD//vb+/R77v4+3t7dl1ISIiIiIiol+Mz8EkIiIiIiKiu+AAk4iIiIiIiO6CA0wiIiIiIiK6Cw4wiYiIiIiI6C44wHwQqdSTHsVBRERERET0HAUGmPFz4jzDAVNhUqPXTT/0nV6HgDIePM+DZzRk4WIKel/OM9AnBS/FFJBKfdmeKuMd4xZ7HGOZ/T0h5k1tVqaeZWMSERER0d28v79Hf/78iQDkJBlpoyKR+xqmOIlIKRUpoyP57LoIFSn57PZ4rbpI7UVGiQhAJJSJPC0LlJORNjqS4ngsxjv2b15MoUzkeV7keV/PBxlpnb6mRCSluPkYsvf30zHLt1nZepaNycTExMTExMTEdL/EKbJ3JlQHW2f17GoAEJCDJmrPrgaA16mLRMvysXACAEDgLOBbvWJ3DSupv4MVNmGxmIHTR7s9xDLEN+u1gyD5W8gG4AbfX3TlMeTt72djonSbxS/RZ+7o5pW7oW+JiIiI6G7+l5kjFPS4C6sChL6PHT6TzQazbgWAj+lwjdZ4BKsC+NMlMOrCgo/pFBiNLITLKTbNEbqVEL4PWFYFCJcYToDxrIsKQiyHfaw6WTGHmNfHSd6pcDnEBEneD8V0Ln3+FxKdrQMHAqpgB2S35xC2GwBCQifbEPpYTuxjPbLyhIKZdePP95YHbwT40zZs9/fU5SFkC1b4iflhwwc+wwpqDQC5fevCbqcr3EBtt4ZzY0z3EFKiU/+I4yHdD6fC5RD9bbn9PSJmvge0WV65xiOOgYiIiIiulTHAFFDjJj4nbdj7QcI4zgmcPtqOhPZ66A3qWOxfAwAfgO6s4LoB0NKA48Jd1VFrOLBdQEiNcX2FIAiw8GuAbcMFgCAnJvpoO1/rd8wbbn8wZi4B2QGczLjn5bYnJPS4h8/FfoCnYMYa274NNy8vcNBvOxDKYLDtFx7MvVJdXpeAVHWs7Ss7Oi+iagGrY8PE/ZDx4pI/LHxEzOJKtJlro/3rzxUiIiKif8/5KbKig+Zucbw7FWyx+/aiHRa2czqrL9gCzQ4EAHcNtCQgOsA6+aAYuDYm2wGM0ajPzw3azsS84Dkxz5AdtABIKSFlBzVUUZcSsvAUvTP1lC1Udws4+42Bg8mmipa8kHezV6rLKxGQqoMPxyl2ThQiMWh+YvXX3mV7RJsRERER0au6828wXax3NXSEgGpVUW1JdAB8pF4RANjtgFrjfj+OeomYrgPbceG6Llx3hU/ssHXdqwa29GDuGn4lvbpvA7WKf/gCJJ+AUg18OMnvJkXy5cFNMQGIOqq7bfFZnLfu76diArh7m+WVe9gxEBEREdE1zg8wgy121eMCGUL1YBUM6K6B5niM2nqCTXWEJlbHD89CQdfnsG0b8/oYuvjtvWy/JWYZ7vqkHyAkBs3d4QN1Zl5KtS6SbHnbY2ZeqS6luVj7FnpJRYXqwfLXhaY/K93BynGPi/J06slv+4rEbKAGoH7moEWnie+/jLz1GLL393Mxb2yzs4v85JUr27fxY5jM2dWA8vKIiIiI6JyM32C6sCd1mJmHLkL4yw38ShdjtTouggPA8jyM/Cna6R/WuWvsenXM3QCoh9jP/TssMhICwmlg0K3AwgymPrwcM8NPx+xfXOUHgJBQnRaaqKKpFTDPn56bXnzlez3jftBjD15q8Rz3Yl4sWG2A2QxeN8Ry2selX8C9Ul0exbWHqJsZvC7ihZz6BW5xyQG6loWu1z1uC5cYOpdjnrTpzEO34HlY9hjK7u/uMW9os7L1LBuTiIiIiO7nv/f398j3fby9vT27LkRERERERPSL8TmYREREREREdBccYBIREREREdFdcIBJREREREREd8EBJhEREREREd0FB5hERERERER0FwUGmPGz4DyjnvTswl9EKGjjwfM8eEbjWY/PpDwCKt1HhYul+tYz0CcFL8UUkEp92Z4q4x3jFnvkYpn9PSHmTW1Wpp5lY8Zl79tmj+gjIiIiol/g/f09+vPnTwQgJ8lIGxWJ3Nf860lEyuhIivjfQurI0/K5dRIqUvLZ7fJadZHai4wScR8pU7CPZKRTfQuhIuPpSBaIKZSJPM+LvNTrDzF1+poSkZTi5mPI3t9PxyzfZmXrWTbmI9rsEX3ExMTExMTExPQbEqfI3k0DtUoV9f0/64D/+fHE+gjIQRO1J9bg6FXqItGyfCycAAAQOAv4Vq/YXcNK6u9ghU1YLGbg9NFuD7EM8c167SBI/hayAbjB9xddeQx5+/vZmCjdZvFL9Jk7unnlyvft/dvsQe1JRERE9Av8LzNHKOhxF1YFCH0fO3wmmw1m3QoAH9PhGq3xCFYF8KdLYNSFBR/TKTAaWQiXU2yaI3QrIXwfsKwKEC4xnADjWRcVhFgO+1h1smIOMa+Pk7xT4XKICZK8H4rp5H7+d2G33fiD8Sw+9kl+gQvtOYTtBoCQ0Mk2hD6WE/tYj6w8oWBm3fjzveXBGwH+tA3b/T11eQjZghV+Yn7Y8IHPsIJaA0CRvj1ooLZbw7kxpnsIKdGpf8TxkO6HU+FyiP623P4eETPfA9osr1zj/sdQus1uqouENsl1hBD+tP+ca4WIiIiopIwBpoAaN/E5acPeDxLGcU7g9NF2JLTXQ29Qx2L/GgD4AHRnBdcNgJYGHBfuqo5aw4HtAkJqjOsrBEGAhV8DbBsuAAQ5MdFH2/lav2PecPuDMYtwbbT3x6qB/oVPh7ntCQk97uFzsR/gKZixxrZvw83LCxz02w6EMhhsi39AfaW6vC4BqepY25kn0PURVQtYHRsm7oeMF5f80d4jYhZXos2S6+iZfr7NBJTpAYsh2vvraCCR+iaCiIiI6OWdnyIrOmjuFse7U8EWu28v2mFhO6ez+oIt0OxAAHDXQEsCogOsk89HgWtjsh3AGI36/Nyg7UzMC54Ts0iMOTbV1hWfQ8/UU7ZQ3S3g7DcGDiabKlryQt7NXqkur0RAqg4+HKfUOXGexKD5iVXpO4Wv7hFt9pcSHTSxwTx1HV36goqIiIjo1dz5N5gu1rsaOkJAtaqotiQ6ANK/RAwA7HZArXG/JVZfIqZQMN7X1SKrqHMl2dfhruFXamgcNjRQq/iHL0DyCSjVwIeT/G5SyHiV4JtiAhB1VHfb4rM4b93fT8UEcPc2yyv3sGP44bpccy4QERERvaDzA8xgi131uCiFUD1YBQO6a6A5HqO2nmBTHaGJ1fEDk1DQ9Tls28a8Poa+x3M8XilmatEOIQdoYnPbnSl3fdIPEBKD5u7wITYzL6WajHCFlLc9ZuaV6lKai7VvoZdUVKgeLH9d4M6agNIdrBz3uChPp578nq5IzAZqwNkvG0Snie+/8rv1GLL393Mxb2yzs4v85JUr27dlj+/WupzZX7DCptqDOrzf8FEmRERE9Pv89/7+Hvm+j7e3t9Ocw+IsIfzlBuh2UU0vgrPnT9E+mcYloU0d874DKIPOKl4c57BgRrjEsL/FwBvBwpeFdTJjnvfTMfuXFu2RGmZkxQOG0Me0f3l67beFRL7WM7XY0veFdXLykvx9Hy6nfTiFF/l5fl0eR0CZGboVJH3sFFh3RcMbffmK5aRsdsxLbSqUway2KHRuFjmGi334UzFvaLNj+eqZxbXyypXo27LHd0NdcveXvo4KLS5GRERE9FqyB5hEREREREREV+BzMImIiIiIiOguOMAkIiIiIiKiu+AAk4iIiIiIiO6CA0wiIiIiIiK6Cw4wiYiIiIiI6C4KDDAltOfBM+pJzy78RYSCNh48z4NnNO7xSE66NwGV7qPCxVJ96xnok4KXYp57nmGqjHeMqwqdM2X294SYN7VZmXqWjRmXvW+b5eQ9pF2IiIiIXsT7+3v058+fCEBOkpE2KhK5r/nXk4iU0ZEU8b+F1JGn5XPrJFSk5LPb5bXqIrUXGSXiPlKmYB/JSKf6FkJFxtORLBBTKBN5nhd5qdcfYur0NSUiKcXNx5C9v5+OWb7NytazbMxHtFl23mPahYmJiYmJiYnpVRKnyN5NA7VKFfX9P+uA//nxxPoIyEETtSfW4OhV6iLRsnwskifXB84CvtUrdtewkvo7WGETFosZOH2020MsQ3yzXjsIkr+FbABu8P1FVx5D3v5+NiZKt1n8En3mjm5eufJ9e/82u1CXW9qFiIiI6MX9LzNHKOhxF1YFCH0fO3wmmw1m3QoAH9PhGq3xCFYF8KdLYNSFBR/TKTAaWQiXU2yaI3QrIXwfsKwKEC4xnADjWRcVhFgO+1h1smIOMa+Pk7xT4XKICZK8H4rp5H7+d2G33fiD8Sw+9kl+gQvtOYTtBoCQ0Mk2hD6WE/tYj6w8oWBm3fhzrOXBGwH+tA3b/T11eQjZghV+Yn7Y8IHPsIJaA0CRvj1ooLZbw7kxpnsIKdGpf8TxkO6HU+FyiP623P4eETPfA9osr1zj/sdQus1y6/KIc4mIiIjodWQMMAXUuInPSRv2fpAwjnMCp4+2I6G9HnqDOhb71wDAB6A7K7huALQ04LhwV3XUGg5sFxBSY1xfIQgCLPwaYNtwASDIiYk+2s7X+h3zhtsfjFmEa6O9P1YN9C+MpHLbExJ63MPnYj/AUzBjjW3fhpuXFzjotx0IZTDY9gsP5l6pLq9LQKo61nbmCXR9RNUCVseGifsh48Ulf5T3iJjFlWiz5Dp6pse32f3PJSIiIqJnOz9FVnTQ3C2Od6eCLXbfXrTDwnZOZ/UFW6DZgQDgroGWBEQHWCcfFAPXxmQ7gDEa9fm5QduZmBc8J2aRGHNsqq0rPoeeqadsobpbwNlvDBxMNlW05IW8m71SXV6JgFQdfDhOqXPiPIlB8xOrv/YO1SPa7G/AdiEiIqK/051/g+livauhIwRUq4pqS6IDIP1LxADAbgfUGvf7YdFLxBQKxvu66mMVdf5+6nW4a/iVGhqHDQ3UKv7hC5B8Ako18OEkv5sUMl4l+KaYAEQd1d22+AzIW/f3UzEB3L3N8so97BgeUZcHnUtEREREL+D8ADPYYlc9Li4hVA9WwYDuGmiOx6itJ9hUR2hidfzwLBR0fQ7btjGvj6Hv8RyPV4qZWiREyAGa2Nx2Z8pdn/QDhMSguTt8iM3MS6kmI1wh5W2PmXmlupTmYu1b6CUVFaoHy18XuIMkoHQHK8c9LsrTqSe/iysSs4EacPbLBtFp4vuv/G49huz9/VzMG9vs7CI/eeXK9m3Z4ytbl1vPJSIiIqLX9t/7+3vk+z7e3t5Ocw6Ls4Twlxug20U1vQjOnj9F++SHdRLa1DHvO4Ay6KzixXEOC2aESwz7Wwy8ESx8WVgnM+Z5Px2zf2nRHqlhRlY8YAh9TPuXp9d+W0jkaz1Tiy19X1gnJy/J3/fhctqHU3iRn+fX5XEElJmhW0HSx87lu4dSwxt9+YrlpGx2zEttKpTBrLYodG4WOYaLffhTMW9os2P56pnFtfLKlejbssdXti63tgsRERHRi8seYBIRERERERFdgc/BJCIiIiIiorvgAJOIiIiIiIjuggNMIiIiIiIiugsOMImIiIiIiOguOMAkInpBUqknPc6HiIiIqLwCA0wJ7XnwDD/sXCQUtPHgeR48o3GPR3LSvQmodB8VLpbqW89AnxS8FFNAKvVle6qMd4yrCp0zZfb3hJg3tVmZepaNGZe9b5tl5RXsd6nR69bQuKo+RERERC/g/f09+vPnTwQgJ8lIGxWJ3Nf860lEyuhIivjfQurI0/K5dRIqUvLZ7fJadZHai4wScR8pU7CPZKRTfQuhIuPpSBaIKZSJPM+LvNTrDzF1+poSkZTi5mPI3t9PxyzfZmXrWTbmI9osO69Iv4tIKRW/n/zANcHExMTExMTEdM/EKbJ300CtUkV9/8864H9+PLE+AnLQRO2JNTh6lbpItCwfCyd+dH3gLOBbvWJ3DSupv4MVNmGxmIHTR7s9xDLEN+u1gyD5W8gG4AbfX3TlMeTt72djonSbxS/RZ+7s5ZUr37f3b7P8ulzqd6E62DqraypDRERE9DL+l5kjFPS4C6sChL6PHT6TzQazbgWAj+lwjdZ4BKsC+NMlMOrCgo/pFBiNLITLKTbNEbqVEL4PWFYFCJcYToDxrIsKQiyHfaw6WTGHmNfHSd6pcDnEBEneD8V0cj//u7DbbvzBeBYf+yS/wIX2HMJ2A0BI6GQbQh/LiX2sR1aeUDCzbvz53vLgjQB/2obt/p66PIRswQo/MT9s+MBnWEGtAaBI3x40UNut4dwY0z2ElOjUP+J4SPfDqXA5RH9bbn+PiJnvAW2WV65x/2Mo3Wa5dcnu93inEp2tAwcCqly1iYiIiJ4qY4ApoMZNfE7asPeDhHGcEzh9tB0J7fXQG9Sx2L8GAD4A3VnBdQOgpQHHhbuqo9ZwYLuAkBrj+gpBEGDh1wDbhgsAQU5M9NF2vtbvmDfc/mDMIlwb7f2xaqB/YSSV256Q0OMePhf7AZ6CGWts+zbcvLzAQb/tQCiDwbZfeDD3SnV5XQJS1bG2M8o9JywAACAASURBVE+g6yOqFrA6NkzcDxkvvu5Hgg+NWVyJNkuuo2d6dJt97XdAQHYA536nFhEREdGPOz9FVnTQ3C2Od6eCLXbfXrTDwnZOZ3cFW6DZgQDgroGWBEQHWCefoQLXxmQ7gDEa9fm5QduZmBc8J2aRGHNsqq0rPoeeqadsobpbwNlvDBxMNlW05IW8m71SXV6JgFQdfDhOqXPiPIlB8xOr0ncKX90j2uxvcKbfZQctAFJKSNlBDVXUpeRiYURERPSr3Pk3mC7Wuxo6QkC1qqi2JDoA0r9EDADsdkCtcb9PTS8RUygY7+tKklXU+eHwdbhr+JX0ypwN1Cr+4QuQfAJKNfDhJL+fE8kH/5tiAhB1VHfb4rM4b93fT8UEcPc2yyv3sGN4UF3O9bvrwHZcuK4L113hEztsXfeqL8eIiIiInu38ADPYYlc9LkohVA9WwYDuGmiOx6itJ9hUR2hidfwQJRR0fQ7btjGvj6Hv8dX8K8VMLRIi5ABNbG67M+WuT/oBQmLQ3B0+xGbmpVSTEa6Q8rbHzLxSXUpzsfYt9JKKCtWD5a8L3FkTULqDleMeF2fp1JPf9hWJ2UANOPtlg+g08f1XfrceQ/b+fi7mjW12dpGfvHJl+7bs8d1Wl+v7nYiIiOh3+O/9/T3yfR9vb2+nOYfFWUL4yw3Q7aKaXgRnz5+iffLDOglt6pj3HUAZdFbx4jiHBTPCJYb9LQbeCBa+LKyTGfO8n47Zv7Roj9QwIyv+4Bj6mPYvT6/9tpDI13qmFlv6vrBOTl6Sv+/D5bQPp/AiP8+vy+MIKDNDt4Kkj53Ldw+lhjf68hXLSdnsmJfaVCiDWW1R6NwscgwX+/CnYt7QZsfy1TOLa+WVK9G3ZY/vxrrk9ruQUJ0Wms0qsNtgMb9uij8RERHRM2UPMImIiIiIiIiuwOdgEhERERER0V1wgElERERERER3wQEmERERERER3QUHmERERERERHQXHGDSryCVetKjTYiIiIiIqCgOMO9OQCoF+exq/E2kRq+bfnA9ED8GwoPnefCMPm1vqWG8jDwAUpkk30CrgsNWoaD3+/MM9EnQnLrklcuNebFC58+zsjEvlit7XmeUu9BHZWIKZZL67+Ne+6WEhL6inNT7fV1b/0e67hiKxrvu3CQiIqJ/2vv7e/Tnz58IANONSSgTeZ4XeZ6O5AvUB0JFSr5APW6qi4iUUpEyp20qtRcZJY7trmWSJyNtdCRF0idSR55RkUj1kVEy/rdQkUnlZafTmBAqMqk+LlqX03L5McudZ2Vj5pcre14XrefXPioXE5FUxWJcbotr4ohv5+Zjr4dHHAMTExMTExMT0/0S72DeUeD00W4PsQyfXRMAEJCDJmrPrgaAW+oiVAdbZ/Vlq0TL8rFw4qfPB84CvtWDEgBkC9XN/PBg+sCdY4kmOiIuN+jusHDc+KH3gYN+30GhZ9hXUn8HK2wOfZxTl9xyF/Jy5J5nJWPmlSt7XmeWy+2j/Ws0PM/g6w3m17rGynqla5OIiIjovv53bqNQBrNu5dv2cDnEBOOMvCV23S4s+JhOgdHIQricYtMcoVsJ4fuAZV0b87Xy+k6hochVjm3tYzpcozUewaoA/nQI2w0AIaGTbQh9LCc2DtXIyhMKZtaNxwyWB28E+NM2bPf31GUfs7N14EBApbfLFqzwE/PDhg98hhXUGt8ifIlXRzX8BJSB160ACOEvJ7Av9qsLu52ucAO13RrOpboEOeVyYuZdf/nnYNmYefX8TWoYaJO8z4RYDvsodMkKBT3uwqoAoe9jh89UpoQ2Ged8roxyF6+HkvsrcQyHcyJcYth3gP2//Snatnv6ftC2cXrJpmIihD/t334MRERE9He46xRZoSKdTBWUOpk2JlSkX2Wa5o+kMlPmZKQ9ExmtjtMU99uNiZQUh/Y1Jj3FMisvTkKZEm3/KnURkVTy8PdJm36bUikiZbw4/n56p9jHMJHnmUiJpJznRfpQz/hYlbi2XqpYXfLKFc4re56ViZlXruRU0HPl8vqo9LEn9U5P8y00TVREyqT2fVJOREqnpg5n7Pfstgvlzl8PRfZ332M4rYeI1GF696VjNqnrSEVGyxuPgYmJiYmJielvSWfvYJYWbIFxB8IJ4K4BLYGPOrD+fbdCnmCHhe2c3iWQLVR3i/juIQAEDiYbg4EEXOTkFbk7+Op1kR20sAWkBFBHDVVASsgPF7khAweTpcZ45mGEEP5yAx/NY364xPw4NxPzZQ+DBlBsnqyAVB18OAWn1RYqVzZm2f09otyVLvVRuaBw07fJghU2GKMjHAR5ByM6aO4W6O9fE2yxQ/2YZ1noWh5GhwIhlgL558szypU8hmC1QXV/ocpOsTdr0UETG0xS13vfvvEYiIiI6K9x3wEmXKx3Gh0h0GlVUYVE5xP4+gs6ootcB/bhHwL1Xg1bNxlcBmv4oxaO48IGahUf62TkGTg2+vvPyULBNDeYBwDwibBSQ+Hx5AkBpRpY7QdfQkLChevm1yWzXHApr6yyMR9Rl2zZfVSSUDCzGhbfpnLeKJk+enXVfrpc2ZiBgwUMlHCxbQEr+9yLzthts+v4iGMgIiKiX+Pui/y4a6A5HqO2nmBTHaGJ1T/2QaOBGoD6PZ4R4K6xq6YWjBESg+YuHrzk5aVUk4oIKW97bMEr1QUu1r6FXrJDoXqw/HUysIgfGRI/VkFAjbvYLZIPu8EKm9BCTyX7z6jndwJKd7DaLw4EQHTqyYjyQl0yy+XlFXHuPCsbs0i5sud1Rj2z+mgvY5GfzJjBFrvwEx/7PcgButhgdenYg+3JuStUD9Yhb4UNuhjIw4kNqQs8/qNguW/XQ+n93XYM7nqH5tig9VnwvTpYYVPtQaVj7h8bU/YYiIiI6K/x3/v7e+T7Pt7e3u4UUkKbOubJohGdVcGFNv4C3xZSSRbLuKlMavGO7wvr5OQl+fGCIiGW0z6cwov8PL8ux3ISqtNCs1kFdhss5s7x7p+ZIV6r5/SOyfE4zi3ic7o4SaGFYKSGN7JOt53sM6MueeUuxsxpkqx+KhvzQrky53VuPXGpj/Z1qn7rn9y6SA0zsuIFdEIf04ld7A5s6tz0lxug20V1v6BSzsJWUns4abZ0W+ctiPVlnyfXw6Vydz6GpDCUGWDbP737m9vW6ev963VU9hiIiIjor/CAASYRERERERH9i+78G0wiIrovCe2NYJ3NO/cIESIiIqLn4QCTiOilfX1OKREREdHruvsiP0RERERERPRv4gCTiIgeRygo+QtiEhER0V1wgElE9NcSUE9+TIgcAKs7z/B9REwiIiK6j8wBptQePM+D52nwi+JrpJ4JRy8ofgaj53nwzBXntlDQ+3KeSZ7hWCBmXrncmJeP4+x5VjbmxXJlz+uMclLDeCX6ISemUCap/z7utQMrCV2qXH686/r13gI49god9aRBplDFn695U0wBqU3m9ZmdB2T3e5lzPu/9pWzeJRnn2U3vL0RERDd4f3+P/vz5EwE4k0SkjI7k2Tymr0koE3meF3nei7SZUJGSL1CPF6qL1F5klDj2l5YFyslIGx1JcTwWk+rj7Jh55fJjljvPysbML1f2vC5aTyF15BkViZtiIpKqWIzLbXGPOK+WRCSV+vH3pUfs81xMoUxkVHLdSX1yXeflZfV72XM+7/2lbF65VP79hYmJiYmJ6dbEKbJ3FDh9tNtDLMNn1wQABOSgidqzqwHgdeoi0bJ8LJKnvgfOAr7Vgypyayf1vHkEK2wOfXwhZma5C3k5cs+zkjHzypU9rzPLyRaqmznc5BZU4M6xRBOddD9IDc8z3/rmta6x3ySA6ziA0pA/dStTKLSwuu8jVHJi7rbJVtdG23YL551T7jzLey8om3eDsu8FREREN7r6MSVCGcy6FQA+psM1WuMRrArgT5fAqAsLPqZTYDSyEC6n2DRH6FZC+D5gWRUgXGI4AcazLioIsRz2ser8jpjOXed5XWrPIWw3AISETrYh9LGc2Md6ZOUJBTPrxp8vLA/eCPCnbVz6XPVKdXkI2YIVfmJ+2PCBz7CCWgPIn8P39TERDdR2azgXY+aUy4l57IdT4XKIfu5JWDZmXj1/kxoG2sTX7zXXrFDQ4y6sChD6Pnb4TGVKaPP9vD60Z7jEsO8A+3/7U7Rt9/Ra+vacylRMhPCn/dT1cH5/+dUvfr64zjz+Tabt3Hfa6rl6dWpY3/lN81vM9PsL4veXfR/k5iVls/s9T0Yf5b0XNErmFe77r+fZpWs67xwkIiK6UbkpsjLSnomMVscpOEAEoSKdTPOROiknVKSTqZFC6sM0oEP+r4t5KZWZVpxRT8hIGxMpKQ71NiY9xTIrLzkOZQ7H9Dvrcuf0bSqmiJTxrqzXl6mGhWPmTVEsM33x0nlWdkpkVrmy0+XPlNtP1xP7/ZnI80ykxA0x9/VOTwksNNVVRMqk9n1STkRKp6YZftnv6TktIvVtWuP5eipjIp2+Vg7l8vd3jySV/nJdPyrJw3vsT8TMe385n5fX7xf6L6uP8t4LyuaVvh5O80+v6bxzkImJiYmJ6fZ0wxTZHRa2c5jmBgAItkCzAwHAXQMtCYgOsE6+GQ1cG5PtAMZo1Odfv9X/TTEf4Uw9ZQvV3QLOYS6hg8mmipa8kPdX1eWVCEjVwYfjXHlO5JUrG7Ps/h5R7kqBg8kS6M08eN4YLWzg3x4UrpM6Z4MVNl+n3Z4jOmjuFse7hMEWu3SeZWE02y+UMkO3UkVd7HexQXV/ksvUG8il/WGDeepa6R/uqOXv7zbxgjVw7NPr+kGEauFzdee7l/eMmdfvl8o9rI8e4cw1nXcOEhER3cGdf4PpYr2roSMEVKuKakuiA+Aj9YoAwG4H1BpF/4/8W2LSy3PX8Cs1NA4bGqhV/ELjAkBAqQY+nGRqoZDxb9kuxswodzGvrLIxH1GXbIFjo99uo93uw14B1XCDm8YOQsE8YsXrcIlhu432IaWm3QYOFoh/KydbVzw2Y7fNnvmYt7/SBNRPfHFwINHB+s4/KXhEzJKy+ijvvaBs3k1yrum8c5CIiOhGd1/kx10DzfEYtfUEm+oITaSWkxcKuj6HbduY18fQBT/B/paYsQZqwH2+0XbX2FVTiz0IiUFzd/hQkpmXUk0qIqS87TEFr1SX0lysfQu9pKJC9WD56wIfugWU7mDluIdzRHTqye+j8mLmlcvLK+LceVY2ZpFyZc/rjHqa/WMVBNS4i93iy28CMxb5yYwZbLELPw9fEgk5QBcFBq3B9uTcFaoH65C3wgZdDA7Xv4D88kxJd71Dc2yKP4ojWGFT7UGlY+4fhVFgf9fb9+21v7mMH31hznZAXl58p/H8aPsRMUvK6/eDc+dZXh/lvReUzctvl2w513TeOUhERHQH/72/v0e+7+Pt7e0kQ2oPo/T/cb8uZrGXXjQhLglt6pgnr+2s+mcWxdhi4I1gIV6IYoLxr4iZv8DKmcU2vu2zRJnUQhTfF9bJyUvyzX6RomkfTuFFfp5fl8cRUGaGbgWHc/riB2+p4Y2+fPw8KZsRM6/cxZg5R5DVT2VjXihX5rzOredJXgh/OYH99dqSGt6o+m2hnty6SA0zsuJFXUIf00nB6aCpc9NfboBuF9X99Z63sFVcGMoMsO2fTqXPrWf6Wvm6GNHF/f0UCe2Nju1QOE9A6Qacs+fH42Iez950e+blIbff8/svr4/y3l/K5OW1yw3vBXnnIBER0Y0yB5hERERXkQrqw7nvYOURMYmIiOhhrn5MCRER0Vmuc//H2zwiJhERET3M3X+DSURERERERP8mDjCJiIiIiIjoLjjAJCIiIiIiorvgAJOIiIiIiIjuosAAM34Ol2dufR7bP0AoaOPB8zx4Rj/0QfVUVvwMxkMfFS6W6lvPJM9wLBrz3HPmUmW8Y9xij7srs78nxLypzcrUs2xMYP8+p78Wyj2GW/G9lYiIiP5C7+/v0Z8/fyIAOUlG2qhI5L7mX08iUkZHUsT/FlJHnpbPrZNQkZLPbpfXqovUXmSUiPtImYJ9JCOd6lsIFRlPR7JATKFM5Hle5KVef4ip09eUiKQUNx9D9v5+Omb5Nitbz7Ixyx7DfRLfW5mYmJiYmJj+rsQpsnfTQK1SRX3/zzrgf348sT4CctBE7Yk1OHqVuki0LB+L5IF6gbOAb/WK3TVMPcscwQqbsFjMwOmj3R5iGeKb9fr4oHUhG4Bb5EF/5ff3szFRus3il+gzd3Tzyt3Qt6WOgYiIiIjOyX4OplDQ4y6sChD6Pnb4TDYbzLoVAD6mwzVa4xGsCuBPl8CoCws+plNgNLIQLqfYNEfoVkL4PmBZFSBcYjgBxrMuKgixHPax6mTFHGJeHyd5p8LlEBMkeT8UM/9B3y7stht/MJ7Fxz4p8GTw7PYcwnYDQEjoZBtCH8uJfaxHVp5QMLNu/NnY8uCNAH/ahu3+nro8hGzBCj8xP2z4wGdYQa0BoEjfHjRQ263jZ/PdENM9hJTo1D8Oz/o79sOpcDlEf1tuf4+Ime8BbZZXrlH+GE7O+7aNY61zjiGuELRJznmE8Kd92O6FtnaCzPfWbzFT19EhZrjEsO8A+3/7U7SfcjERERERZTg/RVZEyphIpaeGnUzjkpH2TGS0Ok4fS16nkylqUidTyYSKdDI1Ukh9mMJ2yL8U80L6+ZhXxCg8RS+rnjLSxkRqP3VSqMiYfX3y8pI6KHNo++Lplepy5yR15JnTaanKeFfWS0RSqeOxFYqZTJ/OOleUPl5rdzmG/P39SMyb2+zKet7ct5eO78sxJO+ROn3OF7re895bRaR0akrulzqdXkMiUs+egs/ExMTExMTEdCadnyIrOmjuFse7U8EWu28v2mFhO6ez+oIt0OxAAHDXQEsCogOsky/YA9fGZDuAMRr1efpOQU7MC54Ts0iMOTbV1hULjZypp2yhulvA2W8MHEw2VbTkhbybvVJdXomAVB18OE6pc+I8iUHzE6vSdwpf3SPa7KedOQbRQRMbzFPnfL/IncS891bRQdOyMJrtFxWaoVupor6fqrzaoLq/qGTqjZWIiIjohdz5N5gu1rsaOkJAtaqotiQ6ANK/RAwA7HZArXG/dRNfIqZQMN7XlSuPHw7pBbhr+JUaGocNDdQqfsHP6QJKNfDhJL+bFDJeJfimmABEHdXdtvhM1Fv391MxAdy9zfLK/fQxAMA1/VZUuMSw3Ub7kFJT8wMHC8S/K5UtYMXxJREREb2g8wPMYItd9bhAhlA9WAUDumugOR6jtp5gUx2hidXxQ5hQ0PU5bNvGvD6GvsdzPF4pZmoBECEHaGJz250pd33SDxASg+bu8IE6My+lmoxwhZS3PQrhlepSmou1b6GXVFSoHix/XeDOmoDSHawc97goT6ee/LavSMwGasDZLxtEp4nvv9a79Riy9/dzMW9ss7OL/OSVK9u3JY8hWGFT7UEd3hsKPsYl7701WGGDLgbpmPr0ESbueofm2KD1ubr/4JaIiIjoDv57f3+PfN/H29vbac5hcZYQ/nIDdLuophfB2fu2yISENnXMk4UoOqv+mUUqthh4I1j4srBOZszzfjpm/9KiPVLDjKx4wBD6mPYvT6/9tiDI13qmFgT5vrBOTl6Sv+/D5bQPp/AiP8+vy+MIKDNDt4LDgikXP6hLDW/05SuWk7LZMS+1qVAGs9riyoVayu/vx2Le0GbH8tUzi2vllSvRt3nHd+kY0ud8oYXADjs8+94aLwCUs5DW4RgH2BZ4byEiIiJ6huwBJhEREREREdEV+BxMIiIiIiIiugsOMImIiIiIiOguOMAkIiIiIiKiu+AAk4iIiIiIiO6CA0z6FaRST3q0CRERERERFcUB5t0VfB4eFSc1et0aGicbBZTx4HkePKNP21tqGC8jD4BUJsk30KrgsFUo6P3+PAN9EjSnLnnlcmNerND586xszIvlyp7XGeUu9FGZmEKZpP77uPxSgoiIiOjHvb+/R3/+/IkAMN2YhDKR53mR5+lIvkB9IFSk5AvU46a6iEgpFSlz2qZSe5FR4tjuWiZ5MtJGR1IkfSJ15BkViVQfGSXjfwsVmVRedjqNCaEik+rjonU5LZcfs9x5VjZmfrmy53XRen7to3IxEUlVLAYTExMTExMTE9PjEu9g3lHg9NFuD7EMn10TABCQgyZqz64GgFvqIlQHW2f1ZatEy/KxSJ5AHzgL+FYPSgCQLVQ3c7jJw+kDd44lmuiIuNygu8PCcRHEBdHvOwhQQCX1d7DC5tDHOXXJLXchL0fueVYyZl65sud1ZrncPtq/RsPzDL7eYH6ta4yIiIiIvvrfuY1CGcy6lW/bw+UQE4yTPB/T4Rqt8QhWBfCnQ8zr4wLlfm/MvlNoKHKVY1t/r6ftBoCQ0Mk2hD6WExuHamTlCQUz68ZjBsuDNwL8aRu2+3vqso/Z2TpwIKDS22ULVviJ+WHDBz7DCmqNbxG+xKujGn4CysDrVgCE8JcT2Bf71YXdTle4gdpuDedSXYKccjkx866//HOwbMy8ev4mNQy0gRWfhFgO+7jUtXG77LCcAs2RhcqXc0JIjfHISsbfIZbTPhxXQJkZuggRViqohD58WLAq6X1KaJNxrRARERH9zcpNkZWR9kxktDpOq7s5/ZaYl5L4Np2zfD1lpI2JlIynX8ZTOtNTLLPy4iSUifTV01JfpS4ikkoe/j5p029TKkWkjBfH30/vFPsYJvI8EymRlPO8SB/qGR+ruurcEJFUqlhd8soVzit7npWJmVeuzHmdUS6vj0ofe1Lv9DTfQtNu4/46P21aRjodQ+rj9OdDv4tImbjux3NcREqnphyXbjsmJiYmJiYmpt+Xbpgiu8PCdg7T3O7jt8R8hDP1lC1Udws4h7mEDiabKlryQt7fUBfZQQuAlBJSdlBDFXUpIS+t2hI4mCyB3syD543RwgZ+Oj9cYn6cm4n5EpfvfB4ISNXBh+OgyA3YYuXKxiy7v0eUu9KlPioXFK6TOmeDFTZfp91m8lPTprfYHba7sCdbdLSGMR68kXVabLdNplfvsE1fK6KDpmVhNNsvODRDt1JFnSsOERER0T+Av8Gk1+Q6sB0XruvCdVf4xA5b140HEO4afiW9qmwDtYqPdTIqChwb/XYb7XYf9gqohhusAgAfnwgrX1ejLUpAqQY+nOQ3myIZ7F6oS2a5i3lllY35iLpky+yjsoSC8a5djbZAzHELWM8x6bfRnl4xDA6XGLbbaB/S5em6RERERH8DDjDvroEacJ+7Fe4au2pqwRghMWju4sFLXl5KNamIkPK2Rza8Ul3gYu1b6CU7FKoHy18nd93iR4bEj9kQUOMudotk0BSssAkt9FSy/4x6fiegdAer/V0uAKJTR/yPC3XJLJeXV8S586xszCLlyp7XGfXM6qO9jEV+MmMGW+zCT3zs9yAH6OLGQWujBuzWcNwAAQBRrxYrF6ywQReDwwhdQGo+MoWIiIj+Df+9v79Hvu/j7e2tUIFvi4X4U7QLrdjy+2M+Yp8XywgFPe5mLKyTk5fkxwvs7BcnubH+P1iXYzkJ1Wmh2awCuw0W8/00yGShlQriu0Wp1WCPx3FuEZ/U4isFF4KB1N+nR57sM6MueeUuxsxpkqx+KhvzQrmy11Jeufw+2tep+q1/cusiNcx+QZ7Qx3RiX5waf4gXLjHsr9BJ+jFe/AjHfkUIf7lBtdtFxV9iWe2iWwnh+4BlVRAul9h1u7DgY9q24eYtiEVERET0F7t6gElERERERER0DqfIEhERERER0V1wgElERERERER3wQEmERERERER3QUHmERERERERHQXHGDSryAVH/NARERERPTqOMC8OwGp1H0f+P6vkxq9bg2Nk43xsxQ9z4Nn9Gl7Sw3jZeQBkMok+Qb6/IMWvxMKer8/zyTPcCxQl7xyuTEvVuj8eVY25sVyZc/rjHIX+qhMTKFMUv993Ff/UkJC37WecbzrziMiIiKiO3t/f4/+/PkTAWC6MQllIs/zIs/TkXyB+kCoSMkXqMdNdRGRUipS5rRNpfYio8Sx3bVM8mSkjY6kSPpE6sgzKhKpPjJKxv8WKjKpvOx0GhNCRSbVx0XrclouP2a586xszPxyZc/rovX82kflYiKSqliM10oy0gWPnYmJiYmJiYnpNyTewbyjwOmj3R5iGT67JgAgIAdN1J5dDQC31EWoDrbO6stWiZblY5E8uT5wFvCtHpQAIFuobuZwk4faB+4cSzTREXG5QXeHheMiiAui33cQFKlIJfV3sMLm0Mc5dcktdyEvR+55VjJmXrmy53Vmudw+2r9Gw/MMvt5gfq1rjIiIiIi++t+5jUIZzLqVb9vD5RATjDPylth1u7DgYzoFRiML4XKKTXOEbiWE7wOWdW3M18rrO4WGIlc5trWP6XCN1ngEqwL40yFsNwCEhE62IfSxnNg4VCMrTyiYWTceM1gevBHgT9uw3d9Tl33MztaBAwGV3i5bsMJPzA8bPvAZVlBrfIvwJV4d1fATUAZetwIghL+cwL7Yry7sdrrCDdR2aziX6hLklMuJmXf95Z+DZWPm1fM3qWGgTfI+E2I57ONS18btssNyCjRHFirfzgkJbb6e1xLaG2W+113cr1DQ4y6sChD6Pnb4TGWe21+q/8Ilhn0H2P/bn6Jtu6fXbtvG6eWViokQ/rSfuv7O74+IiIiotLtOkRUq0slUQamTKWxCRfpVpmn+SBLfpnNeTjLSnomMVsdpivvtxkRKikP7GpOeYpmVFyehTIm2f5W6iEgqefj7pE2/TakUkTJeHH8/vVPsY5jI80ykRFLO8yJ9qGd8rEpcWy9VrC555QrnlT3PysTMK1fmvM4ol9dHpY89qXd6mm+hqadxf52fNi0ipVNTh9P7Lf1eJyJlUsdadH/friERqcNU7Px2UcakznkVGZ26rnL2x8TExMTExMRUJt13imywBZodCADuGmhJQHSAejTqVgAAIABJREFUdZG7Vf+8HRa2c5g2CCCeSrhbwDnMJXQw2VTRkhfy/oa6yA5aAKSUkLKDGqqoSwl5aTWUwMFkCfRmHjxvjBY28NP54RLz49xMzJe4fOfzQECqDj4cB9ed0nnlysYsu79HlLvSpT4qFxSukzpngxU2X6fdZvJT06a32O03iw6aloXRbL9w0AzdShV1gfLvdaKD5m5xvEtYdH8AgtUG1f1FJQu+sYoOmtikznkH/f3tywv7IyIiIirj7BTZ8lysdxodIdBpVVGFROcT+PoLOqKLXAf24R8C9V4NW9eNBz7BGv6ohQaQ/H6ygVrFP3zeDhwb/f38TqFgmhvMAwD4RFippcpdQ0CpBlZO8ptNISHhwnXz65JZLriUV1bZmI+oS7bsPipJKJhZDYtv00NvlExJ/V61B73XZe4PQOBgAQMlXGxbwMo+96Izdtvs8z1vf0REREQl3H2RH3cNNMdj1NYTbKojNLH6xz68NFAD7nMXwF1jV00tGCMkBs1dPHjJy0upJhURUt72KIRXqgtcrH0LvWSHQvVg+etkYBE/MiR+VIOAGnexWyQfoIMVNqGFnkr2n1HP7wSU7mC1v8sFQHTqyYjyQl0yy+XlFXHuPCsbs0i5sud1Rj2z+mgvY5GfzJjBFrvwEx/7PcgButhgdcubT7DCBl0MDrfNBaQ+PlKk1HtdsD25VoTqwSq4v3ifOzTHBq3Pgu+rwQqbag8qHXP/iJcC+yMiIiK61n/v7++R7/t4e3u7U0gJbeqYJwtRdFaXF9r4W3xbSCVZgOOmMqkFQb4vrJOTl+THC+yEWE77cAov8vP8uhzLSahOC81mFdhtsJg7x7t/ZoZ4rZ7TuzDH4zi3iM/pgidFFoKB1PBG1um2k31m1CWv3MWYOU2S1U9lY14oV+a8zq0nLvXRvk7Vb/2TWxepYUZWvKBU6GM6sS/egT1dPGeFTtKPhwWV8ha2Kvtel7oW/OUG6HZRLbQ/ID7XBtj2T+/U5rZL+tr8es5f3B8RERHRdR4wwCQiIiIiIqJ/0Z1/g0lE9C/bP8LknHOPECEiIiL6u3CASUR0N1+fKUpERET0b7n7Ij9ERP/f3vmrqM98f/z93MK3VcGt5wKChaD82inTLML2D04pCF6AMGAZ+bTLQrCxTG/AQnIBqXdhTfvcQn5FEo2umcT4Z939vF9wYNdxzpw5M5NknJMZQgghhBDyd8IJJiGEkO9BKKirnN1LnT9K50/hb657XR7JZ/e25ZHq/jfDdngIOMEkhJC/EgH1zceSyBdgdeWIYup8fJ0/hb+57nV5JJ/d25ZHqvvfDNvhMSicYErtw/d9+L4Gfwg4h9w5c+QBSc5g9H0fvntG3xYKOsvnu+kZjhV0mvIZdZbX42Q/q6uzNF/dfl2QT2q4fo12MOgUyk3tz/Rea/IkILVbs53qIqGvWodThHDGK/TVN00yhap+nid1PpBO03hI+u19xsiNKfTntcfm7/RZcj3+xufHW4yHK5R3O78cjcsvh0ibxm3ZPe5Unzc9S907Lf+1U+1QMMZqP4NV8PXZz0s39st38Pr6Gv/7778xgBMiYuXqWJ5MoxyLUG7s+37s+w/iM6FiJR/AjgeyRWo/dpXYt5eWFfLJWLs6lmJfFzfXxsU6TfnMOuv1s7o6zfnq9uuqdgqpY99VsbhIJ2Kpquk4V4RyY1elbSp1xT5zDZGxruiXy0TEUqm7X7NuUSZ13l7n942H+4rZn/camzXlm+63hz773ufHe1/Tqpd3G79InYxLkZYhtRvrXB8wjdtqY/qwz5uepe6dVq8d6j+DmXxd93np1n75DmGI7BUJnQF6vSGW0XdbAgAC8qWD1nebAeBxbJHoWgEW6UnyobNAYD3jy49Pp8idYY9whc2ujUt0FuYrSTNg7Gc1dZry1e3XhflkF83NG7z0J8bQe8MSHfTz7SA1fN/90jbfNca2H2m8jTdGb/zbYm9CeI4DKA15r6VModDF6rpHtlDn3XT+7vGA2/jzbnzT/faRfHZvW7677kLhubnB1PHwpF34/hzPnwt8tg/Xs0zj9rwxbXruuXfaoR/Oaoc6z0slvq73jHJjv3wTZx9TIpSLud0AEGA2XKM7GcFqAMFsCYxsWAgwmwGjkYVoOcOmM4LdiBAEgGU1gGiJ4RSYzG00EGE5HGDV/xk6nRvEWhT7c4ixFwJCQqefIQqwnI73dhSlCQV3bidjx/Lhj4Bg1kPZNeORbLkJsgsr+sTb7oN3fEYNtJ4Ac1zL8dETT2ht13BKdRryGXTu2+GQaDnEwNgJ6+o02fmTaOFFu8n4PWfMVum7SPouglnpzTfx9RbLGdAZWWggQrCcYpwZYxxHCnpiw2oAURBgi8+cZgntFuQz2lKtL3nOW/JO5ti5eViZ6LewvvIFlTpvrLNkPBzcP3LnvRbfV2b4fB7BRoSo0UAjChDAgtWIsBwu0JqPCu/Ty+EAqyeNychK7YmwnA3geBXuYxXG0Ul/1hibO1uiJYYDB8j+T/1W5LMvOhEhmA1y982COhjut5f5pabPgOR1iBPXQSFPt9+xr4EIUbDAYFf5y9vvi07TNdnYDqa6l+Q74Zfs3pH0BQHlzmEj6TuhqQ5PLWDzhlBqTD6n6K1foPEOtJ/M47bsHlfU503PPU93Tstfok60Q/EYK3vuKWg/k69LKei7t/Dn3WLDDdQLkZWx9t3Y1Wq/vJwuMet0qVbqNJ9Q+6VjqXdLubv0H6ezTOqEPxTYCRlr142VFPslfDcfYlmUtl+q12eHyTySLVeWL6GYIlauf6ZdR+GElXWawhDrhCiW9bO6YY9F+eqG9ZzIl4WiiKw8N/Z9N1biAp2Z3flwl0ohbLfou0kf2IXQHNhiKk/Eys354SCfiJXOhfPcIMxKKn005m8lcnf9pc6fp9M8Hs58ZthdP/d9f6ffeJ8+ClH9EtZXdB+rMo5O1b3+2Dz0l4jVlxC209cz5bqxzl8ndvnK61DcRnX8conP/NjV2XUwKTvxobn9pM77WsZKn3MdPN13i3WWX5NPt0N5fylsv0K/HNfnOCz1dB2yEFeVjhOhdKyEiJU6DIMtGren0wx93vTcc++0Ctes85+Xituviq8Lx3RR372pX75Pzl7B3LPFYuwc/uIWfgCTPoQTwlsDWgLvbWCd/iQQemNMpYbrApvp+MQKyU/ReQtO2Cm7aG4X6a+LAEIH042LFwl4MKRdvDr4SLY8EgJS9fHunLvCY8pXV2fd8m6R70xCB9OlxmTuY4QIwXKDAJ1LlcLL/3IZrrDBBH3hIDRVxtSvL+q7ARaOl/gx/MAW7fLy3vvobBcYZPbm84k+OpYF2/Ix2pURYSlwhV8qk3aHc7yCchuE6uLzylv8Uefj6zx5XwGA7QdCAH1s8ZH8kWC8T3sYTyWU1pg0LTQaAIJ1eXkVxtHJuov6YzNcbdDMLiiyv3/QMCH66GCDae46MRhXr4OZM/2Cmj4DAARYjLProId1MEI3i+4xtJ/3toGeuNCbBd4cD84ZdS+ypVBn2TW5qB0yk4r6izFfkV9OuLBKHT62SLrjJ94h0O8AH6s+uliZFZow9fkHpP4168Rzj6H9wrq+No6x38kFE8xTeFhvNfpCoN9togmJ/icO3B4C2G6B1pOA+cnvp+kkD4+3RjDqYn8df0KrEWBd6ZokoNQTVtlFSEhIePBKdRbkC8vS6lJX5y1sKSZ0xhhkz1lCwe1s8HZJWULBnbew+BJm9ouIcqFSV0NAqf6+3W+ORB/rK79uQJ2Pr7MOhvu0UHAnLWwWb5h6Y4RSw+9WVGscRzXrbtIZOljAhRIePrrAanzqSydIJ95nl1eXIp2irLwaPitrv9DBeOBACIm+djFBLpy1ri0mnSZM7WAqz5ivJkV1eP8EusAHbMz9FoLAgj35xHBwo0FsfO65dxpQ/5pV8NwDFLffJb4u6rvhrfzyvVx9kx9vDXQmE7TWU2yaI3SQ2y5YKOj2G8bjMd7aE+iKO0r8FJ0JT2gBaF/jVwlvjW0z98KukHjpbJPOY0rL0UwNEVJetqX6I9lSGw/rwMJzaqhQz7CCdYUJiYDSfayyFSkAot9OR7RJpymfKa0Kp/pZXZ1V8tXt1wV2utmW4QJqYmO7OLroFmzyU6gz/MA2+sR7VoJ8gY0NVmV1r9h3r4apvPDjIE2oZ1hZvnCFDWy87K5FAvLiMyyzdj/3QTXZ8t092TimtORX5tMHlFHn4+u8P4X36acWsF3D8cLkSIx2s5rCknFUWPcLx6a33qIzcasfmxGusGk+Q+V1ZsceVLwWnHW/Nems6zMAgIVulk9IdJvpw6+x/fbn84ahB2c8xQbdSnUvtsWg03hNNrSDqbySfIV+AQA0d/c2obr7fmb0i4MFntFdD9HrjTEe9zBctNC/5MwKU583PvfcO63uNcvw3GMcf1V8feoZxdR3b+OX76ZwBVNqH6OsN/k+RscvqQOwfB+j400vvDW2z228eSHQjpA94e1fdgeE84QXuwELc7jtIaaY/Aid5g1WcnkBWHMfduUNQYrs9DCetqEnPvzcS8FeaVpCuNoA8zl8O32B3mjJY9lyK7zxEG13Dt9G+mtShaEoX2BbFmzf3n8WLTF0SnSa8pXoNFHYz+rqLMlXp1+b84VYbSLMRz78UYRgOay86VOxTg/jRXK2ZvJOfoDZtMrEydR3JbQ/Sm+qia1VNg4SagK70QBchffBCv30pf6mWiUbKpWMI3fuw85Chxs2JmqFgRPCmc6gJ/NkI4YTY+x8Qjjjey5TCfRb114Zo8776TSPh4MNpXL3j+L7ioB6toBGE1oDVqOBSCls7QYsaEhvDK/gPg3vDZvnOfxkMCBYbhBZI/gaGH4+G+5jpnFkqvuFY9N7w+b5BR+FG5Ac+iyxc7PXmW1aVlqHtJYn7rfm+7tJZ12fAdgGQHcCf5RsvBbMBkk+Q/v1xh4+MMHEtZPQ2XQTnPK6m2wJDTpN12RTO5jLK85n8AtCrDZbTAr6WXEdAG88RVvndC6nGCc7ERrGrSnN3OdNz1L3TTP3wcIxZnzuMbdfsa/Nzz2mcXsLn3075k1+KBQKhUK5gkh1xkZO1PlrdP4U+Zvr/ht8dm9bHqnuf7OwHR5W/nl9fY2DIMCfP39ACCGkjPyvvsecOm6AEEIIIeTv4cqb/BBCyG/n+PwsQgghhBCScfVNfgghhBBCCCGE/J1wgkkIIYQQQggh5CpwgkkIIYQQQggh5CpUmGAmZ2b57qVnrv0FCAXt+vB9H77vpuf8kcciOYPR9334rkblJjK2bZnO4zOwjvL4e70FR9OdWYdT5X2Dzot8VsfOujoJIYQQQsjVqHZMiYy1q2LxANvePq7IWLs6ltl2yULFrq9j+Z02CRUr+d1+eSxbpPZjV4kYQCyUG/taXty2Jp1CubHv+7H/pS/IWOv8mBKxlOLiOhSXd2+d9X1W1866OikUCoVCoVAo1xOGyF6TRu7vcIVN9G2WABCQLx20vtOEHY9ii0TXCrBIT+QNnQUC67naqmFh25p1hs4Avd4QyxN9Yb12kJ0NLOQT4FU5Mb1+effVido+S76iT6zomvJd0LaEEEIIIeRqFB9TIhT0xIbVAKIgwBaf6ccu5nYDQIDZcI3uZASrAQSzJTCyYSHAbAaMRhai5Qybzgh2I0IQAJbVAKIlhlNgMrfRQITlcIBVv0jnEG/tSZp2SLQcYoo07U46HePz//HRBU9obddwShqg2J9DjL0QEBI6/QxRgOV0vLejKE0ouHM7eb63fPgjIJj1MC45WeGRbLkJsgsr+sTb7oN3fEYNtJ4A1G3bC3R6O5US/fb7rq/s2+GQaDnE4KNeebfQaeYGPjPle6qnU2ofIyvAcgl0bAsNRAhm06S/AwX9OjsH8/S1LrlWSGj363goHWOEEEIIIT+d0yGyIlauG6t8eNtBiKyMte/Grlb7ELj0ezoNUZM6DYcTKtZpaKSQehfCtksv01ki99dZRUQslTovnPCknTLWrhurLHRSqNh1M3tMaWk9lLvzfXV5JFuuLFLHvnsYlqpc/0y7jtq2kk4RK7e4Hwml92PtKnUwl3cXnRf77Ew7a7dt8j1XySSvSPuygLlfG691IlY6Fx78xXf1rksUCoVCoVAoP0FOh8iKPjrbxX51KvzA9suXtliMncOovvAD6PQhAHhroCsB0QfW6UJG6I0x/XiB62q038b4uoh1QmcJ36PThIBUfbw7zpn5Ttgpu2huF3CyD0MH000TXVmSdjGPZMsjUbdtTUi8dD6x+rWLV7fw2bUJsHC8ZKEz9LDepiufpn5tutaJPjqWhdE82+BoDrvRRPsgXPf86xIhhBBCyE/gyu9gelhvW+gLAdVtotmV6AN4z30jBLDdAq2n670c9Tg6BZR6wruTvlsnJCTfAXscvDWCRgtPuw+e0GoEux9AzBS07UU6AYg2mtuP6pGol5Z3L50Aru4zU76b1aHQGPO1Llpi2Ouht5OyEHtCCCGEkN/B6Qlm+IFtc79BhlDPsCoq9NZAZzJBaz3FpjlCB6v9w7NQ0O03jMdjvLUn0NeYfT2MTgGl+1hlKyEARL99wTtsALz1QTtASLx0trsH6sK0HM102URIedkxM49kS208rAMLz6mhQj3DCtYVVtZMbVtF5xNawNEKVqang69vRl5ah+Ly7qfzQp+d3OTHlK9u2wKAha7cXezwbAWV+nXhtS5cYQMbL7vrhoDUPOaJEEIIIX8H/7y+vsZBEODPnz+HKbvNWSIEyw1g22jmN8HJCGboHezYIqHdNt4GDqBc9FeDw80toiWGgw+8+CNYONpYp1Dnae6tc2BagpAa/uhoGh4tMRw4xjnml81Xju3Mbbb0dWMdQ1qanrXhcjaAU3mTn++35XYIKHcOu4FK7QOgQtsW6yzzqVAu5q1Fpb5ZpQ6lbXgvnRf4bJ+/eWJzLVO+Gm0LAeW+oLVtJpuQIUIwG+w3oTL269PXuiTf6U2v6rcPIYQQQsjPoHiCSQghv55kgvkxOPdda0IIIYQQcgqeg0kI+WuReg67YWHka/y6PakIIYQQQr6B4nMwCSHkl+ONe1y5JIQQQgi5IlzBJIQQQgghhBByFTjBJIQQ8rMQCuraMc3U+fg6H6k8QgghhXCCSQgh5AwE1DcfuyJfgNWVY5up8/F1PlJ5hBBCiimcYErtw/d9+Nz84kwEpFL02cMioNy0b7tn9G2hoLN8vgt9kNGg05TPqLO8Hif7WV2dpfnq9uuCfFLD9Wu0g0GnUG5qf6b3dpOgpKy/9doYwhmv0FffNMkUCt3P1UVHDFPn/XTeZaycrIOE9v2v17KLrruEEEIq8fr6Gv/7778xgBMiYuXqWJ5MoxyLUG7s+37s+w/iM6FiJR/AjgeyRWo/dpXYt5eWFfLJWLs6lmJfFzfXxsU6TfnMOuv1s7o6zfnq9uuqdgqpY99VsbhIJ2Kpqum4jnzTtfFBxlHmA6nU3X1wizKp85Y6bz9Wqteh/nWXQqFQKNWFIbJXJHQG6PWGWEbfbQkACMiXDlrfbQaAx7FFomsFWDjJ79yhs0BgPUNVWYZp5P4OV9js2rhEZ2G+kjQDxn5WU6cpX91+XZhPdtHcvMFLlxtC7w1LdNDPt4PU8H33S9s81hi7N48yjjJCeI4DKA15r6VModDF6ro7/1Ln4+u8Znl1r5GEEEIqc/YxJUK5mNsNAAFmwzW6kxGsBhDMlsDIhoUAsxkwGlmIljNsOiPYjQhBAFhWA4iWGE6BydxGAxGWwwFW/Z+h07lqDFGZP4cYeyEgJHT6GaIAy+l4b0dRmlBw53ZyH7V8+CMgmPUwLrkDP5ItN0F2YUWfeNt98I7PqIHWE2COD/Mw7uUNfkJru4ZTqtOQz6Bz3w6HRMshBsZOWFenyc6fRAsv2k3G7zljVijoiZ30XUSIggUGYy/12Raz3hgeBJQ7h40lhgNn312khjuy0ECEYDnFOCuwQCekhj+yAASY9d7QduewG7m2LcpXOo4ktHs8/jKbI0SNBhpRgAAWrEa5b87pg57zlryTOXauG2Z5yq5+C+srX4ip8046T4yV0jFWNB5Kyju4l/XGucln2bUuN44QIZgNvudeRQghP516IbIy1r4bu1rtQ02AGELFOg0VlDrNJ1Ss05AuIfUulHCX/uN0lkmdcKACOyFj7bqxkmJnt+vmQyyL0tJ6KHdXp59py5XlSyimiJXrn2nXUVhgZZ2mcMI6oYZl/axu+GJRvrphbifyZWFpIivPjX3fjZW4QGdmdz70rWLYrdS5soWMlc7yHZcjY+3m0/zY1TL5XyTjJtNTrPNoLOSuRWX5iseRiJXOhf3l7d71TxErN9F97bEolT66VtxK5IGvqPOn6DSNFdMYKx8P5jqce41MxojO38cqvUJBoVAolGO5IER2i8XY2YW5AQDCD6DThwDgrYGuBEQfWKe/AIbeGNOPF7iuRvttfCKk5afovAUn7JRdNLcLOLtYQgfTTRNdWZL2q2x5JASk6uPdcc7sE6Z8dXXWLe8W+c4kdDBdAs9zH74/QRcbBJcrhefk+my4wuY47LYA722D1sSFVhIi9OBUXokLsBh7yXdDD+sgXbku0Rk6C2SDQ/RxsPpSyxbRR8eyMJpnG5fMYTeaaGd1336kOrb4uO5OLpBKAc748FpxI4Tq4nN15dU26ryTzuKxYqJsPNSvw4lrneijgw3ecvex49VSQggh1bjyO5ge1tsW+kJAdZtodiX6AN5z3wgBbLdA66nqSzs/RSd5eLw1gkYL++eaJ7Qawe6HBTMCSj3h3clCt2Ty3lmpzoJ8pWl1qavzFrYUEzpjDHo99HoDjFdAM9rgomddoeDW3akydDAeDPC2AvrahXuNbSWNOj2s0YWEQB8fh5P5urZESwx7PfR2cpuQ/j0C6h4/RuyQ6GN95TpR58PrNI6HuuUZrnW7H2MIIYRcwtU3+fHWQGcyQWs9xaY5Qge5rcOFgm6/YTwe4609ga74BPtTdCY8oQXsVw8uwVtj28xtGCMkXjrbZPJiSsvRTA0RUl52pMAj2VIbD+vAwnNqqFDPsIJ1hQdkAaX7WDnero+Ifjt9b9Ok05TPlFaFU/2srs4q+er26wI73ez4AAE1sbFdHK3UFWzyU6gz/MA2+tz9SCTkC2xUmbTuz3QMQw/OeIoNurmJ6n4lUKgurIO8FrrZtUFIdJvZDwtlOtPICf0CfOR7X3k+4MQ4ClfYwMbL7jolIG96TmXWX8595zI5NsI92aimtMT3pw85pM7H1wkUjxWgeIyZx4O5vCIM17pwhU3zGSo/jnjkGCGE1KJwkx+pfYyyK73vYxQlL94jt/mD5fsYBTP08mEk3hrb53YSZtKOkD3h7V66jwDhPOHFbsDCHG57iCkmP0KneYOVw40xrLkP+7jMsjxf7PQwnrahJz783OYdXmlaQrjaAPM5fDvCcjYo3bTlkWy5Fd54iLY7h28jWfUZVHhAkS+wLQu2b+8/i5YYOiU6TflKdJoo7Gd1dZbkq9OvzflCrDYR5iMf/ihCsBxW3kijWKeH8SI5WzPZnyPAbFplAhTiAxNMXBuNbGOP5TTtnyFWmy0mcx82IgTLDYKGjYlaYeAA2AZAdwJ/lGwqFMwGaZ836Uzx3vD53D96Pi7Pd3ochXCmM+jJHP4IufEnoJ4toNGE1oDVaCBSClu7AQsa0qsb/h/CGd9znUeg37r2aht13lWnYawUjzHTeDCXd7BJVf5eZrzWhXCmm/04yjYKu9Q1hBDyN2Le5IdCoVAo1xcZq6tvsPJLRaozNoCizl+j85HKo1AoFMpZ8s/r62scBAH+/PkDQgght0RC+yNY0RKzwb3eXySEEEIIuR9nn4NJCCGkLsfn8BFCCCGE/C6uvskPIYQQQgghhJC/E04wCSGEEEIIIYRcBU4wyY9Aqlseu0AIIYQQQgi5BpxgXh2enXV1pMaz3cLTwYfJWYq+78N39aG/ZXJcxck0AFK5aboLXXCm2xeEgs7K810cnPdtsiVN/9oncnn8vd5q5tQp7xt0XuSzOnbW1UkIIYQQQq4Gjym5ngjlxr7vx76vY/kA9kCoWMkHsOMiW0SslIqVe+hTqf3YTY95EMqNfS3TNBlrV8cy3cJeSB37ropFro1cJZP/hYrdXFqxHOqEULGba+NiW0x9QsZa58sWsZTVjq2oV969ddb3WV076+p8OHmkcUuhUCgUCoVypnAF84qEzgC93hDL6LstAQAB+dJB67vNAHCJLUL18eGsjj6V6FoBFukp26GzQGA9J6t/sovm5g1eegB36L1hiQ76Isn3Ym+xcDyESUYMBg4qnTfeyP0drrDZtbHBFpj7xHq9L1vIJ+yMNlK/vPvqRG2fJV/RJ1Z0Tfkq6PwRPNK4JYQQQgg5n5PHlAjlYm43vnweLYeYYpKmBZgN1+hORrAaQDBbAiMbFgLMZsBoZCFazrDpjGA3IgQBYFnn6hzirT2pYMt9dA6cSlORs9j7+qudYy8EhIROP0MUYDkdw9nPSk6nCQV3bifP95YPfwQEsx7GJacjPJItmc7+hwMHAir/uezCij7xtvvgHZ9RA62nLxqO9LXRjD4B5cK3GwAiBMspxqXteny0xBNa2zWcMluMaj14O5US/fZ7og/m8Tf4qFfeLXSauYHPTPmeLvHLFrPeGB4ElDuHjSWGux8eJLT7tV/v/Bkl30X2fzBDb+yV5NtiOQM6IwuNfB+8ZKwQQgghhDwK9UJkZax9N3a12ofAATGEinUaoiZ1Gg4nVKwrhXsV6LxIbqGzTMSXcM76dspYu26sstBJoWJ3p9uUlohQbkXfP6ItIpZK7v4+8OlR2GuS7if6s1BMkelwY993YyXSfL4f652dSV3VWX1DxFKparZU7BNC6eo2XKG8u+i82Gdn2llX55d6yVjv9IhY6VyY79F3D/u0iJXO9dfCfIldpjDteuMijkhrAAAIn0lEQVSWQqFQKBQK5THkghDZLRZj5zCqL/wAOn0IAN4a6EpA9IF15V/gT+i8mFvovAUn7JRdNLcLOLt4TwfTTRNdWZL2G2yRfXQBSCkhZR8tNNGWErIs5DF0MF0Cz3Mfvj9BFxsE+fRoibd9/Czelihf+dwhIFUf746D6y0qSbx0PrF6+P5Zl1v47E6IPjqWhdE826hoDrvRRDsLHV5t0Mw6ucxd6EryAUEuTPsD2/vWihBCCCHkppwMka2Ph/VWoy8E+t0mmpDofwLHb9ARUornYLz7R6D93MKH5yWTlHCNYNTFPvrxCa1GsHu+D50xBvt4U7idDd5CAPhE1GihXuSngFJPWDlp6KSQkPDgeWZbytW20dx+VLfn0vLupRPA1X1mzHejOkT5cNkjQgcLuFDCw0cXWI0r5iOEEEII+cVcfZMfbw10JhO01lNsmiN0sPrLHrKe0AJyqxUX4K2xbeY2KhESL51t8tBsSsvRTA0RUl52juQj2QIP68DCc1qgUM+wgnW6QpYcVZEciSGgJja2i/RBP1xhE1l4Vmn5BXZ+RUDpPlbZqhMA0W+nMxmTLRnFfUL0O/j6ZmTdupeXdz+dF/rs5CY/pnxV6lDEfnVRqC6s7ONwhQ1svOyWzQWkPjyP1Vtv0Zm46H7mrnMV8pVadLWxQgghhBByX/55fX2NgyDAnz9/KmX4slnIblOLDAnttvGWbnzRXw1QtodKuc7zuYXOW5RZmkco6IldsLGOIS1NTzYNibCcDeBU3uTn+23Z55NQ/S46nSaw3WDxloXuphuyNPBltWhfj1Ob+OQ2X0GE5bC8f0Jq+CPr8LODMqvYknLkU6FczFuLM/tm/fLupvMCn+3zN0+0jylfic6imiuNiZ1tuLMBbBvNbFMv08ZWuzJf8DEYH05mC/Idbg60Qj+192ATsbpjhRBCCCHkATh7gkkIIYQQQgghhJyC52ASQgghhBBCCLkKnGASQgghhBBCCLkKV95FlhCS8d9//xWm/e9//7ujJYQQQgghhNyH66xgCgV1lfMXWd63lHdvfnv9CCGEEEII+Uu5ygRTvgCrO+50yPJ+Nr+9foQQQgghhPytXD7BFOrwDLhbkytPKBe+r3HTxbCT9ZPQfnbW4uF3tevD9334vvs1vXZ5+zJ997zz9IopqMOtubc/TxsBqdSZ/UZC7Q/6hOISLCGEEEIIIV+4eIIp+8C69CDB65EvL3SmWEb3K2+Ph3Gvh8OjACX0pIX1tIder4fecIPm6PzJb7E/PYx7MwRn6ivmVB1uz739eUzyo8QcI7t1gZYnAO8XWkIIIYQQQsjvwzzBlBq+70IVLZkJhS5WuNsc5dHLy51Fj3CFzbmT33vX797c258nCJ0Ber3hWT9MJJPSEWx7nq6mJn+7hQODEEIIIYSQv5OLVjBFv/V1NeoorNHN4hqlTj/TkBBQ6Xd2D+lF+crKS3W7WRhlqu8wfDYtLx9eWrO8RK9/IjTXw7g3hrf7+hNa23VuMiVLwz3L/Onq7nHF9zpdjb0rUxvT+u7+TwstrkOZnafLO7bzO/2513col0wGQ2eA3nCJ5SxbTU3+Htxx5Z4QQgghhJAfwevra/zvv//GAM4UGWslvnwutRsrkf4vZKy0ikWaJpQba5mlqYP8pnzF5YlYuX7sapl8V8hY+5keEStXxzKf393rrFdevty87q/pUqlcuoiV68Zail3dXS0r+DPJt7dTxe6uDiJWWsdSnLbpwNcQsfpS3qk6mOw0l/d4/jRJWXknRKpY5fru7m+D/Pfff4Vy/nijUCgUCoVCoVAeX2qfgylUF58ntgL13jbQExd6s8Cb48EZ79NCZwFoCXgexNG7eKZ8pvKAAIuxl2waE3pYByN0n4CyXYfql1eGgFR9vDvO3gTRRwcbTLPluNDBoEp5oo/OdoFBpij8wBbtfZplwbZ8jHYZIiwFgBAIVxs0XxJfpy8+VjDdYGdJeY/mz5uQvXbJVzAJIYQQQgg5Sc0JpkQfa5yMEAwdjAcOhJDoaxcTLDDY7d7iYQ0NiXe08QGncj5DeXW5SXkCSj1hlU2GhISEl4R1bj8Mc96a5UVLDAfOab2hgwVcKOHhowusqk7ATHaWlPc4/rwuQrmY2w0ANuzdpzY6yyHDZAkhhBBCCMlRa5MfoboFBxkKKJ289xeGHpzxFBt0D96t89ZAV78AH17lfMXlAYCFrsxePpToNgOsd19tor17L7EL6yrlFSGgdB8rx9tNfES/naykhitsms9Qcn/MRf6YjMLywg9sm8+5dyuf93UIV9jAxktepz48wsRbb9GZuNWPkTHZaSzvsfxZzhNawK5vlBE6AwyXS8x6yTuY2d+cXBJCCCGEEHJIjRVMgX6raDUqxAcmmLg2Gg0AiBAsp4crld4bPp/7R/MNUz5TeQC2AdCdwB81knyzQboRTIjVZovJ3IeNCMFyg6BhY6JWGDj1y9uvZgHwfYyCGXpjD5AvsC0Ltr9f40K0xNBJbHGmG+jJHP4oKW85HFQoz8N42oZbUAdnOtvrjAIsp+PDHVq9N2yeX/BxYmOdk3Uw2mkq75H8aSZfnjX3Ye/qTgghhBBCCLmYszf5kWq/mUstkbEq3OzlFuWdKb+9vHvLb6+fQbjJD4VCoVAoFArlb5N/Xl9f4yAI8OfPH9wWCe2PYEVLzAbO7z3rkZCU//77rzDtf//73x0tIYQQQggh5D7U3kX2fDyMe5xWEkIIIYQQQshv5Y4TTEL+LrhKSQghhBBC/jbMu8gSQgghhBBCCCEV4QSTEEIIIYQQQshV4ASTEEIIIYQQQshV4ASTEEIIIYQQQshV4ASTEEIIIYQQQshV4ASTEEIIIYQQQshV4ASTEEIIIYQQQshV4ASTEEIIIYQQQshV+Of19TX+v//7v++2gxBCCCGEEELID+efOI7j7zaCEEIIIYQQQsjP5/8BCLFyyTGT+0MAAAAASUVORK5CYII=;" vertex="1" parent="1">
          <mxGeometry x="90" y="1110" width="920" height="269" as="geometry" />
        </mxCell>
        <mxCell id="CYTgUcAEzpgQwukntkNr-19" value="" style="rounded=0;whiteSpace=wrap;html=1;strokeColor=#000000;strokeWidth=2;fontSize=20;fillColor=none;" vertex="1" parent="1">
          <mxGeometry x="170" y="608" width="266" height="28" as="geometry" />
        </mxCell>
        <mxCell id="CYTgUcAEzpgQwukntkNr-22" value="" style="rounded=0;whiteSpace=wrap;html=1;strokeColor=#FFFFFF;strokeWidth=2;fontSize=20;fillColor=none;" vertex="1" parent="1">
          <mxGeometry x="270" y="1173" width="210" height="45" as="geometry" />
        </mxCell>
        <mxCell id="CYTgUcAEzpgQwukntkNr-23" value="" style="rounded=0;whiteSpace=wrap;html=1;strokeColor=#000000;strokeWidth=2;fontSize=20;fillColor=none;" vertex="1" parent="1">
          <mxGeometry x="170" y="640" width="267" height="360" as="geometry" />
        </mxCell>
        <mxCell id="CYTgUcAEzpgQwukntkNr-24" style="edgeStyle=orthogonalEdgeStyle;rounded=0;orthogonalLoop=1;jettySize=auto;html=1;strokeColor=#FF0000;strokeWidth=3;fontSize=20;exitX=0.5;exitY=1;exitDx=0;exitDy=0;" edge="1" parent="1" source="CYTgUcAEzpgQwukntkNr-23" target="CYTgUcAEzpgQwukntkNr-22">
          <mxGeometry relative="1" as="geometry" />
        </mxCell>
        <mxCell id="CYTgUcAEzpgQwukntkNr-25" value="挂在i2c1总线上的设备信息" style="text;html=1;strokeColor=none;fillColor=none;align=center;verticalAlign=middle;whiteSpace=wrap;rounded=0;strokeWidth=2;fontSize=20;" vertex="1" parent="1">
          <mxGeometry x="360" y="1081" width="290" height="30" as="geometry" />
        </mxCell>
        <mxCell id="CYTgUcAEzpgQwukntkNr-28" value="设置PIN复用" style="text;html=1;strokeColor=none;fillColor=none;align=center;verticalAlign=middle;whiteSpace=wrap;rounded=0;strokeWidth=2;fontSize=20;" vertex="1" parent="1">
          <mxGeometry x="480" y="920" width="180" height="30" as="geometry" />
        </mxCell>
        <mxCell id="CYTgUcAEzpgQwukntkNr-29" value="I2C挂在名为cbus总线上" style="text;html=1;strokeColor=none;fillColor=none;align=center;verticalAlign=middle;whiteSpace=wrap;rounded=0;strokeWidth=2;fontSize=20;" vertex="1" parent="1">
          <mxGeometry x="60" y="-40" width="300" height="30" as="geometry" />
        </mxCell>
        <mxCell id="CYTgUcAEzpgQwukntkNr-30" value="i2c1总线的设备信息" style="text;html=1;strokeColor=none;fillColor=none;align=center;verticalAlign=middle;whiteSpace=wrap;rounded=0;strokeWidth=2;fontSize=20;" vertex="1" parent="1">
          <mxGeometry x="520" y="520" width="300" height="30" as="geometry" />
        </mxCell>
        <mxCell id="CYTgUcAEzpgQwukntkNr-31" value="&lt;font style=&quot;font-size: 12px;&quot;&gt;// 此设备被禁用&lt;/font&gt;" style="text;html=1;strokeColor=none;fillColor=none;align=center;verticalAlign=middle;whiteSpace=wrap;rounded=0;strokeWidth=2;fontSize=20;" vertex="1" parent="1">
          <mxGeometry x="310" y="960" width="145" height="30" as="geometry" />
        </mxCell>
      </root>
    </mxGraphModel>
  </diagram>
</mxfile>
